rawline-300.ufo
<glyph name="exclam" format="2">
  <advance width="497"/>
  <unicode hex="0021"/>
  <outline>
    <contour>
      <point x="197" y="446" type="line"/>
      <point x="197" y="1468" type="line"/>
      <point x="301" y="1468" type="line"/>
      <point x="301" y="446" type="line"/>
    </contour>
    <contour>
      <point x="197" y="0" type="line"/>
      <point x="197" y="209" type="line"/>
      <point x="301" y="209" type="line"/>
      <point x="301" y="0" type="line"/>
    </contour>
  </outline>
</glyph>
<glyph name="quotedbl" format="2">
  <advance width="540"/>
  <unicode hex="0022"/>
  <outline>
    <contour>
      <point x="143" y="1106" type="line"/>
      <point x="143" y="1462" type="line"/>
      <point x="236" y="1462" type="line"/>
      <point x="236" y="1106" type="line"/>
    </contour>
    <contour>
      <point x="305" y="1106" type="line"/>
      <point x="305" y="1462" type="line"/>
      <point x="395" y="1462" type="line"/>
      <point x="395" y="1106" type="line"/>
    </contour>
  </outline>
</glyph>
<glyph name="numbersign" format="2">
  <advance width="1370"/>
  <unicode hex="0023"/>
  <outline>
    <contour>
      <point x="1292" y="954" type="line"/>
      <point x="1036" y="954" type="line"/>
      <point x="932" y="518" type="line"/>
      <point x="1206" y="518" type="line"/>
      <point x="1206" y="434" type="line"/>
      <point x="911" y="434" type="line"/>
      <point x="805" y="0" type="line"/>
      <point x="715" y="0" type="line"/>
      <point x="823" y="434" type="line"/>
      <point x="397" y="434" type="line"/>
      <point x="291" y="0" type="line"/>
      <point x="201" y="0" type="line"/>
      <point x="309" y="434" type="line"/>
      <point x="78" y="434" type="line"/>
      <point x="78" y="518" type="line"/>
      <point x="328" y="518" type="line"/>
      <point x="434" y="954" type="line"/>
      <point x="162" y="954" type="line"/>
      <point x="162" y="1034" type="line"/>
      <point x="455" y="1034" type="line"/>
      <point x="555" y="1454" type="line"/>
      <point x="645" y="1454" type="line"/>
      <point x="543" y="1034" type="line"/>
      <point x="969" y="1034" type="line"/>
      <point x="1069" y="1454" type="line"/>
      <point x="1159" y="1454" type="line"/>
      <point x="1057" y="1034" type="line"/>
      <point x="1292" y="1034" type="line"/>
    </contour>
    <contour>
      <point x="844" y="518" type="line"/>
      <point x="948" y="954" type="line"/>
      <point x="522" y="954" type="line"/>
      <point x="416" y="518" type="line"/>
    </contour>
  </outline>
</glyph>
<glyph name="dollar" format="2">
  <advance width="1263"/>
  <unicode hex="0024"/>
  <anchor x="655" y="1485" name="Anchor-1"/>
  <anchor x="657" y="0" name="Anchor-0"/>
  <outline>
    <contour>
      <point x="1182" y="373" type="qcurve" smooth="yes"/>
      <point x="1182" y="189"/>
      <point x="908" y="-9"/>
      <point x="674" y="-12" type="qcurve"/>
      <point x="674" y="-203" type="line"/>
      <point x="600" y="-203" type="line"/>
      <point x="600" y="-10" type="line"/>
      <point x="298" y="8"/>
      <point x="86" y="205" type="qcurve"/>
      <point x="141" y="289" type="line"/>
      <point x="227" y="200"/>
      <point x="464" y="91"/>
      <point x="606" y="82" type="qcurve"/>
      <point x="606" y="686" type="line"/>
      <point x="507" y="708"/>
      <point x="373" y="747"/>
      <point x="249" y="807"/>
      <point x="178" y="881"/>
      <point x="137" y="987"/>
      <point x="137" y="1057" type="qcurve" smooth="yes"/>
      <point x="137" y="1239"/>
      <point x="388" y="1451"/>
      <point x="600" y="1462" type="qcurve"/>
      <point x="600" y="1669" type="line"/>
      <point x="674" y="1669" type="line"/>
      <point x="674" y="1464" type="line"/>
      <point x="931" y="1458"/>
      <point x="1104" y="1294" type="qcurve"/>
      <point x="1051" y="1212" type="line"/>
      <point x="914" y="1364"/>
      <point x="670" y="1370" type="qcurve"/>
      <point x="670" y="774" type="line"/>
      <point x="774" y="751"/>
      <point x="915" y="710"/>
      <point x="1053" y="646"/>
      <point x="1133" y="566"/>
      <point x="1182" y="449"/>
    </contour>
    <contour>
      <point x="244" y="1071" type="qcurve" smooth="yes"/>
      <point x="244" y="1007"/>
      <point x="284" y="918"/>
      <point x="379" y="853"/>
      <point x="505" y="810"/>
      <point x="606" y="788" type="qcurve"/>
      <point x="606" y="1368" type="line"/>
      <point x="423" y="1361"/>
      <point x="244" y="1205"/>
    </contour>
    <contour>
      <point x="670" y="80" type="line"/>
      <point x="861" y="82"/>
      <point x="1071" y="223"/>
      <point x="1071" y="360" type="qcurve" smooth="yes"/>
      <point x="1071" y="489"/>
      <point x="884" y="624"/>
      <point x="670" y="672" type="qcurve"/>
    </contour>
  </outline>
</glyph>
<glyph name="percent" format="2">
  <advance width="1429"/>
  <unicode hex="0025"/>
  <outline>
    <contour>
      <point x="88" y="1184" type="qcurve" smooth="yes"/>
      <point x="88" y="1305"/>
      <point x="262" y="1475"/>
      <point x="385" y="1475" type="qcurve" smooth="yes"/>
      <point x="509" y="1475"/>
      <point x="682" y="1306"/>
      <point x="682" y="1184" type="qcurve" smooth="yes"/>
      <point x="682" y="1064"/>
      <point x="509" y="895"/>
      <point x="385" y="895" type="qcurve" smooth="yes"/>
      <point x="262" y="895"/>
      <point x="88" y="1064"/>
    </contour>
    <contour>
      <point x="121" y="43" type="line"/>
      <point x="692" y="748" type="line"/>
      <point x="1253" y="1460" type="line"/>
      <point x="1311" y="1413" type="line"/>
      <point x="739" y="707" type="line"/>
      <point x="176" y="-6" type="line"/>
    </contour>
    <contour>
      <point x="602" y="1184" type="qcurve" smooth="yes"/>
      <point x="602" y="1277"/>
      <point x="472" y="1409"/>
      <point x="385" y="1409" type="qcurve" smooth="yes"/>
      <point x="295" y="1409"/>
      <point x="170" y="1275"/>
      <point x="170" y="1184" type="qcurve" smooth="yes"/>
      <point x="170" y="1092"/>
      <point x="297" y="961"/>
      <point x="385" y="961" type="qcurve" smooth="yes"/>
      <point x="475" y="961"/>
      <point x="602" y="1095"/>
    </contour>
    <contour>
      <point x="748" y="270" type="qcurve" smooth="yes"/>
      <point x="748" y="390"/>
      <point x="921" y="559"/>
      <point x="1044" y="559" type="qcurve" smooth="yes"/>
      <point x="1168" y="559"/>
      <point x="1341" y="390"/>
      <point x="1341" y="270" type="qcurve" smooth="yes"/>
      <point x="1341" y="148"/>
      <point x="1168" y="-20"/>
      <point x="1044" y="-20" type="qcurve" smooth="yes"/>
      <point x="921" y="-20"/>
      <point x="748" y="149"/>
    </contour>
    <contour>
      <point x="1262" y="361"/>
      <point x="1131" y="494"/>
      <point x="1044" y="494" type="qcurve" smooth="yes"/>
      <point x="955" y="494"/>
      <point x="829" y="359"/>
      <point x="829" y="270" type="qcurve" smooth="yes"/>
      <point x="829" y="176"/>
      <point x="955" y="45"/>
      <point x="1044" y="45" type="qcurve" smooth="yes"/>
      <point x="1134" y="45"/>
      <point x="1262" y="179"/>
    </contour>
  </outline>
</glyph>
<glyph name="ampersand" format="2">
  <advance width="1341"/>
  <unicode hex="0026"/>
  <outline>
    <contour>
      <point x="1327" y="0" type="line"/>
      <point x="1190" y="0" type="line"/>
      <point x="1006" y="195" type="line"/>
      <point x="920" y="94"/>
      <point x="690" y="-20"/>
      <point x="557" y="-20" type="qcurve" smooth="yes"/>
      <point x="435" y="-20"/>
      <point x="228" y="71"/>
      <point x="100" y="250"/>
      <point x="100" y="365" type="qcurve" smooth="yes"/>
      <point x="100" y="437"/>
      <point x="149" y="563"/>
      <point x="248" y="672"/>
      <point x="349" y="755"/>
      <point x="424" y="805" type="qcurve"/>
      <point x="306" y="930"/>
      <point x="213" y="1087"/>
      <point x="213" y="1161" type="qcurve" smooth="yes"/>
      <point x="213" y="1290"/>
      <point x="418" y="1473"/>
      <point x="569" y="1473" type="qcurve" smooth="yes"/>
      <point x="708" y="1473"/>
      <point x="895" y="1314"/>
      <point x="895" y="1194" type="qcurve" smooth="yes"/>
      <point x="895" y="1146"/>
      <point x="857" y="1053"/>
      <point x="803" y="981"/>
      <point x="706" y="896"/>
      <point x="627" y="838"/>
      <point x="563" y="795" type="qcurve"/>
      <point x="1001" y="340" type="line"/>
      <point x="1096" y="511"/>
      <point x="1096" y="713" type="qcurve"/>
      <point x="1186" y="713" type="line"/>
      <point x="1186" y="471"/>
      <point x="1063" y="274" type="qcurve"/>
    </contour>
    <contour>
      <point x="567" y="1389" type="qcurve" smooth="yes"/>
      <point x="458" y="1389"/>
      <point x="309" y="1256"/>
      <point x="309" y="1163" type="qcurve" smooth="yes"/>
      <point x="309" y="1109"/>
      <point x="387" y="980"/>
      <point x="502" y="858" type="qcurve"/>
      <point x="581" y="910"/>
      <point x="672" y="978"/>
      <point x="762" y="1063"/>
      <point x="801" y="1145"/>
      <point x="801" y="1190" type="qcurve" smooth="yes"/>
      <point x="801" y="1276"/>
      <point x="668" y="1389"/>
    </contour>
    <contour>
      <point x="569" y="63" type="qcurve" smooth="yes"/>
      <point x="791" y="63"/>
      <point x="946" y="256" type="qcurve"/>
      <point x="483" y="741" type="line"/>
      <point x="347" y="650"/>
      <point x="201" y="472"/>
      <point x="201" y="360" type="qcurve" smooth="yes"/>
      <point x="201" y="266"/>
      <point x="314" y="127"/>
      <point x="477" y="63"/>
    </contour>
  </outline>
</glyph>
<glyph name="parenleft" format="2">
  <advance width="524"/>
  <unicode hex="0028"/>
  <outline>
    <contour>
      <point x="375" y="1503" type="qcurve"/>
      <point x="455" y="1462" type="line"/>
      <point x="353" y="1311"/>
      <point x="190" y="879"/>
      <point x="190" y="700" type="qcurve" smooth="yes"/>
      <point x="190" y="542"/>
      <point x="330" y="160"/>
      <point x="455" y="-23" type="qcurve"/>
      <point x="377" y="-68" type="line"/>
      <point x="94" y="348"/>
      <point x="94" y="707" type="qcurve" smooth="yes"/>
      <point x="94" y="899"/>
      <point x="240" y="1275"/>
    </contour>
  </outline>
</glyph>
<glyph name="parenright" format="2">
  <advance width="522"/>
  <unicode hex="0029"/>
  <outline>
    <contour>
      <point x="147" y="-68" type="qcurve"/>
      <point x="70" y="-23" type="line"/>
      <point x="193" y="161"/>
      <point x="332" y="542"/>
      <point x="332" y="700" type="qcurve" smooth="yes"/>
      <point x="332" y="879"/>
      <point x="170" y="1312"/>
      <point x="68" y="1462" type="qcurve"/>
      <point x="147" y="1503" type="line"/>
      <point x="282" y="1278"/>
      <point x="428" y="899"/>
      <point x="428" y="707" type="qcurve" smooth="yes"/>
      <point x="428" y="345"/>
    </contour>
  </outline>
</glyph>
<glyph name="asterisk" format="2">
  <advance width="643"/>
  <unicode hex="002A"/>
  <outline>
    <contour>
      <point x="184" y="1133" type="line"/>
      <point x="270" y="1255" type="line"/>
      <point x="131" y="1300" type="line"/>
      <point x="150" y="1360" type="line"/>
      <point x="289" y="1311" type="line"/>
      <point x="287" y="1458" type="line"/>
      <point x="356" y="1458" type="line"/>
      <point x="352" y="1311" type="line"/>
      <point x="494" y="1360" type="line"/>
      <point x="512" y="1300" type="line"/>
      <point x="373" y="1255" type="line"/>
      <point x="461" y="1133" type="line"/>
      <point x="408" y="1096" type="line"/>
      <point x="322" y="1221" type="line"/>
      <point x="236" y="1096" type="line"/>
    </contour>
  </outline>
</glyph>
<glyph name="plus" format="2">
  <advance width="847"/>
  <unicode hex="002B"/>
  <outline>
    <contour>
      <point x="737" y="770" type="line"/>
      <point x="737" y="684" type="line"/>
      <point x="471" y="684" type="line"/>
      <point x="471" y="395" type="line"/>
      <point x="377" y="395" type="line"/>
      <point x="377" y="684" type="line"/>
      <point x="109" y="684" type="line"/>
      <point x="109" y="770" type="line"/>
      <point x="377" y="770" type="line"/>
      <point x="377" y="1059" type="line"/>
      <point x="471" y="1059" type="line"/>
      <point x="471" y="770" type="line"/>
    </contour>
  </outline>
</glyph>
<glyph name="comma" format="2">
  <advance width="487"/>
  <unicode hex="002C"/>
  <outline>
    <contour>
      <point x="199" y="-166" type="line"/>
      <point x="229" y="-4" type="line"/>
      <point x="193" y="-4" type="line"/>
      <point x="193" y="174" type="line"/>
      <point x="297" y="174" type="line"/>
      <point x="297" y="-4" type="line"/>
      <point x="254" y="-166" type="line"/>
    </contour>
  </outline>
</glyph>
<glyph name="hyphen" format="2">
  <advance width="864"/>
  <unicode hex="002D"/>
  <outline>
    <contour>
      <point x="137" y="510" type="line"/>
      <point x="137" y="604" type="line"/>
      <point x="727" y="604" type="line"/>
      <point x="727" y="510" type="line"/>
    </contour>
  </outline>
</glyph>
<glyph name="period" format="2">
  <advance width="362"/>
  <unicode hex="002E"/>
  <outline>
    <contour>
      <point x="137" y="0" type="line"/>
      <point x="137" y="174" type="line"/>
      <point x="227" y="174" type="line"/>
      <point x="227" y="0" type="line"/>
    </contour>
  </outline>
</glyph>
<glyph name="slash" format="2">
  <advance width="1185"/>
  <unicode hex="002F"/>
  <outline>
    <contour>
      <point x="1128" y="1454" type="line"/>
      <point x="172" y="0" type="line"/>
      <point x="55" y="0" type="line"/>
      <point x="1010" y="1454" type="line"/>
    </contour>
  </outline>
</glyph>
<glyph name="zero" format="2">
  <advance width="1388"/>
  <unicode hex="0030"/>
  <outline>
    <contour>
      <point x="102" y="717" type="qcurve" smooth="yes"/>
      <point x="102" y="822"/>
      <point x="154" y="1033"/>
      <point x="257" y="1222"/>
      <point x="397" y="1368"/>
      <point x="587" y="1454"/>
      <point x="694" y="1454" type="qcurve" smooth="yes"/>
      <point x="807" y="1454"/>
      <point x="1003" y="1362"/>
      <point x="1140" y="1210"/>
      <point x="1239" y="1017"/>
      <point x="1286" y="814"/>
      <point x="1286" y="717" type="qcurve" smooth="yes"/>
      <point x="1286" y="611"/>
      <point x="1234" y="400"/>
      <point x="1131" y="213"/>
      <point x="990" y="68"/>
      <point x="800" y="-18"/>
      <point x="694" y="-20" type="qcurve"/>
      <point x="581" y="-17"/>
      <point x="385" y="75"/>
      <point x="248" y="224"/>
      <point x="149" y="414"/>
      <point x="102" y="617"/>
    </contour>
    <contour>
      <point x="694" y="76" type="qcurve" smooth="yes"/>
      <point x="811" y="76"/>
      <point x="1003" y="199"/>
      <point x="1119" y="392"/>
      <point x="1182" y="611"/>
      <point x="1182" y="717" type="qcurve" smooth="yes"/>
      <point x="1182" y="831"/>
      <point x="1114" y="1057"/>
      <point x="992" y="1242"/>
      <point x="804" y="1358"/>
      <point x="694" y="1358" type="qcurve" smooth="yes"/>
      <point x="599" y="1358"/>
      <point x="436" y="1276"/>
      <point x="325" y="1144"/>
      <point x="244" y="975"/>
      <point x="207" y="800"/>
      <point x="207" y="717" type="qcurve" smooth="yes"/>
      <point x="210" y="626"/>
      <point x="252" y="445"/>
      <point x="334" y="279"/>
      <point x="446" y="152"/>
      <point x="603" y="76"/>
    </contour>
  </outline>
</glyph>
<glyph name="one" format="2">
  <advance width="806"/>
  <unicode hex="0031"/>
  <outline>
    <contour>
      <point x="768" y="94" type="line"/>
      <point x="768" y="0" type="line"/>
      <point x="131" y="0" type="line"/>
      <point x="131" y="94" type="line"/>
      <point x="406" y="94" type="line"/>
      <point x="406" y="1352" type="line"/>
      <point x="368" y="1298"/>
      <point x="161" y="1176"/>
      <point x="84" y="1176" type="qcurve"/>
      <point x="84" y="1272" type="line"/>
      <point x="124" y="1272"/>
      <point x="219" y="1312"/>
      <point x="297" y="1369"/>
      <point x="366" y="1429"/>
      <point x="404" y="1469"/>
      <point x="406" y="1473" type="qcurve"/>
      <point x="508" y="1473" type="line"/>
      <point x="508" y="94" type="line"/>
    </contour>
  </outline>
</glyph>
<glyph name="two" format="2">
  <advance width="1175"/>
  <unicode hex="0032"/>
  <outline>
    <contour>
      <point x="100" y="0" type="line"/>
      <point x="96" y="129"/>
      <point x="145" y="337"/>
      <point x="250" y="489"/>
      <point x="383" y="597"/>
      <point x="473" y="641" type="qcurve" smooth="yes"/>
      <point x="511" y="659"/>
      <point x="647" y="718"/>
      <point x="732" y="757"/>
      <point x="841" y="824"/>
      <point x="904" y="892"/>
      <point x="948" y="996"/>
      <point x="948" y="1059" type="qcurve" smooth="yes"/>
      <point x="948" y="1192"/>
      <point x="771" y="1376"/>
      <point x="606" y="1376" type="qcurve" smooth="yes"/>
      <point x="541" y="1376"/>
      <point x="421" y="1345"/>
      <point x="333" y="1299"/>
      <point x="255" y="1236"/>
      <point x="206" y="1183"/>
      <point x="186" y="1155" type="qcurve"/>
      <point x="117" y="1219" type="line"/>
      <point x="126" y="1234"/>
      <point x="164" y="1280"/>
      <point x="255" y="1361"/>
      <point x="362" y="1425"/>
      <point x="527" y="1473"/>
      <point x="616" y="1473" type="qcurve" smooth="yes"/>
      <point x="724" y="1473"/>
      <point x="897" y="1405"/>
      <point x="1004" y="1288"/>
      <point x="1061" y="1141"/>
      <point x="1061" y="1059" type="qcurve" smooth="yes"/>
      <point x="1061" y="1005"/>
      <point x="1035" y="910"/>
      <point x="997" y="840"/>
      <point x="928" y="772"/>
      <point x="873" y="729"/>
      <point x="779" y="679"/>
      <point x="722" y="653"/>
      <point x="621" y="610"/>
      <point x="600" y="600" type="qcurve" smooth="yes"/>
      <point x="497" y="556"/>
      <point x="349" y="449"/>
      <point x="270" y="354"/>
      <point x="224" y="236"/>
      <point x="212" y="150"/>
      <point x="211" y="94" type="qcurve"/>
      <point x="1063" y="94" type="line"/>
      <point x="1063" y="0" type="line"/>
    </contour>
  </outline>
</glyph>
<glyph name="four" format="2">
  <advance width="1150"/>
  <unicode hex="0034"/>
  <outline>
    <contour>
      <point x="795" y="0" type="line"/>
      <point x="795" y="406" type="line"/>
      <point x="51" y="406" type="line"/>
      <point x="51" y="496" type="line"/>
      <point x="825" y="1454" type="line"/>
      <point x="897" y="1454" type="line"/>
      <point x="897" y="500" type="line"/>
      <point x="1077" y="500" type="line"/>
      <point x="1077" y="406" type="line"/>
      <point x="897" y="406" type="line"/>
      <point x="897" y="0" type="line"/>
    </contour>
    <contour>
      <point x="168" y="500" type="line"/>
      <point x="803" y="500" type="line"/>
      <point x="803" y="1290" type="line"/>
    </contour>
  </outline>
</glyph>
<glyph name="five" format="2">
  <advance width="1134"/>
  <unicode hex="0035"/>
  <outline>
    <contour>
      <point x="551" y="-20" type="qcurve" smooth="yes"/>
      <point x="398" y="-20"/>
      <point x="150" y="135"/>
      <point x="86" y="266" type="qcurve"/>
      <point x="162" y="309" type="line"/>
      <point x="218" y="202"/>
      <point x="428" y="74"/>
      <point x="551" y="74" type="qcurve" smooth="yes"/>
      <point x="717" y="74"/>
      <point x="942" y="290"/>
      <point x="942" y="457" type="qcurve" smooth="yes"/>
      <point x="942" y="618"/>
      <point x="723" y="827"/>
      <point x="563" y="827" type="qcurve" smooth="yes"/>
      <point x="459" y="827"/>
      <point x="275" y="733"/>
      <point x="217" y="649" type="qcurve"/>
      <point x="117" y="649" type="line"/>
      <point x="279" y="1454" type="line"/>
      <point x="975" y="1454" type="line"/>
      <point x="975" y="1358" type="line"/>
      <point x="356" y="1358" type="line"/>
      <point x="244" y="782" type="line"/>
      <point x="304" y="848"/>
      <point x="475" y="920"/>
      <point x="573" y="920" type="qcurve" smooth="yes"/>
      <point x="772" y="920"/>
      <point x="1047" y="659"/>
      <point x="1047" y="459" type="qcurve" smooth="yes"/>
      <point x="1047" y="319"/>
      <point x="912" y="98"/>
      <point x="686" y="-20"/>
    </contour>
  </outline>
</glyph>
<glyph name="six" format="2">
  <advance width="1228"/>
  <unicode hex="0036"/>
  <outline>
    <contour>
      <point x="641" y="973" type="qcurve" smooth="yes"/>
      <point x="494" y="973"/>
      <point x="257" y="810"/>
      <point x="211" y="678" type="qcurve"/>
      <point x="212" y="1004"/>
      <point x="445" y="1372"/>
      <point x="639" y="1372" type="qcurve" smooth="yes"/>
      <point x="760" y="1372"/>
      <point x="956" y="1237"/>
      <point x="997" y="1126" type="qcurve"/>
      <point x="1069" y="1182" type="line"/>
      <point x="1013" y="1313"/>
      <point x="785" y="1464"/>
      <point x="639" y="1464" type="qcurve" smooth="yes"/>
      <point x="395" y="1464"/>
      <point x="111" y="1014"/>
      <point x="111" y="571" type="qcurve" smooth="yes"/>
      <point x="111" y="299"/>
      <point x="400" y="-20"/>
      <point x="629" y="-20" type="qcurve" smooth="yes"/>
      <point x="770" y="-20"/>
      <point x="1005" y="113"/>
      <point x="1139" y="341"/>
      <point x="1139" y="477" type="qcurve" smooth="yes"/>
      <point x="1139" y="612"/>
      <point x="1006" y="840"/>
      <point x="777" y="973"/>
    </contour>
    <contour>
      <point x="221" y="477" type="qcurve" smooth="yes"/>
      <point x="221" y="644"/>
      <point x="462" y="885"/>
      <point x="631" y="885" type="qcurve" smooth="yes"/>
      <point x="798" y="885"/>
      <point x="1040" y="644"/>
      <point x="1040" y="310"/>
      <point x="800" y="72"/>
      <point x="631" y="72" type="qcurve" smooth="yes"/>
      <point x="464" y="72"/>
      <point x="221" y="311"/>
    </contour>
  </outline>
</glyph>
<glyph name="seven" format="2">
  <advance width="1044"/>
  <unicode hex="0037"/>
  <outline>
    <contour>
      <point x="881" y="1358" type="line"/>
      <point x="61" y="1358" type="line"/>
      <point x="61" y="1454" type="line"/>
      <point x="1044" y="1454" type="line"/>
      <point x="303" y="0" type="line"/>
      <point x="188" y="0" type="line"/>
    </contour>
  </outline>
</glyph>
<glyph name="eight" format="2">
  <advance width="1206"/>
  <unicode hex="0038"/>
  <outline>
    <contour>
      <point x="596" y="-14" type="qcurve" smooth="yes"/>
      <point x="382" y="-14"/>
      <point x="104" y="229"/>
      <point x="104" y="403" type="qcurve" smooth="yes"/>
      <point x="104" y="538"/>
      <point x="288" y="739"/>
      <point x="414" y="780" type="qcurve"/>
      <point x="302" y="821"/>
      <point x="156" y="985"/>
      <point x="156" y="1092" type="qcurve" smooth="yes"/>
      <point x="156" y="1176"/>
      <point x="235" y="1317"/>
      <point x="364" y="1405"/>
      <point x="522" y="1454"/>
      <point x="686" y="1454"/>
      <point x="844" y="1406"/>
      <point x="972" y="1318"/>
      <point x="1051" y="1178"/>
      <point x="1051" y="1094" type="qcurve" smooth="yes"/>
      <point x="1051" y="986"/>
      <point x="903" y="821"/>
      <point x="791" y="780" type="qcurve"/>
      <point x="926" y="735"/>
      <point x="1100" y="531"/>
      <point x="1100" y="397" type="qcurve" smooth="yes"/>
      <point x="1100" y="275"/>
      <point x="960" y="85"/>
      <point x="732" y="-14"/>
    </contour>
    <contour>
      <point x="602" y="819" type="qcurve" smooth="yes"/>
      <point x="684" y="819"/>
      <point x="838" y="881"/>
      <point x="946" y="1009"/>
      <point x="946" y="1092" type="qcurve" smooth="yes"/>
      <point x="946" y="1174"/>
      <point x="845" y="1298"/>
      <point x="690" y="1360"/>
      <point x="600" y="1360" type="qcurve" smooth="yes"/>
      <point x="462" y="1360"/>
      <point x="260" y="1210"/>
      <point x="260" y="1087" type="qcurve" smooth="yes"/>
      <point x="260" y="1005"/>
      <point x="368" y="879"/>
      <point x="521" y="819"/>
    </contour>
    <contour>
      <point x="600" y="735" type="qcurve" smooth="yes"/>
      <point x="504" y="735"/>
      <point x="326" y="655"/>
      <point x="209" y="499"/>
      <point x="209" y="403" type="qcurve" smooth="yes"/>
      <point x="209" y="305"/>
      <point x="332" y="151"/>
      <point x="511" y="76"/>
      <point x="606" y="76" type="qcurve" smooth="yes"/>
      <point x="702" y="76"/>
      <point x="879" y="155"/>
      <point x="997" y="310"/>
      <point x="997" y="406" type="qcurve" smooth="yes"/>
      <point x="997" y="505"/>
      <point x="874" y="660"/>
      <point x="695" y="735"/>
    </contour>
  </outline>
</glyph>
<glyph name="colon" format="2">
  <advance width="362"/>
  <unicode hex="003A"/>
  <outline>
    <contour>
      <point x="137" y="885" type="line"/>
      <point x="137" y="1059" type="line"/>
      <point x="225" y="1059" type="line"/>
      <point x="225" y="885" type="line"/>
    </contour>
    <contour>
      <point x="137" y="0" type="line"/>
      <point x="137" y="174" type="line"/>
      <point x="225" y="174" type="line"/>
      <point x="225" y="0" type="line"/>
    </contour>
  </outline>
</glyph>
<glyph name="semicolon" format="2">
  <advance width="391"/>
  <unicode hex="003B"/>
  <outline>
    <contour>
      <point x="145" y="885" type="line"/>
      <point x="145" y="1059" type="line"/>
      <point x="236" y="1059" type="line"/>
      <point x="236" y="885" type="line"/>
    </contour>
    <contour>
      <point x="152" y="-166" type="line"/>
      <point x="180" y="-4" type="line"/>
      <point x="143" y="-4" type="line"/>
      <point x="143" y="174" type="line"/>
      <point x="248" y="174" type="line"/>
      <point x="248" y="-4" type="line"/>
      <point x="207" y="-166" type="line"/>
    </contour>
  </outline>
</glyph>
<glyph name="less" format="2">
  <advance width="1036"/>
  <unicode hex="003C"/>
  <outline>
    <contour>
      <point x="70" y="559" type="line"/>
      <point x="926" y="1073" type="line"/>
      <point x="926" y="963" type="line"/>
      <point x="217" y="530" type="line"/>
      <point x="926" y="98" type="line"/>
      <point x="926" y="-14" type="line"/>
      <point x="70" y="498" type="line"/>
    </contour>
  </outline>
</glyph>
<glyph name="equal" format="2">
  <advance width="894"/>
  <unicode hex="003D"/>
  <outline>
    <contour>
      <point x="141" y="627" type="line"/>
      <point x="141" y="705" type="line"/>
      <point x="754" y="705" type="line"/>
      <point x="754" y="627" type="line"/>
    </contour>
    <contour>
      <point x="141" y="426" type="line"/>
      <point x="141" y="504" type="line"/>
      <point x="754" y="504" type="line"/>
      <point x="754" y="426" type="line"/>
    </contour>
  </outline>
</glyph>
<glyph name="greater" format="2">
  <advance width="1036"/>
  <unicode hex="003E"/>
  <outline>
    <contour>
      <point x="967" y="498" type="line"/>
      <point x="111" y="-14" type="line"/>
      <point x="111" y="98" type="line"/>
      <point x="817" y="530" type="line"/>
      <point x="111" y="963" type="line"/>
      <point x="111" y="1073" type="line"/>
      <point x="967" y="559" type="line"/>
    </contour>
  </outline>
</glyph>
<glyph name="question" format="2">
  <advance width="968"/>
  <unicode hex="003F"/>
  <outline>
    <contour>
      <point x="334" y="395" type="line"/>
      <point x="334" y="498"/>
      <point x="376" y="641"/>
      <point x="449" y="725"/>
      <point x="508" y="758" type="qcurve" smooth="yes"/>
      <point x="524" y="767"/>
      <point x="583" y="798"/>
      <point x="623" y="819"/>
      <point x="679" y="854"/>
      <point x="717" y="886"/>
      <point x="758" y="934"/>
      <point x="783" y="985"/>
      <point x="799" y="1053"/>
      <point x="799" y="1092" type="qcurve" smooth="yes"/>
      <point x="799" y="1164"/>
      <point x="748" y="1278"/>
      <point x="662" y="1348"/>
      <point x="556" y="1384"/>
      <point x="498" y="1384" type="qcurve" smooth="yes"/>
      <point x="384" y="1384"/>
      <point x="193" y="1262"/>
      <point x="145" y="1163" type="qcurve"/>
      <point x="72" y="1208" type="line"/>
      <point x="126" y="1332"/>
      <point x="363" y="1473"/>
      <point x="498" y="1473" type="qcurve" smooth="yes"/>
      <point x="575" y="1473"/>
      <point x="714" y="1423"/>
      <point x="825" y="1329"/>
      <point x="891" y="1178"/>
      <point x="891" y="1085" type="qcurve" smooth="yes"/>
      <point x="891" y="1034"/>
      <point x="872" y="948"/>
      <point x="832" y="882"/>
      <point x="788" y="831"/>
      <point x="721" y="785"/>
      <point x="667" y="753"/>
      <point x="628" y="732" type="qcurve" smooth="yes"/>
      <point x="607" y="721"/>
      <point x="596" y="715" type="qcurve" smooth="yes"/>
      <point x="554" y="692"/>
      <point x="504" y="653"/>
      <point x="449" y="582"/>
      <point x="424" y="472"/>
      <point x="424" y="395" type="qcurve"/>
    </contour>
    <contour>
      <point x="336" y="0" type="line"/>
      <point x="336" y="201" type="line"/>
      <point x="426" y="201" type="line"/>
      <point x="426" y="0" type="line"/>
    </contour>
  </outline>
</glyph>
<glyph name="at" format="2">
  <advance width="1708"/>
  <unicode hex="0040"/>
  <outline>
    <contour>
      <point x="1591" y="455" type="qcurve" smooth="yes"/>
      <point x="1591" y="424"/>
      <point x="1587" y="356"/>
      <point x="1572" y="257"/>
      <point x="1548" y="168"/>
      <point x="1503" y="76"/>
      <point x="1443" y="9"/>
      <point x="1352" y="-33"/>
      <point x="1296" y="-33" type="qcurve" smooth="yes"/>
      <point x="1257" y="-33"/>
      <point x="1199" y="-11"/>
      <point x="1165" y="22"/>
      <point x="1143" y="76"/>
      <point x="1133" y="126"/>
      <point x="1130" y="162" type="qcurve"/>
      <point x="1071" y="99"/>
      <point x="887" y="16"/>
      <point x="786" y="16" type="qcurve" smooth="yes"/>
      <point x="647" y="16"/>
      <point x="481" y="166"/>
      <point x="481" y="285" type="qcurve" smooth="yes"/>
      <point x="481" y="358"/>
      <point x="547" y="467"/>
      <point x="660" y="526"/>
      <point x="787" y="553"/>
      <point x="858" y="553" type="qcurve" smooth="yes"/>
      <point x="992" y="553"/>
      <point x="1124" y="506" type="qcurve"/>
      <point x="1124" y="588"/>
      <point x="1100" y="709"/>
      <point x="1043" y="806"/>
      <point x="939" y="856"/>
      <point x="864" y="856" type="qcurve" smooth="yes"/>
      <point x="707" y="856"/>
      <point x="575" y="758" type="qcurve"/>
      <point x="543" y="821" type="line"/>
      <point x="706" y="928"/>
      <point x="872" y="928" type="qcurve" smooth="yes"/>
      <point x="956" y="928"/>
      <point x="1079" y="877"/>
      <point x="1147" y="801"/>
      <point x="1187" y="683"/>
      <point x="1198" y="578"/>
      <point x="1198" y="510" type="qcurve" smooth="yes"/>
      <point x="1198" y="227" type="line" smooth="yes"/>
      <point x="1198" y="125"/>
      <point x="1240" y="31"/>
      <point x="1305" y="31" type="qcurve" smooth="yes"/>
      <point x="1367" y="31"/>
      <point x="1460" y="118"/>
      <point x="1508" y="255"/>
      <point x="1530" y="392"/>
      <point x="1530" y="457" type="qcurve" smooth="yes"/>
      <point x="1530" y="655"/>
      <point x="1350" y="985"/>
      <point x="1037" y="1176"/>
      <point x="850" y="1176" type="qcurve" smooth="yes"/>
      <point x="712" y="1176"/>
      <point x="460" y="1070"/>
      <point x="272" y="886"/>
      <point x="160" y="621"/>
      <point x="160" y="471" type="qcurve" smooth="yes"/>
      <point x="160" y="276"/>
      <point x="340" y="-50"/>
      <point x="654" y="-240"/>
      <point x="842" y="-240" type="qcurve" smooth="yes"/>
      <point x="1005" y="-240"/>
      <point x="1155" y="-162" type="qcurve"/>
      <point x="1180" y="-217" type="line"/>
      <point x="1017" y="-299"/>
      <point x="842" y="-299" type="qcurve" smooth="yes"/>
      <point x="691" y="-299"/>
      <point x="417" y="-181"/>
      <point x="216" y="22"/>
      <point x="98" y="309"/>
      <point x="98" y="471" type="qcurve" smooth="yes"/>
      <point x="98" y="638"/>
      <point x="224" y="927"/>
      <point x="433" y="1123"/>
      <point x="706" y="1235"/>
      <point x="852" y="1235" type="qcurve" smooth="yes"/>
      <point x="1002" y="1235"/>
      <point x="1273" y="1117"/>
      <point x="1473" y="914"/>
      <point x="1591" y="621"/>
    </contour>
    <contour>
      <point x="1122" y="354" type="qcurve" smooth="yes"/>
      <point x="1122" y="440" type="line"/>
      <point x="1114" y="441"/>
      <point x="1031" y="466"/>
      <point x="913" y="487"/>
      <point x="852" y="487" type="qcurve" smooth="yes"/>
      <point x="792" y="487"/>
      <point x="692" y="467"/>
      <point x="606" y="424"/>
      <point x="557" y="344"/>
      <point x="557" y="289" type="qcurve" smooth="yes"/>
      <point x="557" y="197"/>
      <point x="690" y="86"/>
      <point x="791" y="86" type="qcurve" smooth="yes"/>
      <point x="891" y="86"/>
      <point x="983" y="131" type="qcurve" smooth="yes"/>
      <point x="1066" y="170"/>
      <point x="1122" y="280"/>
    </contour>
  </outline>
</glyph>
<glyph name="F" format="2">
  <advance width="1216"/>
  <unicode hex="0046"/>
  <outline>
    <contour>
      <point x="190" y="0" type="line"/>
      <point x="190" y="1454" type="line"/>
      <point x="1137" y="1454" type="line"/>
      <point x="1137" y="1360" type="line"/>
      <point x="295" y="1360" type="line"/>
      <point x="295" y="782" type="line"/>
      <point x="1010" y="782" type="line"/>
      <point x="1010" y="692" type="line"/>
      <point x="295" y="692" type="line"/>
      <point x="295" y="0" type="line"/>
    </contour>
  </outline>
</glyph>
<glyph name="J" format="2">
  <advance width="978"/>
  <unicode hex="004A"/>
  <anchor x="0" y="0" name="Anchor-11"/>
  <anchor x="0" y="0" name="Anchor-10"/>
  <anchor x="756" y="1448" name="Anchor-9"/>
  <anchor x="0" y="0" name="Anchor-8"/>
  <anchor x="0" y="0" name="Anchor-7"/>
  <outline>
    <contour>
      <point x="66" y="152" type="line"/>
      <point x="180" y="74"/>
      <point x="348" y="74" type="qcurve" smooth="yes"/>
      <point x="414" y="74"/>
      <point x="516" y="102"/>
      <point x="591" y="151"/>
      <point x="643" y="234"/>
      <point x="676" y="329"/>
      <point x="695" y="465"/>
      <point x="702" y="603"/>
      <point x="702" y="696" type="qcurve" smooth="yes"/>
      <point x="702" y="1454" type="line"/>
      <point x="807" y="1454" type="line"/>
      <point x="807" y="715" type="line" smooth="yes"/>
      <point x="807" y="613"/>
      <point x="799" y="458"/>
      <point x="775" y="297"/>
      <point x="734" y="183"/>
      <point x="666" y="78"/>
      <point x="571" y="14"/>
      <point x="437" y="-23"/>
      <point x="352" y="-23" type="qcurve" smooth="yes"/>
      <point x="166" y="-23"/>
      <point x="33" y="68" type="qcurve"/>
    </contour>
  </outline>
</glyph>
<glyph name="K" format="2">
  <advance width="1300"/>
  <unicode hex="004B"/>
  <anchor x="0" y="0" name="Anchor-11"/>
  <anchor x="0" y="0" name="Anchor-10"/>
  <anchor x="0" y="0" name="Anchor-9"/>
  <anchor x="0" y="0" name="Anchor-8"/>
  <anchor x="666" y="0" name="Anchor-7"/>
  <outline>
    <contour>
      <point x="190" y="0" type="line"/>
      <point x="190" y="1454" type="line"/>
      <point x="295" y="1454" type="line"/>
      <point x="295" y="571" type="line"/>
      <point x="1143" y="1454" type="line"/>
      <point x="1264" y="1454" type="line"/>
      <point x="659" y="817" type="line"/>
      <point x="1294" y="0" type="line"/>
      <point x="1174" y="0" type="line"/>
      <point x="590" y="752" type="line"/>
      <point x="295" y="449" type="line"/>
      <point x="295" y="0" type="line"/>
    </contour>
  </outline>
</glyph>
<glyph name="M" format="2">
  <advance width="1802"/>
  <unicode hex="004D"/>
  <anchor x="0" y="0" name="Anchor-11"/>
  <anchor x="0" y="0" name="Anchor-10"/>
  <anchor x="901" y="1454" name="Anchor-9"/>
  <anchor x="0" y="0" name="Anchor-8"/>
  <anchor x="901" y="0" name="Anchor-7"/>
  <outline>
    <contour>
      <point x="1507" y="0" type="line"/>
      <point x="1507" y="1251" type="line"/>
      <point x="936" y="272" type="line"/>
      <point x="866" y="272" type="line"/>
      <point x="295" y="1251" type="line"/>
      <point x="295" y="0" type="line"/>
      <point x="190" y="0" type="line"/>
      <point x="190" y="1454" type="line"/>
      <point x="295" y="1454" type="line"/>
      <point x="901" y="414" type="line"/>
      <point x="1507" y="1454" type="line"/>
      <point x="1612" y="1454" type="line"/>
      <point x="1612" y="0" type="line"/>
    </contour>
  </outline>
</glyph>
<glyph name="N" format="2">
  <advance width="1583"/>
  <unicode hex="004E"/>
  <anchor x="0" y="0" name="Anchor-11"/>
  <anchor x="0" y="0" name="Anchor-10"/>
  <anchor x="799" y="1448" name="Anchor-9"/>
  <anchor x="0" y="0" name="Anchor-8"/>
  <anchor x="801" y="0" name="Anchor-7"/>
  <outline>
    <contour>
      <point x="295" y="1260" type="line"/>
      <point x="295" y="0" type="line"/>
      <point x="190" y="0" type="line"/>
      <point x="190" y="1454" type="line"/>
      <point x="276" y="1454" type="line"/>
      <point x="1290" y="174" type="line"/>
      <point x="1290" y="1454" type="line"/>
      <point x="1395" y="1454" type="line"/>
      <point x="1395" y="0" type="line"/>
      <point x="1292" y="0" type="line"/>
    </contour>
  </outline>
</glyph>
<glyph name="P" format="2">
  <advance width="1271"/>
  <unicode hex="0050"/>
  <outline>
    <contour>
      <point x="190" y="0" type="line"/>
      <point x="190" y="1454" type="line"/>
      <point x="788" y="1454" type="line" smooth="yes"/>
      <point x="877" y="1454"/>
      <point x="1038" y="1375"/>
      <point x="1148" y="1248"/>
      <point x="1212" y="1087"/>
      <point x="1212" y="1004" type="qcurve" smooth="yes"/>
      <point x="1212" y="887"/>
      <point x="1111" y="680"/>
      <point x="920" y="549"/>
      <point x="801" y="549" type="qcurve" smooth="yes"/>
      <point x="295" y="549" type="line"/>
      <point x="295" y="0" type="line"/>
    </contour>
    <contour>
      <point x="295" y="645" type="line"/>
      <point x="797" y="645" type="line" smooth="yes"/>
      <point x="934" y="645"/>
      <point x="1106" y="859"/>
      <point x="1106" y="1004" type="qcurve" smooth="yes"/>
      <point x="1106" y="1147"/>
      <point x="915" y="1360"/>
      <point x="784" y="1360" type="qcurve" smooth="yes"/>
      <point x="295" y="1360" type="line"/>
    </contour>
  </outline>
</glyph>
<glyph name="V" format="2">
  <advance width="1390"/>
  <unicode hex="0056"/>
  <outline>
    <contour>
      <point x="141" y="1454" type="line"/>
      <point x="694" y="131" type="line"/>
      <point x="1247" y="1454" type="line"/>
      <point x="1358" y="1454" type="line"/>
      <point x="745" y="0" type="line"/>
      <point x="645" y="0" type="line"/>
      <point x="31" y="1454" type="line"/>
    </contour>
  </outline>
</glyph>
<glyph name="bracketleft" format="2">
  <advance width="505"/>
  <unicode hex="005B"/>
  <outline>
    <contour>
      <point x="186" y="-82" type="line"/>
      <point x="186" y="1516" type="line"/>
      <point x="393" y="1516" type="line"/>
      <point x="393" y="1427" type="line"/>
      <point x="285" y="1427" type="line"/>
      <point x="285" y="6" type="line"/>
      <point x="393" y="6" type="line"/>
      <point x="393" y="-82" type="line"/>
    </contour>
  </outline>
</glyph>
<glyph name="backslash" format="2">
  <advance width="1122"/>
  <unicode hex="005C"/>
  <outline>
    <contour>
      <point x="176" y="1454" type="line"/>
      <point x="1067" y="0" type="line"/>
      <point x="948" y="0" type="line"/>
      <point x="55" y="1454" type="line"/>
    </contour>
  </outline>
</glyph>
<glyph name="bracketright" format="2">
  <advance width="505"/>
  <unicode hex="005D"/>
  <outline>
    <contour>
      <point x="111" y="-82" type="line"/>
      <point x="111" y="6" type="line"/>
      <point x="221" y="6" type="line"/>
      <point x="221" y="1427" type="line"/>
      <point x="111" y="1427" type="line"/>
      <point x="111" y="1516" type="line"/>
      <point x="317" y="1516" type="line"/>
      <point x="317" y="-82" type="line"/>
    </contour>
  </outline>
</glyph>
<glyph name="asciicircum" format="2">
  <advance width="1077"/>
  <unicode hex="005E"/>
  <outline>
    <contour>
      <point x="90" y="621" type="line"/>
      <point x="496" y="1454" type="line"/>
      <point x="584" y="1454" type="line"/>
      <point x="987" y="621" type="line"/>
      <point x="893" y="621" type="line"/>
      <point x="541" y="1350" type="line"/>
      <point x="180" y="621" type="line"/>
    </contour>
  </outline>
</glyph>
<glyph name="underscore" format="2">
  <advance width="1062"/>
  <unicode hex="005F"/>
  <outline>
    <contour>
      <point x="135" y="-94" type="line"/>
      <point x="135" y="0" type="line"/>
      <point x="926" y="0" type="line"/>
      <point x="926" y="-94" type="line"/>
    </contour>
  </outline>
</glyph>
<glyph name="grave" format="2">
  <advance width="436"/>
  <unicode hex="0060"/>
  <outline>
    <contour>
      <point x="100" y="1495" type="line"/>
      <point x="217" y="1495" type="line"/>
      <point x="344" y="1321" type="line"/>
      <point x="274" y="1288" type="line"/>
    </contour>
  </outline>
</glyph>
<glyph name="b" format="2">
  <advance width="1253"/>
  <unicode hex="0062"/>
  <outline>
    <contour>
      <point x="254" y="213" type="qcurve"/>
      <point x="254" y="0" type="line"/>
      <point x="160" y="0" type="line"/>
      <point x="160" y="1495" type="line"/>
      <point x="262" y="1495" type="line"/>
      <point x="262" y="834" type="line"/>
      <point x="431" y="1083"/>
      <point x="680" y="1083" type="qcurve" smooth="yes"/>
      <point x="790" y="1083"/>
      <point x="977" y="987"/>
      <point x="1099" y="829"/>
      <point x="1167" y="632"/>
      <point x="1167" y="528" type="qcurve" smooth="yes"/>
      <point x="1167" y="383"/>
      <point x="1034" y="131"/>
      <point x="798" y="-20"/>
      <point x="657" y="-20" type="qcurve" smooth="yes"/>
      <point x="535" y="-20"/>
      <point x="317" y="109"/>
    </contour>
    <contour>
      <point x="1063" y="528" type="qcurve" smooth="yes"/>
      <point x="1063" y="648"/>
      <point x="962" y="859"/>
      <point x="772" y="991"/>
      <point x="655" y="991" type="qcurve" smooth="yes"/>
      <point x="528" y="991"/>
      <point x="322" y="831"/>
      <point x="262" y="709" type="qcurve"/>
      <point x="262" y="356" type="line"/>
      <point x="271" y="281"/>
      <point x="395" y="146"/>
      <point x="561" y="72"/>
      <point x="637" y="72" type="qcurve" smooth="yes"/>
      <point x="758" y="72"/>
      <point x="956" y="205"/>
      <point x="1063" y="413"/>
    </contour>
  </outline>
</glyph>
<glyph name="d" format="2">
  <advance width="1259"/>
  <unicode hex="0064"/>
  <anchor x="1184" y="1065" name="Anchor-11"/>
  <anchor x="631" y="532" name="Anchor-10"/>
  <anchor x="631" y="1065" name="Anchor-9"/>
  <anchor x="0" y="0" name="Anchor-8"/>
  <anchor x="631" y="0" name="Anchor-7"/>
  <outline>
    <contour>
      <point x="86" y="530" type="qcurve" smooth="yes"/>
      <point x="86" y="678"/>
      <point x="211" y="931"/>
      <point x="437" y="1083"/>
      <point x="575" y="1083" type="qcurve" smooth="yes"/>
      <point x="706" y="1083"/>
      <point x="925" y="943"/>
      <point x="991" y="834" type="qcurve"/>
      <point x="991" y="1495" type="line"/>
      <point x="1094" y="1495" type="line"/>
      <point x="1094" y="135" type="line" smooth="yes"/>
      <point x="1094" y="87"/>
      <point x="1137" y="84" type="qcurve"/>
      <point x="1137" y="0" type="line"/>
      <point x="1097" y="-3"/>
      <point x="1087" y="-2" type="qcurve" smooth="yes"/>
      <point x="1051" y="4"/>
      <point x="1001" y="60"/>
      <point x="1001" y="94" type="qcurve" smooth="yes"/>
      <point x="1001" y="213" type="line"/>
      <point x="936" y="107"/>
      <point x="716" y="-20"/>
      <point x="598" y="-20" type="qcurve" smooth="yes"/>
      <point x="454" y="-20"/>
      <point x="216" y="137"/>
      <point x="86" y="389"/>
    </contour>
    <contour>
      <point x="991" y="358" type="qcurve"/>
      <point x="991" y="709" type="line"/>
      <point x="949" y="825"/>
      <point x="716" y="991"/>
      <point x="598" y="991" type="qcurve" smooth="yes"/>
      <point x="508" y="991"/>
      <point x="352" y="912"/>
      <point x="249" y="782"/>
      <point x="190" y="616"/>
      <point x="190" y="528" type="qcurve" smooth="yes"/>
      <point x="190" y="407"/>
      <point x="303" y="198"/>
      <point x="500" y="72"/>
      <point x="616" y="72" type="qcurve" smooth="yes"/>
      <point x="691" y="72"/>
      <point x="858" y="148"/>
      <point x="982" y="283"/>
    </contour>
  </outline>
</glyph>
<glyph name="f" format="2">
  <advance width="651"/>
  <unicode hex="0066"/>
  <outline>
    <contour>
      <point x="207" y="0" type="line"/>
      <point x="207" y="981" type="line"/>
      <point x="57" y="981" type="line"/>
      <point x="57" y="1065" type="line"/>
      <point x="207" y="1065" type="line"/>
      <point x="207" y="1100" type="line" smooth="yes"/>
      <point x="207" y="1294"/>
      <point x="368" y="1516"/>
      <point x="508" y="1516" type="qcurve" smooth="yes"/>
      <point x="569" y="1516"/>
      <point x="684" y="1479"/>
      <point x="721" y="1448" type="qcurve"/>
      <point x="684" y="1374" type="line"/>
      <point x="623" y="1425"/>
      <point x="526" y="1425" type="qcurve" smooth="yes"/>
      <point x="421" y="1425"/>
      <point x="309" y="1258"/>
      <point x="309" y="1102" type="qcurve" smooth="yes"/>
      <point x="309" y="1065" type="line"/>
      <point x="612" y="1065" type="line"/>
      <point x="612" y="981" type="line"/>
      <point x="309" y="981" type="line"/>
      <point x="309" y="0" type="line"/>
    </contour>
  </outline>
</glyph>
<glyph name="j" format="2">
  <advance width="438"/>
  <unicode hex="006A"/>
  <outline>
    <contour>
      <point x="176" y="1307" type="line"/>
      <point x="176" y="1495" type="line"/>
      <point x="279" y="1495" type="line"/>
      <point x="279" y="1307" type="line"/>
    </contour>
    <contour>
      <point x="-244" y="-287" type="qcurve"/>
      <point x="-188" y="-219" type="line"/>
      <point x="-131" y="-268"/>
      <point x="-31" y="-268" type="qcurve" smooth="yes"/>
      <point x="48" y="-268"/>
      <point x="176" y="-147"/>
      <point x="176" y="-61" type="qcurve" smooth="yes"/>
      <point x="176" y="1065" type="line"/>
      <point x="279" y="1065" type="line"/>
      <point x="279" y="-57" type="line" smooth="yes"/>
      <point x="279" y="-186"/>
      <point x="95" y="-362"/>
      <point x="-20" y="-362" type="qcurve" smooth="yes"/>
      <point x="-164" y="-362"/>
    </contour>
  </outline>
</glyph>
<glyph name="k" format="2">
  <advance width="1069"/>
  <unicode hex="006B"/>
  <anchor x="0" y="0" name="Anchor-11"/>
  <anchor x="0" y="0" name="Anchor-10"/>
  <anchor x="0" y="0" name="Anchor-9"/>
  <anchor x="0" y="0" name="Anchor-8"/>
  <anchor x="557" y="0" name="Anchor-7"/>
  <outline>
    <contour>
      <point x="930" y="0" type="line"/>
      <point x="514" y="569" type="line"/>
      <point x="262" y="338" type="line"/>
      <point x="262" y="0" type="line"/>
      <point x="160" y="0" type="line"/>
      <point x="160" y="1495" type="line"/>
      <point x="262" y="1495" type="line"/>
      <point x="262" y="453" type="line"/>
      <point x="911" y="1063" type="line"/>
      <point x="1028" y="1063" type="line"/>
      <point x="584" y="631" type="line"/>
      <point x="1042" y="0" type="line"/>
    </contour>
  </outline>
</glyph>
<glyph name="n" format="2">
  <advance width="1179"/>
  <unicode hex="006E"/>
  <anchor x="0" y="0" name="Anchor-11"/>
  <anchor x="0" y="0" name="Anchor-10"/>
  <anchor x="594" y="1065" name="Anchor-9"/>
  <anchor x="0" y="0" name="Anchor-8"/>
  <anchor x="586" y="0" name="Anchor-7"/>
  <outline>
    <contour>
      <point x="1030" y="0" type="line"/>
      <point x="928" y="0" type="line"/>
      <point x="928" y="594" type="line" smooth="yes"/>
      <point x="928" y="799"/>
      <point x="810" y="989"/>
      <point x="684" y="989" type="qcurve" smooth="yes"/>
      <point x="548" y="989"/>
      <point x="303" y="799"/>
      <point x="262" y="659" type="qcurve"/>
      <point x="262" y="0" type="line"/>
      <point x="160" y="0" type="line"/>
      <point x="160" y="1065" type="line"/>
      <point x="256" y="1065" type="line"/>
      <point x="256" y="811" type="line"/>
      <point x="321" y="933"/>
      <point x="572" y="1083"/>
      <point x="713" y="1083" type="qcurve" smooth="yes"/>
      <point x="881" y="1083"/>
      <point x="1030" y="846"/>
      <point x="1030" y="612" type="qcurve" smooth="yes"/>
    </contour>
  </outline>
</glyph>
<glyph name="p" format="2">
  <advance width="1253"/>
  <unicode hex="0070"/>
  <outline>
    <contour>
      <point x="262" y="229" type="qcurve"/>
      <point x="262" y="-436" type="line"/>
      <point x="160" y="-436" type="line"/>
      <point x="160" y="1065" type="line"/>
      <point x="254" y="1065" type="line"/>
      <point x="254" y="852" type="line"/>
      <point x="322" y="956"/>
      <point x="538" y="1083"/>
      <point x="657" y="1083" type="qcurve" smooth="yes"/>
      <point x="801" y="1083"/>
      <point x="1038" y="923"/>
      <point x="1167" y="671"/>
      <point x="1167" y="530" type="qcurve" smooth="yes"/>
      <point x="1167" y="419"/>
      <point x="1096" y="218"/>
      <point x="970" y="69"/>
      <point x="786" y="-20"/>
      <point x="680" y="-20" type="qcurve" smooth="yes"/>
      <point x="550" y="-20"/>
      <point x="332" y="118"/>
    </contour>
    <contour>
      <point x="1063" y="530" type="qcurve" smooth="yes"/>
      <point x="1063" y="715"/>
      <point x="813" y="991"/>
      <point x="637" y="991" type="qcurve" smooth="yes"/>
      <point x="563" y="991"/>
      <point x="396" y="913"/>
      <point x="271" y="778"/>
      <point x="262" y="705" type="qcurve"/>
      <point x="262" y="354" type="line"/>
      <point x="316" y="232"/>
      <point x="531" y="72"/>
      <point x="655" y="72" type="qcurve" smooth="yes"/>
      <point x="745" y="72"/>
      <point x="901" y="151"/>
      <point x="1004" y="280"/>
      <point x="1063" y="444"/>
    </contour>
  </outline>
</glyph>
<glyph name="s" format="2">
  <advance width="980"/>
  <unicode hex="0073"/>
  <anchor x="0" y="0" name="Anchor-11"/>
  <anchor x="0" y="0" name="Anchor-10"/>
  <anchor x="502" y="1065" name="Anchor-9"/>
  <anchor x="0" y="0" name="Anchor-8"/>
  <anchor x="494" y="0" name="Anchor-7"/>
  <outline>
    <contour>
      <point x="496" y="-20" type="qcurve" smooth="yes"/>
      <point x="232" y="-20"/>
      <point x="70" y="154" type="qcurve"/>
      <point x="117" y="225" type="line"/>
      <point x="282" y="66"/>
      <point x="492" y="66" type="qcurve" smooth="yes"/>
      <point x="631" y="66"/>
      <point x="799" y="182"/>
      <point x="799" y="283" type="qcurve" smooth="yes"/>
      <point x="799" y="373"/>
      <point x="718" y="420" type="qcurve" smooth="yes"/>
      <point x="662" y="452"/>
      <point x="495" y="494" type="qcurve" smooth="yes"/>
      <point x="487" y="496"/>
      <point x="470" y="500" type="qcurve"/>
      <point x="469" y="500" type="line"/>
      <point x="468" y="501" type="line"/>
      <point x="467" y="501" type="line"/>
      <point x="466" y="501" type="line"/>
      <point x="465" y="501" type="line"/>
      <point x="464" y="502" type="line"/>
      <point x="463" y="502" type="line"/>
      <point x="390" y="521"/>
      <point x="297" y="551"/>
      <point x="208" y="596"/>
      <point x="160" y="649"/>
      <point x="131" y="724"/>
      <point x="131" y="774" type="qcurve" smooth="yes"/>
      <point x="131" y="923"/>
      <point x="351" y="1083"/>
      <point x="522" y="1083" type="qcurve" smooth="yes"/>
      <point x="644" y="1083"/>
      <point x="832" y="1003"/>
      <point x="883" y="934" type="qcurve"/>
      <point x="827" y="868" type="line"/>
      <point x="779" y="931"/>
      <point x="613" y="997"/>
      <point x="514" y="997" type="qcurve" smooth="yes"/>
      <point x="390" y="997"/>
      <point x="229" y="894"/>
      <point x="229" y="786" type="qcurve" smooth="yes"/>
      <point x="229" y="760"/>
      <point x="241" y="718"/>
      <point x="258" y="686"/>
      <point x="298" y="657"/>
      <point x="331" y="638"/>
      <point x="399" y="615"/>
      <point x="449" y="601"/>
      <point x="496" y="588" type="qcurve" smooth="yes"/>
      <point x="561" y="572"/>
      <point x="634" y="551"/>
      <point x="733" y="519"/>
      <point x="787" y="490"/>
      <point x="848" y="447"/>
      <point x="878" y="398"/>
      <point x="899" y="333"/>
      <point x="899" y="293" type="qcurve" smooth="yes"/>
      <point x="899" y="148"/>
      <point x="679" y="-20"/>
    </contour>
  </outline>
</glyph>
<glyph name="v" format="2">
  <advance width="1081"/>
  <unicode hex="0076"/>
  <outline>
    <contour>
      <point x="487" y="0" type="line"/>
      <point x="43" y="1065" type="line"/>
      <point x="152" y="1065" type="line"/>
      <point x="543" y="109" type="line"/>
      <point x="936" y="1065" type="line"/>
      <point x="1038" y="1065" type="line"/>
      <point x="594" y="0" type="line"/>
    </contour>
  </outline>
</glyph>
<glyph name="w" format="2">
  <advance width="1650"/>
  <unicode hex="0077"/>
  <anchor x="0" y="0" name="Anchor-11"/>
  <anchor x="0" y="0" name="Anchor-10"/>
  <anchor x="825" y="1065" name="Anchor-9"/>
  <anchor x="0" y="0" name="Anchor-8"/>
  <anchor x="0" y="0" name="Anchor-7"/>
  <outline>
    <contour>
      <point x="1509" y="1065" type="line"/>
      <point x="1612" y="1065" type="line"/>
      <point x="1151" y="0" type="line"/>
      <point x="1061" y="0" type="line"/>
      <point x="825" y="555" type="line"/>
      <point x="590" y="0" type="line"/>
      <point x="500" y="0" type="line"/>
      <point x="39" y="1065" type="line"/>
      <point x="139" y="1065" type="line"/>
      <point x="547" y="113" type="line"/>
      <point x="766" y="633" type="line"/>
      <point x="588" y="1063" type="line"/>
      <point x="680" y="1063" type="line"/>
      <point x="825" y="713" type="line"/>
      <point x="969" y="1063" type="line"/>
      <point x="1063" y="1063" type="line"/>
      <point x="885" y="633" type="line"/>
      <point x="1104" y="113" type="line"/>
    </contour>
  </outline>
</glyph>
<glyph name="y" format="2">
  <advance width="1105"/>
  <unicode hex="0079"/>
  <anchor x="0" y="0" name="Anchor-11"/>
  <anchor x="0" y="0" name="Anchor-10"/>
  <anchor x="565" y="1065" name="Anchor-9"/>
  <anchor x="0" y="0" name="Anchor-8"/>
  <anchor x="750" y="0" name="Anchor-7"/>
  <outline>
    <contour>
      <point x="231" y="-360" type="line"/>
      <point x="309" y="-364"/>
      <point x="328" y="-352" type="qcurve"/>
      <point x="355" y="-345"/>
      <point x="418" y="-223"/>
      <point x="510" y="0" type="qcurve"/>
      <point x="35" y="1065" type="line"/>
      <point x="143" y="1065" type="line"/>
      <point x="565" y="109" type="line"/>
      <point x="956" y="1065" type="line"/>
      <point x="1061" y="1065" type="line"/>
      <point x="477" y="-336" type="line" smooth="yes"/>
      <point x="433" y="-447"/>
      <point x="317" y="-453" type="qcurve" smooth="yes"/>
      <point x="284" y="-458"/>
      <point x="231" y="-455" type="qcurve"/>
    </contour>
  </outline>
</glyph>
<glyph name="braceleft" format="2">
  <advance width="507"/>
  <unicode hex="007B"/>
  <outline>
    <contour>
      <point x="289" y="1427" type="line"/>
      <point x="289" y="860" type="line" smooth="yes"/>
      <point x="289" y="783"/>
      <point x="238" y="737" type="qcurve"/>
      <point x="289" y="693"/>
      <point x="289" y="614" type="qcurve" smooth="yes"/>
      <point x="289" y="25" type="line"/>
      <point x="401" y="25" type="line"/>
      <point x="401" y="-63" type="line"/>
      <point x="240" y="-63" type="line" smooth="yes"/>
      <point x="220" y="-63"/>
      <point x="193" y="-33"/>
      <point x="193" y="-2" type="qcurve" smooth="yes"/>
      <point x="193" y="592" type="line" smooth="yes"/>
      <point x="193" y="632"/>
      <point x="156" y="694"/>
      <point x="121" y="698" type="qcurve"/>
      <point x="121" y="780" type="line"/>
      <point x="158" y="780"/>
      <point x="193" y="850"/>
      <point x="193" y="883" type="qcurve" smooth="yes"/>
      <point x="193" y="1454" type="line" smooth="yes"/>
      <point x="193" y="1488"/>
      <point x="225" y="1516"/>
      <point x="240" y="1516" type="qcurve" smooth="yes"/>
      <point x="401" y="1516" type="line"/>
      <point x="401" y="1427" type="line"/>
    </contour>
  </outline>
</glyph>
<glyph name="bar" format="2">
  <advance width="456"/>
  <unicode hex="007C"/>
  <outline>
    <contour>
      <point x="182" y="-266" type="line"/>
      <point x="182" y="1587" type="line"/>
      <point x="274" y="1587" type="line"/>
      <point x="274" y="-266" type="line"/>
    </contour>
  </outline>
</glyph>
<glyph name="braceright" format="2">
  <advance width="507"/>
  <unicode hex="007D"/>
  <outline>
    <contour>
      <point x="106" y="1427" type="line"/>
      <point x="106" y="1516" type="line"/>
      <point x="268" y="1516" type="line" smooth="yes"/>
      <point x="276" y="1516"/>
      <point x="294" y="1508"/>
      <point x="315" y="1478"/>
      <point x="315" y="1454" type="qcurve" smooth="yes"/>
      <point x="315" y="883" type="line" smooth="yes"/>
      <point x="315" y="850"/>
      <point x="350" y="780"/>
      <point x="387" y="780" type="qcurve"/>
      <point x="387" y="698" type="line"/>
      <point x="351" y="694"/>
      <point x="315" y="633"/>
      <point x="315" y="592" type="qcurve" smooth="yes"/>
      <point x="315" y="-2" type="line" smooth="yes"/>
      <point x="315" y="-33"/>
      <point x="286" y="-63"/>
      <point x="268" y="-63" type="qcurve" smooth="yes"/>
      <point x="106" y="-63" type="line"/>
      <point x="106" y="25" type="line"/>
      <point x="219" y="25" type="line"/>
      <point x="219" y="614" type="line" smooth="yes"/>
      <point x="219" y="693"/>
      <point x="270" y="737" type="qcurve"/>
      <point x="219" y="783"/>
      <point x="219" y="860" type="qcurve" smooth="yes"/>
      <point x="219" y="1427" type="line"/>
    </contour>
  </outline>
</glyph>
<glyph name="asciitilde" format="2">
  <advance width="1009"/>
  <unicode hex="007E"/>
  <outline>
    <contour>
      <point x="340" y="696" type="qcurve" smooth="yes"/>
      <point x="380" y="696"/>
      <point x="470" y="658"/>
      <point x="537" y="611"/>
      <point x="622" y="573"/>
      <point x="659" y="573" type="qcurve" smooth="yes"/>
      <point x="688" y="573"/>
      <point x="738" y="594"/>
      <point x="770" y="623"/>
      <point x="793" y="656"/>
      <point x="803" y="678"/>
      <point x="803" y="682" type="qcurve"/>
      <point x="872" y="682" type="line"/>
      <point x="872" y="678"/>
      <point x="860" y="643"/>
      <point x="827" y="588"/>
      <point x="782" y="538"/>
      <point x="704" y="502"/>
      <point x="614" y="502"/>
      <point x="519" y="540"/>
      <point x="451" y="585"/>
      <point x="371" y="623"/>
      <point x="340" y="623" type="qcurve" smooth="yes"/>
      <point x="299" y="623"/>
      <point x="234" y="562"/>
      <point x="209" y="509"/>
      <point x="209" y="502" type="qcurve"/>
      <point x="139" y="502" type="line"/>
      <point x="139" y="509"/>
      <point x="152" y="549"/>
      <point x="184" y="607"/>
      <point x="227" y="659"/>
      <point x="299" y="696"/>
    </contour>
  </outline>
</glyph>
<glyph name="exclamdown" format="2">
  <advance width="495"/>
  <unicode hex="00A1"/>
  <outline>
    <contour>
      <point x="299" y="1466" type="line"/>
      <point x="299" y="1257" type="line"/>
      <point x="197" y="1257" type="line"/>
      <point x="197" y="1466" type="line"/>
    </contour>
    <contour>
      <point x="299" y="1020" type="line"/>
      <point x="299" y="-2" type="line"/>
      <point x="197" y="-2" type="line"/>
      <point x="197" y="1020" type="line"/>
    </contour>
  </outline>
</glyph>
<glyph name="cent" format="2">
  <advance width="1134"/>
  <unicode hex="00A2"/>
  <outline>
    <contour>
      <point x="565" y="-246" type="line"/>
      <point x="565" y="-18" type="line"/>
      <point x="430" y="-7"/>
      <point x="209" y="157"/>
      <point x="90" y="398"/>
      <point x="90" y="528" type="qcurve" smooth="yes"/>
      <point x="90" y="666"/>
      <point x="206" y="910"/>
      <point x="426" y="1070"/>
      <point x="565" y="1081" type="qcurve"/>
      <point x="565" y="1321" type="line"/>
      <point x="629" y="1321" type="line"/>
      <point x="629" y="1081" type="line"/>
      <point x="919" y="1073"/>
      <point x="1036" y="836" type="qcurve"/>
      <point x="938" y="803" type="line"/>
      <point x="841" y="979"/>
      <point x="629" y="989" type="qcurve"/>
      <point x="629" y="74" type="line"/>
      <point x="689" y="75"/>
      <point x="823" y="122"/>
      <point x="934" y="213"/>
      <point x="950" y="268" type="qcurve"/>
      <point x="1051" y="240" type="line"/>
      <point x="1008" y="120"/>
      <point x="754" y="-20"/>
      <point x="629" y="-20" type="qcurve"/>
      <point x="629" y="-246" type="line"/>
    </contour>
    <contour>
      <point x="565" y="78" type="qcurve"/>
      <point x="565" y="985" type="line"/>
      <point x="452" y="977"/>
      <point x="279" y="837"/>
      <point x="195" y="637"/>
      <point x="195" y="528" type="qcurve" smooth="yes"/>
      <point x="195" y="360"/>
      <point x="407" y="98"/>
    </contour>
  </outline>
</glyph>
<glyph name="sterling" format="2">
  <advance width="997"/>
  <unicode hex="00A3"/>
  <outline>
    <contour>
      <point x="879" y="100" type="qcurve"/>
      <point x="905" y="18" type="line"/>
      <point x="798" y="-31"/>
      <point x="684" y="-31" type="qcurve" smooth="yes"/>
      <point x="624" y="-31"/>
      <point x="417" y="14"/>
      <point x="354" y="14" type="qcurve" smooth="yes"/>
      <point x="258" y="14"/>
      <point x="143" y="-14" type="qcurve"/>
      <point x="113" y="61" type="line"/>
      <point x="262" y="213"/>
      <point x="375" y="408"/>
      <point x="375" y="510" type="qcurve" smooth="yes"/>
      <point x="375" y="590"/>
      <point x="344" y="674" type="qcurve"/>
      <point x="102" y="674" type="line"/>
      <point x="102" y="758" type="line"/>
      <point x="307" y="758" type="line"/>
      <point x="293" y="786"/>
      <point x="225" y="902"/>
      <point x="191" y="968"/>
      <point x="160" y="1071"/>
      <point x="160" y="1118" type="qcurve" smooth="yes"/>
      <point x="160" y="1261"/>
      <point x="370" y="1464"/>
      <point x="518" y="1464" type="qcurve" smooth="yes"/>
      <point x="625" y="1464"/>
      <point x="815" y="1348"/>
      <point x="874" y="1249" type="qcurve"/>
      <point x="809" y="1186" type="line"/>
      <point x="760" y="1274"/>
      <point x="600" y="1376"/>
      <point x="514" y="1376" type="qcurve" smooth="yes"/>
      <point x="408" y="1376"/>
      <point x="258" y="1223"/>
      <point x="258" y="1114" type="qcurve" smooth="yes"/>
      <point x="258" y="1057"/>
      <point x="301" y="948"/>
      <point x="393" y="794"/>
      <point x="410" y="758" type="qcurve"/>
      <point x="768" y="758" type="line"/>
      <point x="768" y="674" type="line"/>
      <point x="442" y="674" type="line"/>
      <point x="469" y="595"/>
      <point x="469" y="516" type="qcurve" smooth="yes"/>
      <point x="469" y="410"/>
      <point x="370" y="217"/>
      <point x="246" y="84" type="qcurve"/>
      <point x="321" y="100"/>
      <point x="393" y="100" type="qcurve" smooth="yes"/>
      <point x="456" y="100"/>
      <point x="641" y="61"/>
      <point x="690" y="61" type="qcurve" smooth="yes"/>
      <point x="766" y="61"/>
    </contour>
  </outline>
</glyph>
<glyph name="currency" format="2">
  <advance width="1095"/>
  <unicode hex="00A4"/>
  <outline>
    <contour>
      <point x="311" y="973" type="line"/>
      <point x="409" y="1061"/>
      <point x="547" y="1061" type="qcurve" smooth="yes"/>
      <point x="681" y="1061"/>
      <point x="784" y="971" type="qcurve"/>
      <point x="928" y="1116" type="line"/>
      <point x="983" y="1063" type="line"/>
      <point x="838" y="918" type="line"/>
      <point x="913" y="817"/>
      <point x="913" y="559"/>
      <point x="834" y="457" type="qcurve"/>
      <point x="983" y="311" type="line"/>
      <point x="934" y="262" type="line"/>
      <point x="784" y="406" type="line"/>
      <point x="681" y="319"/>
      <point x="547" y="319" type="qcurve" smooth="yes"/>
      <point x="411" y="319"/>
      <point x="311" y="403" type="qcurve"/>
      <point x="166" y="262" type="line"/>
      <point x="117" y="311" type="line"/>
      <point x="262" y="455" type="line"/>
      <point x="182" y="559"/>
      <point x="182" y="688" type="qcurve" smooth="yes"/>
      <point x="182" y="822"/>
      <point x="258" y="920" type="qcurve"/>
      <point x="117" y="1063" type="line"/>
      <point x="170" y="1116" type="line"/>
    </contour>
    <contour>
      <point x="661" y="395"/>
      <point x="823" y="568"/>
      <point x="823" y="690" type="qcurve" smooth="yes"/>
      <point x="823" y="813"/>
      <point x="661" y="983"/>
      <point x="433" y="983"/>
      <point x="270" y="810"/>
      <point x="270" y="686" type="qcurve" smooth="yes"/>
      <point x="270" y="565"/>
      <point x="433" y="395"/>
    </contour>
  </outline>
</glyph>
<glyph name="yen" format="2">
  <advance width="1366"/>
  <unicode hex="00A5"/>
  <outline>
    <contour>
      <point x="844" y="731" type="line"/>
      <point x="1024" y="731" type="line"/>
      <point x="1024" y="653" type="line"/>
      <point x="799" y="653" type="line"/>
      <point x="733" y="549" type="line"/>
      <point x="733" y="496" type="line"/>
      <point x="1024" y="496" type="line"/>
      <point x="1024" y="420" type="line"/>
      <point x="733" y="420" type="line"/>
      <point x="733" y="0" type="line"/>
      <point x="629" y="0" type="line"/>
      <point x="629" y="420" type="line"/>
      <point x="340" y="420" type="line"/>
      <point x="340" y="496" type="line"/>
      <point x="629" y="496" type="line"/>
      <point x="629" y="553" type="line"/>
      <point x="567" y="653" type="line"/>
      <point x="340" y="653" type="line"/>
      <point x="340" y="731" type="line"/>
      <point x="522" y="731" type="line"/>
      <point x="57" y="1454" type="line"/>
      <point x="174" y="1454" type="line"/>
      <point x="682" y="649" type="line"/>
      <point x="1192" y="1454" type="line"/>
      <point x="1307" y="1454" type="line"/>
    </contour>
  </outline>
</glyph>
<glyph name="brokenbar" format="2">
  <advance width="462"/>
  <unicode hex="00A6"/>
  <outline>
    <contour>
      <point x="279" y="1587" type="line"/>
      <point x="279" y="748" type="line"/>
      <point x="186" y="748" type="line"/>
      <point x="186" y="1587" type="line"/>
    </contour>
    <contour>
      <point x="279" y="573" type="line"/>
      <point x="279" y="-266" type="line"/>
      <point x="186" y="-266" type="line"/>
      <point x="186" y="573" type="line"/>
    </contour>
  </outline>
</glyph>
<glyph name="section" format="2">
  <advance width="1017"/>
  <unicode hex="00A7"/>
  <outline>
    <contour>
      <point x="930" y="172" type="qcurve" smooth="yes"/>
      <point x="930" y="87"/>
      <point x="856" y="-51"/>
      <point x="737" y="-135"/>
      <point x="598" y="-180"/>
      <point x="528" y="-180" type="qcurve" smooth="yes"/>
      <point x="307" y="-180"/>
      <point x="131" y="0" type="qcurve"/>
      <point x="199" y="63" type="line"/>
      <point x="278" y="-11"/>
      <point x="435" y="-82"/>
      <point x="526" y="-82" type="qcurve" smooth="yes"/>
      <point x="641" y="-82"/>
      <point x="825" y="58"/>
      <point x="825" y="170" type="qcurve" smooth="yes"/>
      <point x="825" y="220"/>
      <point x="790" y="294"/>
      <point x="738" y="336"/>
      <point x="658" y="363"/>
      <point x="587" y="373"/>
      <point x="541" y="375" type="qcurve" smooth="yes"/>
      <point x="365" y="383"/>
      <point x="147" y="546"/>
      <point x="147" y="698" type="qcurve" smooth="yes"/>
      <point x="147" y="751"/>
      <point x="181" y="850"/>
      <point x="207" y="881" type="qcurve"/>
      <point x="156" y="914"/>
      <point x="94" y="1043"/>
      <point x="94" y="1124" type="qcurve" smooth="yes"/>
      <point x="94" y="1223"/>
      <point x="212" y="1382"/>
      <point x="390" y="1464"/>
      <point x="487" y="1464" type="qcurve" smooth="yes"/>
      <point x="623" y="1464"/>
      <point x="792" y="1369"/>
      <point x="850" y="1284" type="qcurve"/>
      <point x="768" y="1247" type="line"/>
      <point x="734" y="1313"/>
      <point x="581" y="1370"/>
      <point x="492" y="1370" type="qcurve" smooth="yes"/>
      <point x="419" y="1370"/>
      <point x="287" y="1313"/>
      <point x="199" y="1198"/>
      <point x="199" y="1124" type="qcurve" smooth="yes"/>
      <point x="199" y="896"/>
      <point x="494" y="893" type="qcurve" smooth="yes"/>
      <point x="555" y="893"/>
      <point x="668" y="872"/>
      <point x="773" y="825"/>
      <point x="851" y="755"/>
      <point x="897" y="648"/>
      <point x="897" y="582" type="qcurve" smooth="yes"/>
      <point x="897" y="525"/>
      <point x="859" y="421"/>
      <point x="829" y="389" type="qcurve"/>
      <point x="930" y="328"/>
    </contour>
    <contour>
      <point x="731" y="420" type="qcurve"/>
      <point x="762" y="446"/>
      <point x="799" y="535"/>
      <point x="799" y="582" type="qcurve" smooth="yes"/>
      <point x="799" y="643"/>
      <point x="743" y="734"/>
      <point x="651" y="783"/>
      <point x="551" y="805"/>
      <point x="498" y="805" type="qcurve" smooth="yes"/>
      <point x="384" y="805"/>
      <point x="303" y="840" type="qcurve"/>
      <point x="278" y="815"/>
      <point x="248" y="731"/>
      <point x="248" y="688" type="qcurve" smooth="yes"/>
      <point x="248" y="621"/>
      <point x="300" y="528"/>
      <point x="379" y="484"/>
      <point x="489" y="457"/>
      <point x="589" y="450"/>
      <point x="699" y="433"/>
    </contour>
  </outline>
</glyph>
<glyph name="dieresis" format="2">
  <advance width="602"/>
  <unicode hex="00A8"/>
  <anchor x="301" y="1475" name="Anchor-13"/>
  <outline>
    <contour>
      <point x="117" y="1311" type="line"/>
      <point x="117" y="1491" type="line"/>
      <point x="207" y="1491" type="line"/>
      <point x="207" y="1311" type="line"/>
    </contour>
    <contour>
      <point x="395" y="1311" type="line"/>
      <point x="395" y="1491" type="line"/>
      <point x="485" y="1491" type="line"/>
      <point x="485" y="1311" type="line"/>
    </contour>
  </outline>
</glyph>
<glyph name="copyright" format="2">
  <advance width="1697"/>
  <unicode hex="00A9"/>
  <outline>
    <contour>
      <point x="100" y="727" type="qcurve" smooth="yes"/>
      <point x="100" y="883"/>
      <point x="214" y="1157"/>
      <point x="412" y="1352"/>
      <point x="690" y="1464"/>
      <point x="848" y="1464" type="qcurve" smooth="yes"/>
      <point x="1007" y="1464"/>
      <point x="1285" y="1352"/>
      <point x="1483" y="1157"/>
      <point x="1597" y="883"/>
      <point x="1597" y="727" type="qcurve" smooth="yes"/>
      <point x="1597" y="570"/>
      <point x="1483" y="295"/>
      <point x="1285" y="99"/>
      <point x="1007" y="-14"/>
      <point x="848" y="-14" type="qcurve" smooth="yes"/>
      <point x="690" y="-14"/>
      <point x="412" y="99"/>
      <point x="214" y="295"/>
      <point x="100" y="570"/>
    </contour>
    <contour>
      <point x="1532" y="721" type="qcurve" smooth="yes"/>
      <point x="1532" y="914"/>
      <point x="1355" y="1225"/>
      <point x="1042" y="1401"/>
      <point x="848" y="1401" type="qcurve" smooth="yes"/>
      <point x="656" y="1401"/>
      <point x="344" y="1226"/>
      <point x="166" y="916"/>
      <point x="166" y="725" type="qcurve" smooth="yes"/>
      <point x="166" y="535"/>
      <point x="343" y="225"/>
      <point x="655" y="49"/>
      <point x="848" y="49" type="qcurve" smooth="yes"/>
      <point x="1039" y="49"/>
      <point x="1351" y="218"/>
      <point x="1532" y="526"/>
    </contour>
    <contour>
      <point x="395" y="727" type="qcurve" smooth="yes"/>
      <point x="395" y="814"/>
      <point x="451" y="980"/>
      <point x="559" y="1119"/>
      <point x="738" y="1204"/>
      <point x="850" y="1204" type="qcurve" smooth="yes"/>
      <point x="980" y="1204"/>
      <point x="1183" y="1090"/>
      <point x="1225" y="985" type="qcurve"/>
      <point x="1126" y="952" type="line"/>
      <point x="1106" y="999"/>
      <point x="1037" y="1066"/>
      <point x="956" y="1098"/>
      <point x="885" y="1112"/>
      <point x="850" y="1112" type="qcurve" smooth="yes"/>
      <point x="764" y="1112"/>
      <point x="627" y="1044"/>
      <point x="544" y="931"/>
      <point x="500" y="797"/>
      <point x="500" y="727" type="qcurve" smooth="yes"/>
      <point x="500" y="639"/>
      <point x="566" y="491"/>
      <point x="672" y="398"/>
      <point x="795" y="346"/>
      <point x="856" y="346" type="qcurve" smooth="yes"/>
      <point x="940" y="346"/>
      <point x="1111" y="439"/>
      <point x="1143" y="514" type="qcurve"/>
      <point x="1241" y="485" type="line"/>
      <point x="1213" y="405"/>
      <point x="1001" y="254"/>
      <point x="862" y="254" type="qcurve" smooth="yes"/>
      <point x="774" y="254"/>
      <point x="607" y="321"/>
      <point x="475" y="440"/>
      <point x="395" y="621"/>
    </contour>
  </outline>
</glyph>
<glyph name="ordfeminine" format="2">
  <advance width="882"/>
  <unicode hex="00AA"/>
  <anchor x="0" y="0" name="Anchor-11"/>
  <anchor x="0" y="0" name="Anchor-10"/>
  <anchor x="530" y="1063" name="Anchor-9"/>
  <anchor x="0" y="0" name="Anchor-8"/>
  <anchor x="926" y="23" name="Anchor-7"/>
  <outline>
    <contour>
      <point x="100" y="1031"/>
      <point x="272" y="1153"/>
      <point x="406" y="1153" type="qcurve" smooth="yes"/>
      <point x="538" y="1153"/>
      <point x="625" y="1116" type="qcurve"/>
      <point x="625" y="1180" type="line" smooth="yes"/>
      <point x="625" y="1271"/>
      <point x="514" y="1380"/>
      <point x="418" y="1380" type="qcurve" smooth="yes"/>
      <point x="310" y="1380"/>
      <point x="182" y="1296" type="qcurve"/>
      <point x="147" y="1360" type="line"/>
      <point x="290" y="1454"/>
      <point x="424" y="1454" type="qcurve" smooth="yes"/>
      <point x="564" y="1454"/>
      <point x="725" y="1303"/>
      <point x="725" y="1167" type="qcurve" smooth="yes"/>
      <point x="725" y="854" type="line" smooth="yes"/>
      <point x="725" y="816"/>
      <point x="760" y="813" type="qcurve"/>
      <point x="760" y="725" type="line"/>
      <point x="740" y="723"/>
      <point x="711" y="723" type="qcurve" smooth="yes"/>
      <point x="646" y="729"/>
      <point x="639" y="793" type="qcurve"/>
      <point x="637" y="846" type="line"/>
      <point x="586" y="782"/>
      <point x="433" y="713"/>
      <point x="344" y="713" type="qcurve" smooth="yes"/>
      <point x="241" y="713"/>
      <point x="100" y="841"/>
    </contour>
    <contour>
      <point x="600" y="885" type="qcurve" smooth="yes"/>
      <point x="625" y="913"/>
      <point x="625" y="940" type="qcurve" smooth="yes"/>
      <point x="625" y="1053" type="line"/>
      <point x="548" y="1087"/>
      <point x="422" y="1087" type="qcurve" smooth="yes"/>
      <point x="320" y="1087"/>
      <point x="197" y="1008"/>
      <point x="197" y="942" type="qcurve" smooth="yes"/>
      <point x="197" y="877"/>
      <point x="296" y="791"/>
      <point x="369" y="791" type="qcurve" smooth="yes"/>
      <point x="441" y="791"/>
      <point x="568" y="842"/>
    </contour>
  </outline>
</glyph>
<glyph name="guillemotleft" format="2">
  <advance width="1130"/>
  <unicode hex="00AB"/>
  <outline>
    <contour>
      <point x="84" y="559" type="line"/>
      <point x="584" y="918" type="line"/>
      <point x="584" y="825" type="line"/>
      <point x="170" y="530" type="line"/>
      <point x="584" y="238" type="line"/>
      <point x="584" y="145" type="line"/>
      <point x="84" y="498" type="line"/>
    </contour>
    <contour>
      <point x="498" y="559" type="line"/>
      <point x="997" y="918" type="line"/>
      <point x="997" y="825" type="line"/>
      <point x="584" y="530" type="line"/>
      <point x="997" y="238" type="line"/>
      <point x="997" y="145" type="line"/>
      <point x="498" y="498" type="line"/>
    </contour>
  </outline>
</glyph>
<glyph name="logicalnot" format="2">
  <advance width="1175"/>
  <unicode hex="00AC"/>
  <outline>
    <contour>
      <point x="1032" y="725" type="line"/>
      <point x="1032" y="268" type="line"/>
      <point x="940" y="268" type="line"/>
      <point x="940" y="631" type="line"/>
      <point x="160" y="631" type="line"/>
      <point x="160" y="725" type="line"/>
    </contour>
  </outline>
</glyph>
<glyph name="sfthyphen" format="2">
  <advance width="1144"/>
  <unicode hex="00AD"/>
  <outline>
    <contour>
      <point x="137" y="510" type="line"/>
      <point x="137" y="604" type="line"/>
      <point x="1008" y="604" type="line"/>
      <point x="1008" y="510" type="line"/>
    </contour>
  </outline>
</glyph>
<glyph name="registered" format="2">
  <advance width="1697"/>
  <unicode hex="00AE"/>
  <outline>
    <contour>
      <point x="100" y="727" type="qcurve" smooth="yes"/>
      <point x="100" y="883"/>
      <point x="214" y="1157"/>
      <point x="412" y="1352"/>
      <point x="690" y="1464"/>
      <point x="848" y="1464" type="qcurve" smooth="yes"/>
      <point x="1007" y="1464"/>
      <point x="1285" y="1352"/>
      <point x="1483" y="1157"/>
      <point x="1597" y="883"/>
      <point x="1597" y="727" type="qcurve" smooth="yes"/>
      <point x="1597" y="570"/>
      <point x="1483" y="295"/>
      <point x="1285" y="99"/>
      <point x="1007" y="-14"/>
      <point x="848" y="-14" type="qcurve" smooth="yes"/>
      <point x="690" y="-14"/>
      <point x="412" y="99"/>
      <point x="214" y="295"/>
      <point x="100" y="570"/>
    </contour>
    <contour>
      <point x="1530" y="727" type="qcurve" smooth="yes"/>
      <point x="1530" y="916"/>
      <point x="1354" y="1225"/>
      <point x="1041" y="1401"/>
      <point x="848" y="1401" type="qcurve" smooth="yes"/>
      <point x="656" y="1401"/>
      <point x="344" y="1225"/>
      <point x="168" y="916"/>
      <point x="168" y="727" type="qcurve" smooth="yes"/>
      <point x="168" y="536"/>
      <point x="344" y="225"/>
      <point x="655" y="47"/>
      <point x="848" y="47" type="qcurve" smooth="yes"/>
      <point x="1040" y="47"/>
      <point x="1350" y="216"/>
      <point x="1530" y="528"/>
    </contour>
    <contour>
      <point x="543" y="1190" type="line"/>
      <point x="932" y="1190" type="line" smooth="yes"/>
      <point x="1046" y="1190"/>
      <point x="1202" y="1011"/>
      <point x="1202" y="899" type="qcurve" smooth="yes"/>
      <point x="1202" y="795"/>
      <point x="1078" y="634"/>
      <point x="981" y="621" type="qcurve"/>
      <point x="1212" y="256" type="line"/>
      <point x="1120" y="256" type="line"/>
      <point x="895" y="610" type="line"/>
      <point x="625" y="610" type="line"/>
      <point x="625" y="256" type="line"/>
      <point x="543" y="256" type="line"/>
    </contour>
    <contour>
      <point x="934" y="684" type="line" smooth="yes"/>
      <point x="1023" y="684"/>
      <point x="1122" y="807"/>
      <point x="1122" y="899" type="qcurve" smooth="yes"/>
      <point x="1122" y="990"/>
      <point x="1012" y="1112"/>
      <point x="926" y="1112" type="qcurve" smooth="yes"/>
      <point x="625" y="1112" type="line"/>
      <point x="625" y="684" type="line"/>
    </contour>
  </outline>
</glyph>
<glyph name="macron" format="2">
  <advance width="798"/>
  <unicode hex="00AF"/>
  <anchor x="399" y="1452" name="Anchor-13"/>
  <outline>
    <contour>
      <point x="109" y="1376" type="line"/>
      <point x="109" y="1452" type="line"/>
      <point x="692" y="1452" type="line"/>
      <point x="692" y="1376" type="line"/>
    </contour>
  </outline>
</glyph>
<glyph name="degree" format="2">
  <advance width="534"/>
  <unicode hex="00B0"/>
  <outline>
    <contour>
      <point x="266" y="1483" type="qcurve" smooth="yes"/>
      <point x="333" y="1483"/>
      <point x="426" y="1391"/>
      <point x="426" y="1325" type="qcurve" smooth="yes"/>
      <point x="426" y="1256"/>
      <point x="334" y="1163"/>
      <point x="266" y="1163" type="qcurve" smooth="yes"/>
      <point x="200" y="1163"/>
      <point x="109" y="1257"/>
      <point x="109" y="1325" type="qcurve" smooth="yes"/>
      <point x="109" y="1391"/>
      <point x="200" y="1483"/>
    </contour>
    <contour>
      <point x="174" y="1323" type="qcurve" smooth="yes"/>
      <point x="174" y="1284"/>
      <point x="201" y="1257" type="qcurve" smooth="yes"/>
      <point x="229" y="1229"/>
      <point x="266" y="1229" type="qcurve" smooth="yes"/>
      <point x="306" y="1229"/>
      <point x="334" y="1257" type="qcurve" smooth="yes"/>
      <point x="360" y="1283"/>
      <point x="360" y="1323" type="qcurve" smooth="yes"/>
      <point x="360" y="1362"/>
      <point x="334" y="1391" type="qcurve" smooth="yes"/>
      <point x="311" y="1417"/>
      <point x="266" y="1417" type="qcurve" smooth="yes"/>
      <point x="224" y="1417"/>
      <point x="201" y="1391" type="qcurve" smooth="yes"/>
      <point x="174" y="1361"/>
    </contour>
  </outline>
</glyph>
<glyph name="plusminus" format="2">
  <advance width="958"/>
  <unicode hex="00B1"/>
  <outline>
    <contour>
      <point x="801" y="782" type="line"/>
      <point x="801" y="694" type="line"/>
      <point x="526" y="694" type="line"/>
      <point x="526" y="399" type="line"/>
      <point x="432" y="399" type="line"/>
      <point x="432" y="694" type="line"/>
      <point x="158" y="694" type="line"/>
      <point x="158" y="782" type="line"/>
      <point x="432" y="782" type="line"/>
      <point x="432" y="1077" type="line"/>
      <point x="526" y="1077" type="line"/>
      <point x="526" y="782" type="line"/>
    </contour>
    <contour>
      <point x="158" y="143" type="line"/>
      <point x="158" y="231" type="line"/>
      <point x="801" y="231" type="line"/>
      <point x="801" y="143" type="line"/>
    </contour>
  </outline>
</glyph>
<glyph name="twosuperior" format="2">
  <advance width="780"/>
  <unicode hex="00B2"/>
  <outline>
    <contour>
      <point x="76" y="846" type="line"/>
      <point x="76" y="995"/>
      <point x="201" y="1162"/>
      <point x="332" y="1212" type="qcurve" smooth="yes"/>
      <point x="348" y="1218"/>
      <point x="424" y="1245"/>
      <point x="463" y="1260"/>
      <point x="526" y="1288"/>
      <point x="560" y="1315"/>
      <point x="598" y="1353"/>
      <point x="614" y="1399"/>
      <point x="614" y="1427" type="qcurve" smooth="yes"/>
      <point x="614" y="1497"/>
      <point x="502" y="1591"/>
      <point x="397" y="1591" type="qcurve" smooth="yes"/>
      <point x="236" y="1591"/>
      <point x="135" y="1475" type="qcurve"/>
      <point x="86" y="1524" type="line"/>
      <point x="94" y="1536"/>
      <point x="136" y="1573"/>
      <point x="214" y="1625"/>
      <point x="338" y="1661"/>
      <point x="408" y="1661" type="qcurve" smooth="yes"/>
      <point x="546" y="1661"/>
      <point x="694" y="1527"/>
      <point x="694" y="1425" type="qcurve" smooth="yes"/>
      <point x="694" y="1380"/>
      <point x="657" y="1305"/>
      <point x="609" y="1258"/>
      <point x="525" y="1215"/>
      <point x="470" y="1195"/>
      <point x="425" y="1181" type="qcurve" smooth="yes"/>
      <point x="410" y="1176"/>
      <point x="403" y="1174" type="qcurve" smooth="yes"/>
      <point x="184" y="1100"/>
      <point x="184" y="915" type="qcurve"/>
      <point x="690" y="915" type="line"/>
      <point x="690" y="846" type="line"/>
    </contour>
  </outline>
</glyph>
<glyph name="threesuperior" format="2">
  <advance width="790"/>
  <unicode hex="00B3"/>
  <outline>
    <contour>
      <point x="76" y="1022" type="qcurve"/>
      <point x="123" y="1065" type="line"/>
      <point x="129" y="1003"/>
      <point x="281" y="907"/>
      <point x="389" y="907" type="qcurve" smooth="yes"/>
      <point x="493" y="907"/>
      <point x="635" y="995"/>
      <point x="635" y="1063" type="qcurve" smooth="yes"/>
      <point x="635" y="1138"/>
      <point x="469" y="1225"/>
      <point x="330" y="1225" type="qcurve" smooth="yes"/>
      <point x="283" y="1225" type="line"/>
      <point x="283" y="1290" type="line"/>
      <point x="330" y="1290" type="line" smooth="yes"/>
      <point x="462" y="1290"/>
      <point x="606" y="1364"/>
      <point x="606" y="1434" type="qcurve" smooth="yes"/>
      <point x="606" y="1505"/>
      <point x="474" y="1593"/>
      <point x="377" y="1593" type="qcurve" smooth="yes"/>
      <point x="294" y="1593"/>
      <point x="167" y="1530"/>
      <point x="137" y="1477" type="qcurve"/>
      <point x="86" y="1530" type="line"/>
      <point x="121" y="1590"/>
      <point x="281" y="1661"/>
      <point x="377" y="1661" type="qcurve" smooth="yes"/>
      <point x="509" y="1661"/>
      <point x="684" y="1533"/>
      <point x="684" y="1438" type="qcurve" smooth="yes"/>
      <point x="684" y="1298"/>
      <point x="500" y="1260" type="qcurve"/>
      <point x="595" y="1245"/>
      <point x="709" y="1131"/>
      <point x="709" y="1053" type="qcurve" smooth="yes"/>
      <point x="709" y="956"/>
      <point x="523" y="834"/>
      <point x="389" y="834" type="qcurve" smooth="yes"/>
      <point x="261" y="834"/>
      <point x="88" y="937"/>
    </contour>
  </outline>
</glyph>
<glyph name="acute" format="2">
  <advance width="436"/>
  <unicode hex="00B4"/>
  <anchor x="223" y="1495" name="Anchor-13"/>
  <outline>
    <contour>
      <point x="172" y="1288" type="line"/>
      <point x="100" y="1321" type="line"/>
      <point x="225" y="1495" type="line"/>
      <point x="344" y="1495" type="line"/>
    </contour>
  </outline>
</glyph>
<glyph name="mu" format="2">
  <advance width="1255"/>
  <unicode hex="00B5"/>
  <outline>
    <contour>
      <point x="174" y="1065" type="line"/>
      <point x="276" y="1065" type="line"/>
      <point x="276" y="465" type="line" smooth="yes"/>
      <point x="276" y="72"/>
      <point x="547" y="72" type="qcurve" smooth="yes"/>
      <point x="682" y="72"/>
      <point x="914" y="250"/>
      <point x="961" y="393" type="qcurve"/>
      <point x="961" y="1065" type="line"/>
      <point x="1063" y="1065" type="line"/>
      <point x="1063" y="143" type="line" smooth="yes"/>
      <point x="1063" y="92"/>
      <point x="1106" y="92" type="qcurve"/>
      <point x="1106" y="0" type="line"/>
      <point x="1071" y="-3"/>
      <point x="1053" y="0" type="qcurve" smooth="yes"/>
      <point x="1018" y="4"/>
      <point x="971" y="61"/>
      <point x="971" y="98" type="qcurve" smooth="yes"/>
      <point x="971" y="252" type="line"/>
      <point x="910" y="132"/>
      <point x="675" y="-20"/>
      <point x="543" y="-20" type="qcurve" smooth="yes"/>
      <point x="341" y="-20"/>
      <point x="272" y="168" type="qcurve"/>
      <point x="276" y="-434" type="line"/>
      <point x="174" y="-434" type="line"/>
    </contour>
  </outline>
</glyph>
<glyph name="paragraph" format="2">
  <advance width="1204"/>
  <unicode hex="00B6"/>
  <outline>
    <contour>
      <point x="645" y="1454" type="qcurve" smooth="yes"/>
      <point x="1108" y="1454" type="line"/>
      <point x="1108" y="1370" type="line"/>
      <point x="965" y="1370" type="line"/>
      <point x="965" y="-164" type="line"/>
      <point x="872" y="-164" type="line"/>
      <point x="872" y="485" type="line"/>
      <point x="709" y="485" type="line"/>
      <point x="709" y="-164" type="line"/>
      <point x="616" y="-164" type="line"/>
      <point x="616" y="485" type="line"/>
      <point x="361" y="490"/>
      <point x="68" y="746"/>
      <point x="68" y="969" type="qcurve" smooth="yes"/>
      <point x="68" y="1196"/>
      <point x="374" y="1454"/>
    </contour>
    <contour>
      <point x="616" y="571" type="qcurve"/>
      <point x="616" y="1370" type="line"/>
      <point x="395" y="1369"/>
      <point x="160" y="1159"/>
      <point x="160" y="971" type="qcurve" smooth="yes"/>
      <point x="160" y="872"/>
      <point x="232" y="720"/>
      <point x="360" y="626"/>
      <point x="521" y="576"/>
    </contour>
    <contour>
      <point x="872" y="1370" type="line"/>
      <point x="709" y="1370" type="line"/>
      <point x="709" y="571" type="line"/>
      <point x="872" y="571" type="line"/>
    </contour>
  </outline>
</glyph>
<glyph name="cedilla" format="2">
  <advance width="555"/>
  <unicode hex="00B8"/>
  <outline>
    <contour>
      <point x="307" y="-356" type="qcurve" smooth="yes"/>
      <point x="186" y="-356"/>
      <point x="76" y="-301" type="qcurve"/>
      <point x="111" y="-238" type="line"/>
      <point x="207" y="-285"/>
      <point x="289" y="-285" type="qcurve" smooth="yes"/>
      <point x="440" y="-285"/>
      <point x="440" y="-176" type="qcurve" smooth="yes"/>
      <point x="440" y="-123"/>
      <point x="367" y="-42"/>
      <point x="291" y="0" type="qcurve"/>
      <point x="342" y="31" type="line"/>
      <point x="428" y="-19"/>
      <point x="514" y="-121"/>
      <point x="514" y="-190" type="qcurve" smooth="yes"/>
      <point x="514" y="-270"/>
      <point x="402" y="-356"/>
    </contour>
  </outline>
</glyph>
<glyph name="onesuperior" format="2">
  <advance width="540"/>
  <unicode hex="00B9"/>
  <outline>
    <contour>
      <point x="498" y="915" type="line"/>
      <point x="498" y="844" type="line"/>
      <point x="100" y="844" type="line"/>
      <point x="100" y="915" type="line"/>
      <point x="268" y="915" type="line"/>
      <point x="268" y="1575" type="line"/>
      <point x="243" y="1545"/>
      <point x="118" y="1477"/>
      <point x="72" y="1477" type="qcurve"/>
      <point x="72" y="1548" type="line"/>
      <point x="110" y="1548"/>
      <point x="208" y="1604"/>
      <point x="263" y="1654"/>
      <point x="268" y="1661" type="qcurve"/>
      <point x="342" y="1661" type="line"/>
      <point x="342" y="915" type="line"/>
    </contour>
  </outline>
</glyph>
<glyph name="ordmasculine" format="2">
  <advance width="919"/>
  <unicode hex="00BA"/>
  <anchor x="0" y="0" name="Anchor-11"/>
  <anchor x="0" y="0" name="Anchor-10"/>
  <anchor x="594" y="1063" name="Anchor-9"/>
  <anchor x="0" y="0" name="Anchor-8"/>
  <anchor x="592" y="0" name="Anchor-7"/>
  <outline>
    <contour>
      <point x="94" y="1081" type="qcurve" smooth="yes"/>
      <point x="94" y="1235"/>
      <point x="303" y="1454"/>
      <point x="615" y="1454"/>
      <point x="825" y="1235"/>
      <point x="825" y="1081" type="qcurve" smooth="yes"/>
      <point x="825" y="930"/>
      <point x="616" y="713"/>
      <point x="302" y="713"/>
      <point x="94" y="930"/>
    </contour>
    <contour>
      <point x="573" y="788"/>
      <point x="735" y="961"/>
      <point x="735" y="1205"/>
      <point x="574" y="1374"/>
      <point x="459" y="1374" type="qcurve" smooth="yes"/>
      <point x="346" y="1374"/>
      <point x="184" y="1203"/>
      <point x="184" y="1079" type="qcurve" smooth="yes"/>
      <point x="184" y="959"/>
      <point x="345" y="788"/>
    </contour>
  </outline>
</glyph>
<glyph name="guillemotright" format="2">
  <advance width="1130"/>
  <unicode hex="00BB"/>
  <outline>
    <contour>
      <point x="635" y="498" type="line"/>
      <point x="133" y="145" type="line"/>
      <point x="133" y="238" type="line"/>
      <point x="549" y="530" type="line"/>
      <point x="133" y="825" type="line"/>
      <point x="133" y="918" type="line"/>
      <point x="635" y="559" type="line"/>
    </contour>
    <contour>
      <point x="1047" y="498" type="line"/>
      <point x="547" y="145" type="line"/>
      <point x="547" y="238" type="line"/>
      <point x="961" y="530" type="line"/>
      <point x="547" y="825" type="line"/>
      <point x="547" y="918" type="line"/>
      <point x="1047" y="559" type="line"/>
    </contour>
  </outline>
</glyph>
<glyph name="onequarter" format="2">
  <advance width="1572"/>
  <unicode hex="00BC"/>
  <outline>
    <contour>
      <point x="498" y="752" type="line"/>
      <point x="498" y="680" type="line"/>
      <point x="100" y="680" type="line"/>
      <point x="100" y="752" type="line"/>
      <point x="268" y="752" type="line"/>
      <point x="268" y="1411" type="line"/>
      <point x="243" y="1381"/>
      <point x="118" y="1313"/>
      <point x="72" y="1313" type="qcurve"/>
      <point x="72" y="1384" type="line"/>
      <point x="110" y="1384"/>
      <point x="208" y="1440"/>
      <point x="263" y="1490"/>
      <point x="268" y="1497" type="qcurve"/>
      <point x="342" y="1497" type="line"/>
      <point x="342" y="752" type="line"/>
    </contour>
    <contour>
      <point x="90" y="43" type="line"/>
      <point x="662" y="748" type="line"/>
      <point x="1223" y="1460" type="line"/>
      <point x="1280" y="1413" type="line"/>
      <point x="709" y="707" type="line"/>
      <point x="145" y="-6" type="line"/>
    </contour>
    <contour>
      <point x="1323" y="0" type="line"/>
      <point x="1323" y="217" type="line"/>
      <point x="852" y="217" type="line"/>
      <point x="852" y="283" type="line"/>
      <point x="1343" y="805" type="line"/>
      <point x="1395" y="805" type="line"/>
      <point x="1395" y="287" type="line"/>
      <point x="1511" y="287" type="line"/>
      <point x="1511" y="217" type="line"/>
      <point x="1395" y="217" type="line"/>
      <point x="1395" y="0" type="line"/>
    </contour>
    <contour>
      <point x="934" y="287" type="line"/>
      <point x="1323" y="287" type="line"/>
      <point x="1323" y="700" type="line"/>
    </contour>
  </outline>
</glyph>
<glyph name="onehalf" format="2">
  <advance width="1601"/>
  <unicode hex="00BD"/>
  <outline>
    <contour>
      <point x="498" y="752" type="line"/>
      <point x="498" y="680" type="line"/>
      <point x="100" y="680" type="line"/>
      <point x="100" y="752" type="line"/>
      <point x="268" y="752" type="line"/>
      <point x="268" y="1411" type="line"/>
      <point x="243" y="1381"/>
      <point x="118" y="1313"/>
      <point x="72" y="1313" type="qcurve"/>
      <point x="72" y="1384" type="line"/>
      <point x="110" y="1384"/>
      <point x="208" y="1440"/>
      <point x="263" y="1490"/>
      <point x="268" y="1497" type="qcurve"/>
      <point x="342" y="1497" type="line"/>
      <point x="342" y="752" type="line"/>
    </contour>
    <contour>
      <point x="90" y="43" type="line"/>
      <point x="662" y="748" type="line"/>
      <point x="1223" y="1460" type="line"/>
      <point x="1280" y="1413" type="line"/>
      <point x="709" y="707" type="line"/>
      <point x="145" y="-6" type="line"/>
    </contour>
    <contour>
      <point x="903" y="0" type="line"/>
      <point x="903" y="151"/>
      <point x="1028" y="319"/>
      <point x="1157" y="369" type="qcurve" smooth="yes"/>
      <point x="1174" y="375"/>
      <point x="1263" y="407"/>
      <point x="1305" y="424"/>
      <point x="1374" y="461"/>
      <point x="1407" y="496"/>
      <point x="1434" y="550"/>
      <point x="1434" y="582" type="qcurve" smooth="yes"/>
      <point x="1434" y="652"/>
      <point x="1325" y="745"/>
      <point x="1221" y="745" type="qcurve" smooth="yes"/>
      <point x="1061" y="745"/>
      <point x="963" y="627" type="qcurve"/>
      <point x="913" y="678" type="line"/>
      <point x="924" y="692"/>
      <point x="962" y="726"/>
      <point x="1041" y="780"/>
      <point x="1162" y="815"/>
      <point x="1231" y="815" type="qcurve" smooth="yes"/>
      <point x="1367" y="815"/>
      <point x="1513" y="683"/>
      <point x="1513" y="580" type="qcurve" smooth="yes"/>
      <point x="1513" y="524"/>
      <point x="1467" y="438"/>
      <point x="1369" y="380"/>
      <point x="1305" y="354"/>
      <point x="1245" y="334" type="qcurve" smooth="yes"/>
      <point x="1239" y="332"/>
      <point x="1231" y="329"/>
      <point x="1227" y="328" type="qcurve" smooth="yes"/>
      <point x="1159" y="305"/>
      <point x="1067" y="239"/>
      <point x="1026" y="165"/>
      <point x="1012" y="105"/>
      <point x="1012" y="70" type="qcurve"/>
      <point x="1516" y="70" type="line"/>
      <point x="1516" y="0" type="line"/>
    </contour>
  </outline>
</glyph>
<glyph name="threequarters" format="2">
  <advance width="1822"/>
  <unicode hex="00BE"/>
  <outline>
    <contour>
      <point x="76" y="858" type="qcurve"/>
      <point x="123" y="901" type="line"/>
      <point x="129" y="839"/>
      <point x="281" y="743"/>
      <point x="389" y="743" type="qcurve" smooth="yes"/>
      <point x="493" y="743"/>
      <point x="635" y="831"/>
      <point x="635" y="899" type="qcurve" smooth="yes"/>
      <point x="635" y="974"/>
      <point x="469" y="1061"/>
      <point x="330" y="1061" type="qcurve" smooth="yes"/>
      <point x="283" y="1061" type="line"/>
      <point x="283" y="1126" type="line"/>
      <point x="330" y="1126" type="line" smooth="yes"/>
      <point x="462" y="1126"/>
      <point x="606" y="1200"/>
      <point x="606" y="1270" type="qcurve" smooth="yes"/>
      <point x="606" y="1341"/>
      <point x="474" y="1430"/>
      <point x="377" y="1430" type="qcurve" smooth="yes"/>
      <point x="294" y="1430"/>
      <point x="167" y="1367"/>
      <point x="137" y="1313" type="qcurve"/>
      <point x="86" y="1366" type="line"/>
      <point x="121" y="1426"/>
      <point x="281" y="1497"/>
      <point x="377" y="1497" type="qcurve" smooth="yes"/>
      <point x="509" y="1497"/>
      <point x="684" y="1369"/>
      <point x="684" y="1274" type="qcurve" smooth="yes"/>
      <point x="684" y="1134"/>
      <point x="500" y="1096" type="qcurve"/>
      <point x="595" y="1081"/>
      <point x="709" y="967"/>
      <point x="709" y="889" type="qcurve" smooth="yes"/>
      <point x="709" y="792"/>
      <point x="523" y="670"/>
      <point x="389" y="670" type="qcurve" smooth="yes"/>
      <point x="261" y="670"/>
      <point x="88" y="773"/>
    </contour>
    <contour>
      <point x="340" y="43" type="line"/>
      <point x="911" y="748" type="line"/>
      <point x="1473" y="1460" type="line"/>
      <point x="1530" y="1413" type="line"/>
      <point x="958" y="707" type="line"/>
      <point x="395" y="-6" type="line"/>
    </contour>
    <contour>
      <point x="1573" y="0" type="line"/>
      <point x="1573" y="217" type="line"/>
      <point x="1102" y="217" type="line"/>
      <point x="1102" y="283" type="line"/>
      <point x="1593" y="805" type="line"/>
      <point x="1645" y="805" type="line"/>
      <point x="1645" y="287" type="line"/>
      <point x="1761" y="287" type="line"/>
      <point x="1761" y="217" type="line"/>
      <point x="1645" y="217" type="line"/>
      <point x="1645" y="0" type="line"/>
    </contour>
    <contour>
      <point x="1184" y="287" type="line"/>
      <point x="1573" y="287" type="line"/>
      <point x="1573" y="700" type="line"/>
    </contour>
  </outline>
</glyph>
<glyph name="questiondown" format="2">
  <advance width="954"/>
  <unicode hex="00BF"/>
  <outline>
    <contour>
      <point x="625" y="1036" type="line"/>
      <point x="625" y="836" type="line"/>
      <point x="535" y="836" type="line"/>
      <point x="535" y="1036" type="line"/>
    </contour>
    <contour>
      <point x="627" y="641" type="line"/>
      <point x="627" y="538"/>
      <point x="584" y="396"/>
      <point x="512" y="313"/>
      <point x="453" y="279" type="qcurve" smooth="yes"/>
      <point x="437" y="270"/>
      <point x="378" y="239"/>
      <point x="338" y="218"/>
      <point x="282" y="183"/>
      <point x="244" y="151"/>
      <point x="203" y="103"/>
      <point x="178" y="52"/>
      <point x="162" y="-16"/>
      <point x="162" y="-55" type="qcurve" smooth="yes"/>
      <point x="162" y="-150"/>
      <point x="251" y="-287"/>
      <point x="384" y="-348"/>
      <point x="463" y="-348" type="qcurve" smooth="yes"/>
      <point x="576" y="-348"/>
      <point x="767" y="-226"/>
      <point x="815" y="-127" type="qcurve"/>
      <point x="889" y="-172" type="line"/>
      <point x="835" y="-296"/>
      <point x="598" y="-436"/>
      <point x="463" y="-436" type="qcurve" smooth="yes"/>
      <point x="386" y="-436"/>
      <point x="247" y="-387"/>
      <point x="136" y="-293"/>
      <point x="70" y="-142"/>
      <point x="70" y="-49" type="qcurve" smooth="yes"/>
      <point x="70" y="12"/>
      <point x="100" y="113"/>
      <point x="149" y="182"/>
      <point x="219" y="240"/>
      <point x="292" y="283"/>
      <point x="334" y="306" type="qcurve" smooth="yes"/>
      <point x="355" y="316"/>
      <point x="365" y="322" type="qcurve" smooth="yes"/>
      <point x="399" y="341"/>
      <point x="439" y="368"/>
      <point x="490" y="420"/>
      <point x="517" y="481"/>
      <point x="537" y="579"/>
      <point x="537" y="641" type="qcurve"/>
    </contour>
  </outline>
</glyph>
<glyph name="Aacute" format="2">
  <advance width="1382"/>
  <unicode hex="00C1"/>
  <anchor x="0" y="0" name="Anchor-11"/>
  <anchor x="0" y="0" name="Anchor-10"/>
  <anchor x="778" y="1878" name="Anchor-9"/>
  <anchor x="1352" y="0" name="Anchor-8"/>
  <anchor x="711" y="0" name="Anchor-7"/>
  <outline>
    <contour>
      <point x="727" y="1671" type="line"/>
      <point x="655" y="1704" type="line"/>
      <point x="780" y="1878" type="line"/>
      <point x="899" y="1878" type="line"/>
    </contour>
    <contour>
      <point x="647" y="1454" type="line"/>
      <point x="737" y="1454" type="line"/>
      <point x="1352" y="0" type="line"/>
      <point x="1241" y="0" type="line"/>
      <point x="1038" y="479" type="line"/>
      <point x="344" y="479" type="line"/>
      <point x="141" y="0" type="line"/>
      <point x="29" y="0" type="line"/>
    </contour>
    <contour>
      <point x="1010" y="565" type="line"/>
      <point x="692" y="1327" type="line"/>
      <point x="369" y="565" type="line"/>
    </contour>
  </outline>
</glyph>
<glyph name="Acircumflex" format="2">
  <advance width="1382"/>
  <unicode hex="00C2"/>
  <anchor x="0" y="0" name="Anchor-11"/>
  <anchor x="0" y="0" name="Anchor-10"/>
  <anchor x="692" y="1878" name="Anchor-9"/>
  <anchor x="1352" y="0" name="Anchor-8"/>
  <anchor x="711" y="0" name="Anchor-7"/>
  <outline>
    <contour>
      <point x="457" y="1712" type="line"/>
      <point x="653" y="1878" type="line"/>
      <point x="729" y="1878" type="line"/>
      <point x="928" y="1712" type="line"/>
      <point x="866" y="1677" type="line"/>
      <point x="692" y="1806" type="line"/>
      <point x="518" y="1677" type="line"/>
    </contour>
    <contour>
      <point x="647" y="1454" type="line"/>
      <point x="737" y="1454" type="line"/>
      <point x="1352" y="0" type="line"/>
      <point x="1241" y="0" type="line"/>
      <point x="1038" y="479" type="line"/>
      <point x="344" y="479" type="line"/>
      <point x="141" y="0" type="line"/>
      <point x="29" y="0" type="line"/>
    </contour>
    <contour>
      <point x="1010" y="565" type="line"/>
      <point x="692" y="1327" type="line"/>
      <point x="369" y="565" type="line"/>
    </contour>
  </outline>
</glyph>
<glyph name="Atilde" format="2">
  <advance width="1382"/>
  <unicode hex="00C3"/>
  <anchor x="0" y="0" name="Anchor-11"/>
  <anchor x="0" y="0" name="Anchor-10"/>
  <anchor x="692" y="1878" name="Anchor-9"/>
  <anchor x="1352" y="0" name="Anchor-8"/>
  <anchor x="711" y="0" name="Anchor-7"/>
  <outline>
    <contour>
      <point x="555" y="1790" type="qcurve" smooth="yes"/>
      <point x="524" y="1790"/>
      <point x="479" y="1763"/>
      <point x="460" y="1725"/>
      <point x="453" y="1699"/>
      <point x="453" y="1692" type="qcurve"/>
      <point x="383" y="1692" type="line"/>
      <point x="383" y="1706"/>
      <point x="397" y="1753"/>
      <point x="430" y="1817"/>
      <point x="504" y="1862"/>
      <point x="555" y="1862" type="qcurve" smooth="yes"/>
      <point x="612" y="1862"/>
      <point x="765" y="1780"/>
      <point x="815" y="1780" type="qcurve" smooth="yes"/>
      <point x="846" y="1780"/>
      <point x="892" y="1799"/>
      <point x="915" y="1825"/>
      <point x="929" y="1856"/>
      <point x="932" y="1873"/>
      <point x="932" y="1878" type="qcurve"/>
      <point x="1004" y="1878" type="line"/>
      <point x="1004" y="1864"/>
      <point x="988" y="1816"/>
      <point x="952" y="1753"/>
      <point x="870" y="1708"/>
      <point x="815" y="1708" type="qcurve" smooth="yes"/>
      <point x="763" y="1708"/>
      <point x="669" y="1749"/>
      <point x="590" y="1790"/>
    </contour>
    <contour>
      <point x="647" y="1454" type="line"/>
      <point x="737" y="1454" type="line"/>
      <point x="1352" y="0" type="line"/>
      <point x="1241" y="0" type="line"/>
      <point x="1038" y="479" type="line"/>
      <point x="344" y="479" type="line"/>
      <point x="141" y="0" type="line"/>
      <point x="29" y="0" type="line"/>
    </contour>
    <contour>
      <point x="1010" y="565" type="line"/>
      <point x="692" y="1327" type="line"/>
      <point x="369" y="565" type="line"/>
    </contour>
  </outline>
</glyph>
<glyph name="Adieresis" format="2">
  <advance width="1382"/>
  <unicode hex="00C4"/>
  <anchor x="0" y="0" name="Anchor-11"/>
  <anchor x="0" y="0" name="Anchor-10"/>
  <anchor x="692" y="1858" name="Anchor-9"/>
  <anchor x="1352" y="0" name="Anchor-8"/>
  <anchor x="711" y="0" name="Anchor-7"/>
  <outline>
    <contour>
      <point x="508" y="1694" type="line"/>
      <point x="508" y="1874" type="line"/>
      <point x="598" y="1874" type="line"/>
      <point x="598" y="1694" type="line"/>
    </contour>
    <contour>
      <point x="786" y="1694" type="line"/>
      <point x="786" y="1874" type="line"/>
      <point x="877" y="1874" type="line"/>
      <point x="877" y="1694" type="line"/>
    </contour>
    <contour>
      <point x="647" y="1454" type="line"/>
      <point x="737" y="1454" type="line"/>
      <point x="1352" y="0" type="line"/>
      <point x="1241" y="0" type="line"/>
      <point x="1038" y="479" type="line"/>
      <point x="344" y="479" type="line"/>
      <point x="141" y="0" type="line"/>
      <point x="29" y="0" type="line"/>
    </contour>
    <contour>
      <point x="1010" y="565" type="line"/>
      <point x="692" y="1327" type="line"/>
      <point x="369" y="565" type="line"/>
    </contour>
  </outline>
</glyph>
<glyph name="Aring" format="2">
  <advance width="1382"/>
  <unicode hex="00C5"/>
  <anchor x="0" y="0" name="Anchor-11"/>
  <anchor x="0" y="0" name="Anchor-10"/>
  <anchor x="690" y="1898" name="Anchor-9"/>
  <anchor x="1352" y="0" name="Anchor-8"/>
  <anchor x="711" y="0" name="Anchor-7"/>
  <outline>
    <contour>
      <point x="766" y="1929"/>
      <point x="864" y="1835"/>
      <point x="864" y="1763" type="qcurve" smooth="yes"/>
      <point x="864" y="1693"/>
      <point x="766" y="1599"/>
      <point x="618" y="1599"/>
      <point x="520" y="1693"/>
      <point x="520" y="1763" type="qcurve" smooth="yes"/>
      <point x="520" y="1835"/>
      <point x="618" y="1929"/>
    </contour>
    <contour>
      <point x="588" y="1763" type="qcurve" smooth="yes"/>
      <point x="588" y="1719"/>
      <point x="648" y="1659"/>
      <point x="692" y="1659" type="qcurve" smooth="yes"/>
      <point x="733" y="1659"/>
      <point x="797" y="1719"/>
      <point x="797" y="1763" type="qcurve" smooth="yes"/>
      <point x="797" y="1811"/>
      <point x="736" y="1868"/>
      <point x="648" y="1868"/>
      <point x="588" y="1811"/>
    </contour>
    <contour>
      <point x="647" y="1454" type="line"/>
      <point x="737" y="1454" type="line"/>
      <point x="1352" y="0" type="line"/>
      <point x="1241" y="0" type="line"/>
      <point x="1038" y="479" type="line"/>
      <point x="344" y="479" type="line"/>
      <point x="141" y="0" type="line"/>
      <point x="29" y="0" type="line"/>
    </contour>
    <contour>
      <point x="1010" y="565" type="line"/>
      <point x="692" y="1327" type="line"/>
      <point x="369" y="565" type="line"/>
    </contour>
  </outline>
</glyph>
<glyph name="Ccedilla" format="2">
  <advance width="1413"/>
  <unicode hex="00C7"/>
  <anchor x="0" y="0" name="Anchor-11"/>
  <anchor x="0" y="0" name="Anchor-10"/>
  <anchor x="776" y="1448" name="Anchor-9"/>
  <anchor x="0" y="0" name="Anchor-8"/>
  <anchor x="772" y="0" name="Anchor-7"/>
  <outline>
    <contour>
      <point x="1346" y="326" type="line"/>
      <point x="1284" y="186"/>
      <point x="1008" y="12"/>
      <point x="846" y="-8" type="qcurve"/>
      <point x="958" y="-86"/>
      <point x="958" y="-190" type="qcurve" smooth="yes"/>
      <point x="958" y="-270"/>
      <point x="847" y="-356"/>
      <point x="752" y="-356" type="qcurve" smooth="yes"/>
      <point x="630" y="-356"/>
      <point x="520" y="-301" type="qcurve"/>
      <point x="555" y="-238" type="line"/>
      <point x="651" y="-285"/>
      <point x="733" y="-285" type="qcurve" smooth="yes"/>
      <point x="885" y="-285"/>
      <point x="885" y="-176" type="qcurve" smooth="yes"/>
      <point x="885" y="-127"/>
      <point x="822" y="-51"/>
      <point x="756" y="-12" type="qcurve"/>
      <point x="614" y="-9"/>
      <point x="362" y="123"/>
      <point x="190" y="334"/>
      <point x="90" y="601"/>
      <point x="90" y="737" type="qcurve" smooth="yes"/>
      <point x="90" y="870"/>
      <point x="184" y="1127"/>
      <point x="355" y="1334"/>
      <point x="621" y="1462"/>
      <point x="778" y="1462" type="qcurve" smooth="yes"/>
      <point x="965" y="1462"/>
      <point x="1245" y="1289"/>
      <point x="1315" y="1145" type="qcurve"/>
      <point x="1229" y="1096" type="line"/>
      <point x="1180" y="1192"/>
      <point x="1024" y="1317"/>
      <point x="861" y="1366"/>
      <point x="770" y="1366" type="qcurve" smooth="yes"/>
      <point x="637" y="1366"/>
      <point x="414" y="1254"/>
      <point x="273" y="1072"/>
      <point x="195" y="848"/>
      <point x="195" y="731" type="qcurve" smooth="yes"/>
      <point x="195" y="561"/>
      <point x="347" y="264"/>
      <point x="616" y="84"/>
      <point x="776" y="84" type="qcurve" smooth="yes"/>
      <point x="868" y="84"/>
      <point x="1044" y="141"/>
      <point x="1207" y="274"/>
      <point x="1255" y="369" type="qcurve"/>
    </contour>
  </outline>
</glyph>
<glyph name="Eacute" format="2">
  <advance width="1253"/>
  <unicode hex="00C9"/>
  <anchor x="0" y="0" name="Anchor-11"/>
  <anchor x="0" y="0" name="Anchor-10"/>
  <anchor x="782" y="1878" name="Anchor-9"/>
  <anchor x="1159" y="0" name="Anchor-8"/>
  <anchor x="696" y="0" name="Anchor-7"/>
  <outline>
    <contour>
      <point x="731" y="1671" type="line"/>
      <point x="659" y="1704" type="line"/>
      <point x="784" y="1878" type="line"/>
      <point x="903" y="1878" type="line"/>
    </contour>
    <contour>
      <point x="1159" y="94" type="line"/>
      <point x="1159" y="0" type="line"/>
      <point x="190" y="0" type="line"/>
      <point x="190" y="1454" type="line"/>
      <point x="1141" y="1454" type="line"/>
      <point x="1141" y="1360" type="line"/>
      <point x="295" y="1360" type="line"/>
      <point x="295" y="788" type="line"/>
      <point x="1034" y="788" type="line"/>
      <point x="1034" y="698" type="line"/>
      <point x="295" y="698" type="line"/>
      <point x="295" y="94" type="line"/>
    </contour>
  </outline>
</glyph>
<glyph name="Ecircumflex" format="2">
  <advance width="1253"/>
  <unicode hex="00CA"/>
  <anchor x="0" y="0" name="Anchor-11"/>
  <anchor x="0" y="0" name="Anchor-10"/>
  <anchor x="696" y="1878" name="Anchor-9"/>
  <anchor x="1159" y="0" name="Anchor-8"/>
  <anchor x="696" y="0" name="Anchor-7"/>
  <outline>
    <contour>
      <point x="461" y="1712" type="line"/>
      <point x="657" y="1878" type="line"/>
      <point x="733" y="1878" type="line"/>
      <point x="932" y="1712" type="line"/>
      <point x="870" y="1677" type="line"/>
      <point x="696" y="1806" type="line"/>
      <point x="522" y="1677" type="line"/>
    </contour>
    <contour>
      <point x="1159" y="94" type="line"/>
      <point x="1159" y="0" type="line"/>
      <point x="190" y="0" type="line"/>
      <point x="190" y="1454" type="line"/>
      <point x="1141" y="1454" type="line"/>
      <point x="1141" y="1360" type="line"/>
      <point x="295" y="1360" type="line"/>
      <point x="295" y="788" type="line"/>
      <point x="1034" y="788" type="line"/>
      <point x="1034" y="698" type="line"/>
      <point x="295" y="698" type="line"/>
      <point x="295" y="94" type="line"/>
    </contour>
  </outline>
</glyph>
<glyph name="Edieresis" format="2">
  <advance width="1253"/>
  <unicode hex="00CB"/>
  <anchor x="0" y="0" name="Anchor-11"/>
  <anchor x="0" y="0" name="Anchor-10"/>
  <anchor x="696" y="1858" name="Anchor-9"/>
  <anchor x="1159" y="0" name="Anchor-8"/>
  <anchor x="696" y="0" name="Anchor-7"/>
  <outline>
    <contour>
      <point x="512" y="1694" type="line"/>
      <point x="512" y="1874" type="line"/>
      <point x="602" y="1874" type="line"/>
      <point x="602" y="1694" type="line"/>
    </contour>
    <contour>
      <point x="791" y="1694" type="line"/>
      <point x="791" y="1874" type="line"/>
      <point x="881" y="1874" type="line"/>
      <point x="881" y="1694" type="line"/>
    </contour>
    <contour>
      <point x="1159" y="94" type="line"/>
      <point x="1159" y="0" type="line"/>
      <point x="190" y="0" type="line"/>
      <point x="190" y="1454" type="line"/>
      <point x="1141" y="1454" type="line"/>
      <point x="1141" y="1360" type="line"/>
      <point x="295" y="1360" type="line"/>
      <point x="295" y="788" type="line"/>
      <point x="1034" y="788" type="line"/>
      <point x="1034" y="698" type="line"/>
      <point x="295" y="698" type="line"/>
      <point x="295" y="94" type="line"/>
    </contour>
  </outline>
</glyph>
<glyph name="Igrave" format="2">
  <advance width="485"/>
  <unicode hex="00CC"/>
  <anchor x="0" y="0" name="Anchor-11"/>
  <anchor x="0" y="0" name="Anchor-10"/>
  <anchor x="193" y="1878" name="Anchor-9"/>
  <anchor x="295" y="0" name="Anchor-8"/>
  <anchor x="244" y="0" name="Anchor-7"/>
  <outline>
    <contour>
      <point x="70" y="1878" type="line"/>
      <point x="186" y="1878" type="line"/>
      <point x="313" y="1704" type="line"/>
      <point x="244" y="1671" type="line"/>
    </contour>
    <contour>
      <point x="190" y="0" type="line"/>
      <point x="190" y="1454" type="line"/>
      <point x="295" y="1454" type="line"/>
      <point x="295" y="0" type="line"/>
    </contour>
  </outline>
</glyph>
<glyph name="Iacute" format="2">
  <advance width="485"/>
  <unicode hex="00CD"/>
  <anchor x="0" y="0" name="Anchor-11"/>
  <anchor x="0" y="0" name="Anchor-10"/>
  <anchor x="328" y="1878" name="Anchor-9"/>
  <anchor x="295" y="0" name="Anchor-8"/>
  <anchor x="244" y="0" name="Anchor-7"/>
  <outline>
    <contour>
      <point x="276" y="1671" type="line"/>
      <point x="205" y="1704" type="line"/>
      <point x="330" y="1878" type="line"/>
      <point x="449" y="1878" type="line"/>
    </contour>
    <contour>
      <point x="190" y="0" type="line"/>
      <point x="190" y="1454" type="line"/>
      <point x="295" y="1454" type="line"/>
      <point x="295" y="0" type="line"/>
    </contour>
  </outline>
</glyph>
<glyph name="Icircumflex" format="2">
  <advance width="485"/>
  <unicode hex="00CE"/>
  <anchor x="0" y="0" name="Anchor-11"/>
  <anchor x="0" y="0" name="Anchor-10"/>
  <anchor x="242" y="1878" name="Anchor-9"/>
  <anchor x="295" y="0" name="Anchor-8"/>
  <anchor x="244" y="0" name="Anchor-7"/>
  <outline>
    <contour>
      <point x="6" y="1712" type="line"/>
      <point x="203" y="1878" type="line"/>
      <point x="279" y="1878" type="line"/>
      <point x="477" y="1712" type="line"/>
      <point x="416" y="1677" type="line"/>
      <point x="242" y="1806" type="line"/>
      <point x="68" y="1677" type="line"/>
    </contour>
    <contour>
      <point x="190" y="0" type="line"/>
      <point x="190" y="1454" type="line"/>
      <point x="295" y="1454" type="line"/>
      <point x="295" y="0" type="line"/>
    </contour>
  </outline>
</glyph>
<glyph name="Idieresis" format="2">
  <advance width="485"/>
  <unicode hex="00CF"/>
  <anchor x="0" y="0" name="Anchor-11"/>
  <anchor x="0" y="0" name="Anchor-10"/>
  <anchor x="242" y="1858" name="Anchor-9"/>
  <anchor x="295" y="0" name="Anchor-8"/>
  <anchor x="244" y="0" name="Anchor-7"/>
  <outline>
    <contour>
      <point x="57" y="1694" type="line"/>
      <point x="57" y="1874" type="line"/>
      <point x="147" y="1874" type="line"/>
      <point x="147" y="1694" type="line"/>
    </contour>
    <contour>
      <point x="336" y="1694" type="line"/>
      <point x="336" y="1874" type="line"/>
      <point x="426" y="1874" type="line"/>
      <point x="426" y="1694" type="line"/>
    </contour>
    <contour>
      <point x="190" y="0" type="line"/>
      <point x="190" y="1454" type="line"/>
      <point x="295" y="1454" type="line"/>
      <point x="295" y="0" type="line"/>
    </contour>
  </outline>
</glyph>
<glyph name="Eth" format="2">
  <advance width="1474"/>
  <unicode hex="00D0"/>
  <anchor x="0" y="0" name="Anchor-11"/>
  <anchor x="745" y="727" name="Anchor-10"/>
  <anchor x="725" y="1448" name="Anchor-9"/>
  <anchor x="0" y="0" name="Anchor-8"/>
  <anchor x="745" y="0" name="Anchor-7"/>
  <outline>
    <contour>
      <point x="688" y="1454" type="line" smooth="yes"/>
      <point x="823" y="1454"/>
      <point x="1050" y="1380"/>
      <point x="1211" y="1248"/>
      <point x="1324" y="1066"/>
      <point x="1378" y="850"/>
      <point x="1378" y="729" type="qcurve" smooth="yes"/>
      <point x="1378" y="398"/>
      <point x="1004" y="0"/>
      <point x="688" y="0" type="qcurve" smooth="yes"/>
      <point x="205" y="0" type="line"/>
      <point x="205" y="688" type="line"/>
      <point x="72" y="688" type="line"/>
      <point x="72" y="774" type="line"/>
      <point x="205" y="774" type="line"/>
      <point x="205" y="1454" type="line"/>
    </contour>
    <contour>
      <point x="688" y="94" type="line" smooth="yes"/>
      <point x="828" y="94"/>
      <point x="1053" y="191"/>
      <point x="1198" y="362"/>
      <point x="1274" y="593"/>
      <point x="1274" y="729" type="qcurve" smooth="yes"/>
      <point x="1274" y="914"/>
      <point x="1139" y="1197"/>
      <point x="871" y="1360"/>
      <point x="688" y="1360" type="qcurve" smooth="yes"/>
      <point x="309" y="1360" type="line"/>
      <point x="309" y="774" type="line"/>
      <point x="674" y="774" type="line"/>
      <point x="674" y="688" type="line"/>
      <point x="309" y="688" type="line"/>
      <point x="309" y="94" type="line"/>
    </contour>
  </outline>
</glyph>
<glyph name="Ntilde" format="2">
  <advance width="1583"/>
  <unicode hex="00D1"/>
  <anchor x="0" y="0" name="Anchor-11"/>
  <anchor x="0" y="0" name="Anchor-10"/>
  <anchor x="799" y="1878" name="Anchor-9"/>
  <anchor x="0" y="0" name="Anchor-8"/>
  <anchor x="801" y="0" name="Anchor-7"/>
  <outline>
    <contour>
      <point x="662" y="1790" type="qcurve" smooth="yes"/>
      <point x="631" y="1790"/>
      <point x="586" y="1763"/>
      <point x="567" y="1725"/>
      <point x="559" y="1699"/>
      <point x="559" y="1692" type="qcurve"/>
      <point x="489" y="1692" type="line"/>
      <point x="489" y="1702"/>
      <point x="496" y="1736"/>
      <point x="520" y="1787"/>
      <point x="555" y="1831"/>
      <point x="621" y="1862"/>
      <point x="662" y="1862" type="qcurve" smooth="yes"/>
      <point x="719" y="1862"/>
      <point x="872" y="1780"/>
      <point x="922" y="1780" type="qcurve" smooth="yes"/>
      <point x="953" y="1780"/>
      <point x="999" y="1799"/>
      <point x="1021" y="1825"/>
      <point x="1035" y="1856"/>
      <point x="1038" y="1873"/>
      <point x="1038" y="1878" type="qcurve"/>
      <point x="1110" y="1878" type="line"/>
      <point x="1110" y="1868"/>
      <point x="1102" y="1833"/>
      <point x="1077" y="1782"/>
      <point x="1038" y="1739"/>
      <point x="967" y="1708"/>
      <point x="922" y="1708" type="qcurve" smooth="yes"/>
      <point x="870" y="1708"/>
      <point x="776" y="1749"/>
      <point x="697" y="1790"/>
    </contour>
    <contour>
      <point x="295" y="1260" type="line"/>
      <point x="295" y="0" type="line"/>
      <point x="190" y="0" type="line"/>
      <point x="190" y="1454" type="line"/>
      <point x="276" y="1454" type="line"/>
      <point x="1290" y="174" type="line"/>
      <point x="1290" y="1454" type="line"/>
      <point x="1395" y="1454" type="line"/>
      <point x="1395" y="0" type="line"/>
      <point x="1292" y="0" type="line"/>
    </contour>
  </outline>
</glyph>
<glyph name="multiply" format="2">
  <advance width="923"/>
  <unicode hex="00D7"/>
  <outline>
    <contour>
      <point x="788" y="297" type="line"/>
      <point x="721" y="231" type="line"/>
      <point x="461" y="489" type="line"/>
      <point x="203" y="231" type="line"/>
      <point x="137" y="299" type="line"/>
      <point x="393" y="555" type="line"/>
      <point x="137" y="815" type="line"/>
      <point x="205" y="881" type="line"/>
      <point x="461" y="623" type="line"/>
      <point x="721" y="883" type="line"/>
      <point x="786" y="815" type="line"/>
      <point x="528" y="555" type="line"/>
    </contour>
  </outline>
</glyph>
<glyph name="Oslash" format="2">
  <advance width="1542"/>
  <unicode hex="00D8"/>
  <anchor x="1038" y="1352" name="Anchor-11"/>
  <anchor x="772" y="727" name="Anchor-10"/>
  <anchor x="772" y="1448" name="Anchor-9"/>
  <anchor x="899" y="6" name="Anchor-8"/>
  <anchor x="770" y="0" name="Anchor-7"/>
  <outline>
    <contour>
      <point x="1204" y="1294" type="line"/>
      <point x="1321" y="1187"/>
      <point x="1452" y="886"/>
      <point x="1452" y="727" type="qcurve" smooth="yes"/>
      <point x="1452" y="582"/>
      <point x="1347" y="312"/>
      <point x="1167" y="111"/>
      <point x="912" y="-10"/>
      <point x="770" y="-10" type="qcurve" smooth="yes"/>
      <point x="575" y="-10"/>
      <point x="416" y="98" type="qcurve"/>
      <point x="352" y="0" type="line"/>
      <point x="236" y="0" type="line"/>
      <point x="340" y="158" type="line"/>
      <point x="222" y="263"/>
      <point x="90" y="565"/>
      <point x="90" y="727" type="qcurve" smooth="yes"/>
      <point x="90" y="870"/>
      <point x="195" y="1140"/>
      <point x="375" y="1342"/>
      <point x="630" y="1464"/>
      <point x="772" y="1464" type="qcurve" smooth="yes"/>
      <point x="967" y="1464"/>
      <point x="1126" y="1356" type="qcurve"/>
      <point x="1190" y="1454" type="line"/>
      <point x="1309" y="1454" type="line"/>
    </contour>
    <contour>
      <point x="195" y="727" type="qcurve" smooth="yes"/>
      <point x="195" y="588"/>
      <point x="299" y="333"/>
      <point x="393" y="242" type="qcurve"/>
      <point x="1071" y="1274" type="line"/>
      <point x="934" y="1368"/>
      <point x="772" y="1368" type="qcurve" smooth="yes"/>
      <point x="646" y="1368"/>
      <point x="426" y="1257"/>
      <point x="279" y="1076"/>
      <point x="195" y="846"/>
    </contour>
    <contour>
      <point x="772" y="86" type="qcurve" smooth="yes"/>
      <point x="898" y="86"/>
      <point x="1117" y="198"/>
      <point x="1263" y="379"/>
      <point x="1346" y="609"/>
      <point x="1346" y="727" type="qcurve" smooth="yes"/>
      <point x="1346" y="864"/>
      <point x="1242" y="1119"/>
      <point x="1149" y="1210" type="qcurve"/>
      <point x="469" y="178" type="line"/>
      <point x="608" y="86"/>
    </contour>
  </outline>
</glyph>
<glyph name="Ucircumflex" format="2">
  <advance width="1548"/>
  <unicode hex="00DB"/>
  <anchor x="1464" y="1354" name="Anchor-11"/>
  <anchor x="0" y="0" name="Anchor-10"/>
  <anchor x="776" y="1878" name="Anchor-9"/>
  <anchor x="899" y="0" name="Anchor-8"/>
  <anchor x="776" y="0" name="Anchor-7"/>
  <outline>
    <contour>
      <point x="541" y="1712" type="line"/>
      <point x="737" y="1878" type="line"/>
      <point x="813" y="1878" type="line"/>
      <point x="1012" y="1712" type="line"/>
      <point x="950" y="1677" type="line"/>
      <point x="776" y="1806" type="line"/>
      <point x="602" y="1677" type="line"/>
    </contour>
    <contour>
      <point x="776" y="-10" type="qcurve" smooth="yes"/>
      <point x="642" y="-10"/>
      <point x="429" y="73"/>
      <point x="294" y="210"/>
      <point x="205" y="402"/>
      <point x="168" y="607"/>
      <point x="168" y="723" type="qcurve" smooth="yes"/>
      <point x="168" y="1454" type="line"/>
      <point x="272" y="1454" type="line"/>
      <point x="272" y="723" type="line" smooth="yes"/>
      <point x="272" y="621"/>
      <point x="301" y="444"/>
      <point x="374" y="276"/>
      <point x="486" y="158"/>
      <point x="662" y="86"/>
      <point x="774" y="86" type="qcurve" smooth="yes"/>
      <point x="888" y="86"/>
      <point x="1066" y="159"/>
      <point x="1176" y="280"/>
      <point x="1248" y="449"/>
      <point x="1276" y="624"/>
      <point x="1276" y="723" type="qcurve" smooth="yes"/>
      <point x="1276" y="1454" type="line"/>
      <point x="1380" y="1454" type="line"/>
      <point x="1380" y="723" type="line" smooth="yes"/>
      <point x="1380" y="602"/>
      <point x="1341" y="392"/>
      <point x="1250" y="203"/>
      <point x="1113" y="68"/>
      <point x="906" y="-10"/>
    </contour>
  </outline>
</glyph>
<glyph name="Udieresis" format="2">
  <advance width="1548"/>
  <unicode hex="00DC"/>
  <anchor x="1464" y="1354" name="Anchor-11"/>
  <anchor x="0" y="0" name="Anchor-10"/>
  <anchor x="776" y="1858" name="Anchor-9"/>
  <anchor x="899" y="0" name="Anchor-8"/>
  <anchor x="776" y="0" name="Anchor-7"/>
  <outline>
    <contour>
      <point x="592" y="1694" type="line"/>
      <point x="592" y="1874" type="line"/>
      <point x="682" y="1874" type="line"/>
      <point x="682" y="1694" type="line"/>
    </contour>
    <contour>
      <point x="870" y="1694" type="line"/>
      <point x="870" y="1874" type="line"/>
      <point x="961" y="1874" type="line"/>
      <point x="961" y="1694" type="line"/>
    </contour>
    <contour>
      <point x="776" y="-10" type="qcurve" smooth="yes"/>
      <point x="642" y="-10"/>
      <point x="429" y="73"/>
      <point x="294" y="210"/>
      <point x="205" y="402"/>
      <point x="168" y="607"/>
      <point x="168" y="723" type="qcurve" smooth="yes"/>
      <point x="168" y="1454" type="line"/>
      <point x="272" y="1454" type="line"/>
      <point x="272" y="723" type="line" smooth="yes"/>
      <point x="272" y="621"/>
      <point x="301" y="444"/>
      <point x="374" y="276"/>
      <point x="486" y="158"/>
      <point x="662" y="86"/>
      <point x="774" y="86" type="qcurve" smooth="yes"/>
      <point x="888" y="86"/>
      <point x="1066" y="159"/>
      <point x="1176" y="280"/>
      <point x="1248" y="449"/>
      <point x="1276" y="624"/>
      <point x="1276" y="723" type="qcurve" smooth="yes"/>
      <point x="1276" y="1454" type="line"/>
      <point x="1380" y="1454" type="line"/>
      <point x="1380" y="723" type="line" smooth="yes"/>
      <point x="1380" y="602"/>
      <point x="1341" y="392"/>
      <point x="1250" y="203"/>
      <point x="1113" y="68"/>
      <point x="906" y="-10"/>
    </contour>
  </outline>
</glyph>
<glyph name="Yacute" format="2">
  <advance width="1325"/>
  <unicode hex="00DD"/>
  <anchor x="0" y="0" name="Anchor-11"/>
  <anchor x="0" y="0" name="Anchor-10"/>
  <anchor x="748" y="1878" name="Anchor-9"/>
  <anchor x="0" y="0" name="Anchor-8"/>
  <anchor x="664" y="0" name="Anchor-7"/>
  <outline>
    <contour>
      <point x="696" y="1671" type="line"/>
      <point x="625" y="1704" type="line"/>
      <point x="750" y="1878" type="line"/>
      <point x="868" y="1878" type="line"/>
    </contour>
    <contour>
      <point x="154" y="1454" type="line"/>
      <point x="662" y="649" type="line"/>
      <point x="1171" y="1454" type="line"/>
      <point x="1288" y="1454" type="line"/>
      <point x="715" y="549" type="line"/>
      <point x="715" y="0" type="line"/>
      <point x="610" y="0" type="line"/>
      <point x="610" y="553" type="line"/>
      <point x="39" y="1454" type="line"/>
    </contour>
  </outline>
</glyph>
<glyph name="Thorn" format="2">
  <advance width="1230"/>
  <unicode hex="00DE"/>
  <outline>
    <contour>
      <point x="1171" y="707" type="qcurve" smooth="yes"/>
      <point x="1171" y="590"/>
      <point x="1071" y="384"/>
      <point x="881" y="254"/>
      <point x="762" y="254" type="qcurve" smooth="yes"/>
      <point x="295" y="254" type="line"/>
      <point x="295" y="0" type="line"/>
      <point x="190" y="0" type="line"/>
      <point x="190" y="1454" type="line"/>
      <point x="295" y="1454" type="line"/>
      <point x="295" y="1159" type="line"/>
      <point x="750" y="1159" type="line" smooth="yes"/>
      <point x="868" y="1159"/>
      <point x="1065" y="1026"/>
      <point x="1171" y="819"/>
    </contour>
    <contour>
      <point x="1069" y="707" type="qcurve" smooth="yes"/>
      <point x="1069" y="849"/>
      <point x="877" y="1063"/>
      <point x="745" y="1063" type="qcurve" smooth="yes"/>
      <point x="295" y="1063" type="line"/>
      <point x="295" y="350" type="line"/>
      <point x="760" y="350" type="line" smooth="yes"/>
      <point x="851" y="350"/>
      <point x="996" y="455"/>
      <point x="1069" y="617"/>
    </contour>
  </outline>
</glyph>
<glyph name="germandbls" format="2">
  <advance width="1124"/>
  <unicode hex="00DF"/>
  <outline>
    <contour>
      <point x="481" y="82" type="line"/>
      <point x="696" y="87"/>
      <point x="936" y="262"/>
      <point x="936" y="426" type="qcurve" smooth="yes"/>
      <point x="936" y="581"/>
      <point x="729" y="772"/>
      <point x="563" y="772" type="qcurve" smooth="yes"/>
      <point x="528" y="772" type="line"/>
      <point x="528" y="868" type="line"/>
      <point x="561" y="868" type="line" smooth="yes"/>
      <point x="681" y="868"/>
      <point x="836" y="1010"/>
      <point x="836" y="1120" type="qcurve" smooth="yes"/>
      <point x="836" y="1233"/>
      <point x="675" y="1370"/>
      <point x="555" y="1370" type="qcurve" smooth="yes"/>
      <point x="417" y="1370"/>
      <point x="260" y="1184"/>
      <point x="260" y="1036" type="qcurve" smooth="yes"/>
      <point x="260" y="0" type="line"/>
      <point x="160" y="0" type="line"/>
      <point x="160" y="1051" type="line" smooth="yes"/>
      <point x="160" y="1233"/>
      <point x="383" y="1462"/>
      <point x="557" y="1462" type="qcurve" smooth="yes"/>
      <point x="719" y="1462"/>
      <point x="934" y="1278"/>
      <point x="934" y="1137" type="qcurve" smooth="yes"/>
      <point x="934" y="1027"/>
      <point x="802" y="847"/>
      <point x="707" y="825" type="qcurve"/>
      <point x="865" y="792"/>
      <point x="1040" y="577"/>
      <point x="1040" y="420" type="qcurve" smooth="yes"/>
      <point x="1040" y="220"/>
      <point x="744" y="-3"/>
      <point x="481" y="-12" type="qcurve"/>
    </contour>
  </outline>
</glyph>
<glyph name="agrave" format="2">
  <advance width="1099"/>
  <unicode hex="00E0"/>
  <anchor x="0" y="0" name="Anchor-11"/>
  <anchor x="0" y="0" name="Anchor-10"/>
  <anchor x="485" y="1495" name="Anchor-9"/>
  <anchor x="993" y="0" name="Anchor-8"/>
  <anchor x="578" y="0" name="Anchor-7"/>
  <outline>
    <contour>
      <point x="362" y="1495" type="line"/>
      <point x="479" y="1495" type="line"/>
      <point x="606" y="1321" type="line"/>
      <point x="537" y="1288" type="line"/>
    </contour>
    <contour>
      <point x="72" y="307" type="qcurve" smooth="yes"/>
      <point x="72" y="448"/>
      <point x="320" y="625"/>
      <point x="518" y="625" type="qcurve" smooth="yes"/>
      <point x="695" y="625"/>
      <point x="846" y="571" type="qcurve"/>
      <point x="846" y="672" type="line" smooth="yes"/>
      <point x="846" y="820"/>
      <point x="673" y="995"/>
      <point x="526" y="995" type="qcurve" smooth="yes"/>
      <point x="368" y="995"/>
      <point x="184" y="868" type="qcurve"/>
      <point x="141" y="942" type="line"/>
      <point x="351" y="1083"/>
      <point x="537" y="1083" type="qcurve" smooth="yes"/>
      <point x="727" y="1083"/>
      <point x="948" y="858"/>
      <point x="948" y="664" type="qcurve" smooth="yes"/>
      <point x="948" y="135" type="line" smooth="yes"/>
      <point x="948" y="87"/>
      <point x="993" y="84" type="qcurve"/>
      <point x="993" y="0" type="line"/>
      <point x="948" y="-3"/>
      <point x="942" y="-2" type="qcurve" smooth="yes"/>
      <point x="904" y="2"/>
      <point x="860" y="56"/>
      <point x="858" y="90" type="qcurve" smooth="yes"/>
      <point x="858" y="174" type="line"/>
      <point x="785" y="83"/>
      <point x="553" y="-20"/>
      <point x="426" y="-20" type="qcurve" smooth="yes"/>
      <point x="274" y="-20"/>
      <point x="72" y="168"/>
    </contour>
    <contour>
      <point x="805" y="219" type="qcurve" smooth="yes"/>
      <point x="846" y="269"/>
      <point x="846" y="315" type="qcurve" smooth="yes"/>
      <point x="846" y="492" type="line"/>
      <point x="703" y="549"/>
      <point x="528" y="549" type="qcurve" smooth="yes"/>
      <point x="366" y="549"/>
      <point x="170" y="420"/>
      <point x="170" y="313" type="qcurve" smooth="yes"/>
      <point x="170" y="209"/>
      <point x="325" y="61"/>
      <point x="446" y="61" type="qcurve" smooth="yes"/>
      <point x="559" y="61"/>
      <point x="753" y="148"/>
    </contour>
  </outline>
</glyph>
<glyph name="atilde" format="2">
  <advance width="1099"/>
  <unicode hex="00E3"/>
  <anchor x="0" y="0" name="Anchor-11"/>
  <anchor x="0" y="0" name="Anchor-10"/>
  <anchor x="535" y="1495" name="Anchor-9"/>
  <anchor x="993" y="0" name="Anchor-8"/>
  <anchor x="578" y="0" name="Anchor-7"/>
  <outline>
    <contour>
      <point x="397" y="1407" type="qcurve" smooth="yes"/>
      <point x="366" y="1407"/>
      <point x="321" y="1380"/>
      <point x="302" y="1342"/>
      <point x="295" y="1316"/>
      <point x="295" y="1309" type="qcurve"/>
      <point x="225" y="1309" type="line"/>
      <point x="225" y="1323"/>
      <point x="239" y="1370"/>
      <point x="272" y="1434"/>
      <point x="346" y="1479"/>
      <point x="397" y="1479" type="qcurve" smooth="yes"/>
      <point x="454" y="1479"/>
      <point x="607" y="1397"/>
      <point x="657" y="1397" type="qcurve" smooth="yes"/>
      <point x="688" y="1397"/>
      <point x="734" y="1416"/>
      <point x="757" y="1442"/>
      <point x="771" y="1473"/>
      <point x="774" y="1490"/>
      <point x="774" y="1495" type="qcurve"/>
      <point x="846" y="1495" type="line"/>
      <point x="846" y="1481"/>
      <point x="830" y="1433"/>
      <point x="794" y="1370"/>
      <point x="712" y="1325"/>
      <point x="657" y="1325" type="qcurve" smooth="yes"/>
      <point x="605" y="1325"/>
      <point x="511" y="1366"/>
      <point x="432" y="1407"/>
    </contour>
    <contour>
      <point x="72" y="307" type="qcurve" smooth="yes"/>
      <point x="72" y="448"/>
      <point x="320" y="625"/>
      <point x="518" y="625" type="qcurve" smooth="yes"/>
      <point x="695" y="625"/>
      <point x="846" y="571" type="qcurve"/>
      <point x="846" y="672" type="line" smooth="yes"/>
      <point x="846" y="820"/>
      <point x="673" y="995"/>
      <point x="526" y="995" type="qcurve" smooth="yes"/>
      <point x="368" y="995"/>
      <point x="184" y="868" type="qcurve"/>
      <point x="141" y="942" type="line"/>
      <point x="351" y="1083"/>
      <point x="537" y="1083" type="qcurve" smooth="yes"/>
      <point x="727" y="1083"/>
      <point x="948" y="858"/>
      <point x="948" y="664" type="qcurve" smooth="yes"/>
      <point x="948" y="135" type="line" smooth="yes"/>
      <point x="948" y="87"/>
      <point x="993" y="84" type="qcurve"/>
      <point x="993" y="0" type="line"/>
      <point x="948" y="-3"/>
      <point x="942" y="-2" type="qcurve" smooth="yes"/>
      <point x="904" y="2"/>
      <point x="860" y="56"/>
      <point x="858" y="90" type="qcurve" smooth="yes"/>
      <point x="858" y="174" type="line"/>
      <point x="785" y="83"/>
      <point x="553" y="-20"/>
      <point x="426" y="-20" type="qcurve" smooth="yes"/>
      <point x="274" y="-20"/>
      <point x="72" y="168"/>
    </contour>
    <contour>
      <point x="805" y="219" type="qcurve" smooth="yes"/>
      <point x="846" y="269"/>
      <point x="846" y="315" type="qcurve" smooth="yes"/>
      <point x="846" y="492" type="line"/>
      <point x="703" y="549"/>
      <point x="528" y="549" type="qcurve" smooth="yes"/>
      <point x="366" y="549"/>
      <point x="170" y="420"/>
      <point x="170" y="313" type="qcurve" smooth="yes"/>
      <point x="170" y="209"/>
      <point x="325" y="61"/>
      <point x="446" y="61" type="qcurve" smooth="yes"/>
      <point x="559" y="61"/>
      <point x="753" y="148"/>
    </contour>
  </outline>
</glyph>
<glyph name="aring" format="2">
  <advance width="1099"/>
  <unicode hex="00E5"/>
  <anchor x="0" y="0" name="Anchor-11"/>
  <anchor x="0" y="0" name="Anchor-10"/>
  <anchor x="532" y="1516" name="Anchor-9"/>
  <anchor x="993" y="0" name="Anchor-8"/>
  <anchor x="578" y="0" name="Anchor-7"/>
  <outline>
    <contour>
      <point x="609" y="1546"/>
      <point x="707" y="1452"/>
      <point x="707" y="1380" type="qcurve" smooth="yes"/>
      <point x="707" y="1310"/>
      <point x="609" y="1217"/>
      <point x="461" y="1217"/>
      <point x="362" y="1310"/>
      <point x="362" y="1380" type="qcurve" smooth="yes"/>
      <point x="362" y="1452"/>
      <point x="461" y="1546"/>
    </contour>
    <contour>
      <point x="430" y="1380" type="qcurve" smooth="yes"/>
      <point x="430" y="1336"/>
      <point x="491" y="1276"/>
      <point x="535" y="1276" type="qcurve" smooth="yes"/>
      <point x="576" y="1276"/>
      <point x="639" y="1336"/>
      <point x="639" y="1380" type="qcurve" smooth="yes"/>
      <point x="639" y="1428"/>
      <point x="579" y="1485"/>
      <point x="491" y="1485"/>
      <point x="430" y="1428"/>
    </contour>
    <contour>
      <point x="72" y="307" type="qcurve" smooth="yes"/>
      <point x="72" y="448"/>
      <point x="320" y="625"/>
      <point x="518" y="625" type="qcurve" smooth="yes"/>
      <point x="695" y="625"/>
      <point x="846" y="571" type="qcurve"/>
      <point x="846" y="672" type="line" smooth="yes"/>
      <point x="846" y="820"/>
      <point x="673" y="995"/>
      <point x="526" y="995" type="qcurve" smooth="yes"/>
      <point x="368" y="995"/>
      <point x="184" y="868" type="qcurve"/>
      <point x="141" y="942" type="line"/>
      <point x="351" y="1083"/>
      <point x="537" y="1083" type="qcurve" smooth="yes"/>
      <point x="727" y="1083"/>
      <point x="948" y="858"/>
      <point x="948" y="664" type="qcurve" smooth="yes"/>
      <point x="948" y="135" type="line" smooth="yes"/>
      <point x="948" y="87"/>
      <point x="993" y="84" type="qcurve"/>
      <point x="993" y="0" type="line"/>
      <point x="948" y="-3"/>
      <point x="942" y="-2" type="qcurve" smooth="yes"/>
      <point x="904" y="2"/>
      <point x="860" y="56"/>
      <point x="858" y="90" type="qcurve" smooth="yes"/>
      <point x="858" y="174" type="line"/>
      <point x="785" y="83"/>
      <point x="553" y="-20"/>
      <point x="426" y="-20" type="qcurve" smooth="yes"/>
      <point x="274" y="-20"/>
      <point x="72" y="168"/>
    </contour>
    <contour>
      <point x="805" y="219" type="qcurve" smooth="yes"/>
      <point x="846" y="269"/>
      <point x="846" y="315" type="qcurve" smooth="yes"/>
      <point x="846" y="492" type="line"/>
      <point x="703" y="549"/>
      <point x="528" y="549" type="qcurve" smooth="yes"/>
      <point x="366" y="549"/>
      <point x="170" y="420"/>
      <point x="170" y="313" type="qcurve" smooth="yes"/>
      <point x="170" y="209"/>
      <point x="325" y="61"/>
      <point x="446" y="61" type="qcurve" smooth="yes"/>
      <point x="559" y="61"/>
      <point x="753" y="148"/>
    </contour>
  </outline>
</glyph>
<glyph name="ccedilla" format="2">
  <advance width="1116"/>
  <unicode hex="00E7"/>
  <anchor x="0" y="0" name="Anchor-11"/>
  <anchor x="0" y="0" name="Anchor-10"/>
  <anchor x="606" y="1065" name="Anchor-9"/>
  <anchor x="0" y="0" name="Anchor-8"/>
  <anchor x="612" y="0" name="Anchor-7"/>
  <outline>
    <contour>
      <point x="1044" y="240" type="line"/>
      <point x="1009" y="144"/>
      <point x="818" y="6"/>
      <point x="694" y="-14" type="qcurve"/>
      <point x="799" y="-89"/>
      <point x="799" y="-190" type="qcurve" smooth="yes"/>
      <point x="799" y="-270"/>
      <point x="687" y="-356"/>
      <point x="592" y="-356" type="qcurve" smooth="yes"/>
      <point x="470" y="-356"/>
      <point x="360" y="-301" type="qcurve"/>
      <point x="395" y="-238" type="line"/>
      <point x="491" y="-285"/>
      <point x="573" y="-285" type="qcurve" smooth="yes"/>
      <point x="725" y="-285"/>
      <point x="725" y="-176" type="qcurve" smooth="yes"/>
      <point x="725" y="-90"/>
      <point x="610" y="-20" type="qcurve"/>
      <point x="465" y="-20"/>
      <point x="223" y="131"/>
      <point x="86" y="387"/>
      <point x="86" y="687"/>
      <point x="219" y="937"/>
      <point x="461" y="1083"/>
      <point x="610" y="1083" type="qcurve" smooth="yes"/>
      <point x="754" y="1083"/>
      <point x="976" y="952"/>
      <point x="1032" y="836" type="qcurve"/>
      <point x="932" y="803" type="line"/>
      <point x="885" y="891"/>
      <point x="710" y="991"/>
      <point x="606" y="991" type="qcurve" smooth="yes"/>
      <point x="430" y="991"/>
      <point x="188" y="730"/>
      <point x="188" y="537" type="qcurve" smooth="yes"/>
      <point x="188" y="345"/>
      <point x="436" y="72"/>
      <point x="608" y="72" type="qcurve" smooth="yes"/>
      <point x="718" y="72"/>
      <point x="919" y="190"/>
      <point x="944" y="268" type="qcurve"/>
    </contour>
  </outline>
</glyph>
<glyph name="eacute" format="2">
  <advance width="1193"/>
  <unicode hex="00E9"/>
  <anchor x="0" y="0" name="Anchor-11"/>
  <anchor x="0" y="0" name="Anchor-10"/>
  <anchor x="690" y="1495" name="Anchor-9"/>
  <anchor x="752" y="0" name="Anchor-8"/>
  <anchor x="610" y="0" name="Anchor-7"/>
  <outline>
    <contour>
      <point x="639" y="1288" type="line"/>
      <point x="567" y="1321" type="line"/>
      <point x="692" y="1495" type="line"/>
      <point x="811" y="1495" type="line"/>
    </contour>
    <contour>
      <point x="612" y="-20" type="qcurve" smooth="yes"/>
      <point x="466" y="-20"/>
      <point x="223" y="131"/>
      <point x="86" y="387"/>
      <point x="86" y="537" type="qcurve" smooth="yes"/>
      <point x="86" y="686"/>
      <point x="221" y="936"/>
      <point x="460" y="1083"/>
      <point x="606" y="1083" type="qcurve" smooth="yes"/>
      <point x="753" y="1083"/>
      <point x="994" y="934"/>
      <point x="1128" y="684"/>
      <point x="1128" y="537" type="qcurve" smooth="yes"/>
      <point x="1128" y="502"/>
      <point x="1126" y="492" type="qcurve"/>
      <point x="193" y="492" type="line"/>
      <point x="206" y="308"/>
      <point x="450" y="61"/>
      <point x="616" y="61" type="qcurve" smooth="yes"/>
      <point x="727" y="61"/>
      <point x="924" y="176"/>
      <point x="963" y="266" type="qcurve"/>
      <point x="1053" y="242" type="line"/>
      <point x="1007" y="128"/>
      <point x="759" y="-20"/>
    </contour>
    <contour>
      <point x="188" y="571" type="qcurve"/>
      <point x="1030" y="571" type="line"/>
      <point x="1017" y="758"/>
      <point x="777" y="999"/>
      <point x="608" y="999" type="qcurve" smooth="yes"/>
      <point x="438" y="999"/>
      <point x="198" y="756"/>
    </contour>
  </outline>
</glyph>
<glyph name="iacute" format="2">
  <advance width="423"/>
  <unicode hex="00ED"/>
  <anchor x="0" y="0" name="Anchor-11"/>
  <anchor x="0" y="0" name="Anchor-10"/>
  <anchor x="297" y="1495" name="Anchor-9"/>
  <anchor x="0" y="0" name="Anchor-8"/>
  <anchor x="0" y="0" name="Anchor-7"/>
  <outline>
    <contour>
      <point x="246" y="1288" type="line"/>
      <point x="174" y="1321" type="line"/>
      <point x="299" y="1495" type="line"/>
      <point x="418" y="1495" type="line"/>
    </contour>
    <contour>
      <point x="160" y="0" type="line"/>
      <point x="160" y="1065" type="line"/>
      <point x="262" y="1065" type="line"/>
      <point x="262" y="0" type="line"/>
    </contour>
  </outline>
</glyph>
<glyph name="icircumflex" format="2">
  <advance width="423"/>
  <unicode hex="00EE"/>
  <anchor x="0" y="0" name="Anchor-11"/>
  <anchor x="0" y="0" name="Anchor-10"/>
  <anchor x="211" y="1495" name="Anchor-9"/>
  <anchor x="0" y="0" name="Anchor-8"/>
  <anchor x="0" y="0" name="Anchor-7"/>
  <outline>
    <contour>
      <point x="-25" y="1329" type="line"/>
      <point x="172" y="1495" type="line"/>
      <point x="248" y="1495" type="line"/>
      <point x="446" y="1329" type="line"/>
      <point x="385" y="1294" type="line"/>
      <point x="211" y="1423" type="line"/>
      <point x="37" y="1294" type="line"/>
    </contour>
    <contour>
      <point x="160" y="0" type="line"/>
      <point x="160" y="1065" type="line"/>
      <point x="262" y="1065" type="line"/>
      <point x="262" y="0" type="line"/>
    </contour>
  </outline>
</glyph>
<glyph name="idieresis" format="2">
  <advance width="423"/>
  <unicode hex="00EF"/>
  <anchor x="0" y="0" name="Anchor-11"/>
  <anchor x="0" y="0" name="Anchor-10"/>
  <anchor x="211" y="1475" name="Anchor-9"/>
  <anchor x="0" y="0" name="Anchor-8"/>
  <anchor x="0" y="0" name="Anchor-7"/>
  <outline>
    <contour>
      <point x="27" y="1311" type="line"/>
      <point x="27" y="1491" type="line"/>
      <point x="117" y="1491" type="line"/>
      <point x="117" y="1311" type="line"/>
    </contour>
    <contour>
      <point x="305" y="1311" type="line"/>
      <point x="305" y="1491" type="line"/>
      <point x="395" y="1491" type="line"/>
      <point x="395" y="1311" type="line"/>
    </contour>
    <contour>
      <point x="160" y="0" type="line"/>
      <point x="160" y="1065" type="line"/>
      <point x="262" y="1065" type="line"/>
      <point x="262" y="0" type="line"/>
    </contour>
  </outline>
</glyph>
<glyph name="eth" format="2">
  <advance width="1226"/>
  <unicode hex="00F0"/>
  <outline>
    <contour>
      <point x="819" y="1300" type="line"/>
      <point x="995" y="1132"/>
      <point x="1133" y="756"/>
      <point x="1133" y="543" type="qcurve" smooth="yes"/>
      <point x="1133" y="423"/>
      <point x="1049" y="212"/>
      <point x="906" y="65"/>
      <point x="712" y="-20"/>
      <point x="606" y="-20" type="qcurve" smooth="yes"/>
      <point x="393" y="-20"/>
      <point x="90" y="271"/>
      <point x="90" y="475" type="qcurve" smooth="yes"/>
      <point x="90" y="608"/>
      <point x="226" y="837"/>
      <point x="458" y="971"/>
      <point x="594" y="971" type="qcurve" smooth="yes"/>
      <point x="737" y="971"/>
      <point x="972" y="828"/>
      <point x="1028" y="711" type="qcurve"/>
      <point x="1007" y="864"/>
      <point x="879" y="1130"/>
      <point x="743" y="1257" type="qcurve"/>
      <point x="504" y="1106" type="line"/>
      <point x="467" y="1157" type="line"/>
      <point x="696" y="1300" type="line"/>
      <point x="570" y="1404"/>
      <point x="412" y="1495" type="qcurve"/>
      <point x="557" y="1495" type="line"/>
      <point x="678" y="1424"/>
      <point x="774" y="1341" type="qcurve"/>
      <point x="961" y="1460" type="line"/>
      <point x="995" y="1411" type="line"/>
    </contour>
    <contour>
      <point x="780" y="72"/>
      <point x="1028" y="325"/>
      <point x="1028" y="498" type="qcurve" smooth="yes"/>
      <point x="1028" y="657"/>
      <point x="783" y="883"/>
      <point x="612" y="883" type="qcurve" smooth="yes"/>
      <point x="440" y="883"/>
      <point x="195" y="642"/>
      <point x="195" y="473" type="qcurve" smooth="yes"/>
      <point x="195" y="307"/>
      <point x="436" y="72"/>
    </contour>
  </outline>
</glyph>
<glyph name="ntilde" format="2">
  <advance width="1179"/>
  <unicode hex="00F1"/>
  <anchor x="0" y="0" name="Anchor-11"/>
  <anchor x="0" y="0" name="Anchor-10"/>
  <anchor x="594" y="1495" name="Anchor-9"/>
  <anchor x="0" y="0" name="Anchor-8"/>
  <anchor x="586" y="0" name="Anchor-7"/>
  <outline>
    <contour>
      <point x="457" y="1407" type="qcurve" smooth="yes"/>
      <point x="426" y="1407"/>
      <point x="381" y="1380"/>
      <point x="362" y="1342"/>
      <point x="354" y="1316"/>
      <point x="354" y="1309" type="qcurve"/>
      <point x="285" y="1309" type="line"/>
      <point x="285" y="1323"/>
      <point x="299" y="1370"/>
      <point x="332" y="1434"/>
      <point x="406" y="1479"/>
      <point x="457" y="1479" type="qcurve" smooth="yes"/>
      <point x="514" y="1479"/>
      <point x="667" y="1397"/>
      <point x="717" y="1397" type="qcurve" smooth="yes"/>
      <point x="748" y="1397"/>
      <point x="794" y="1416"/>
      <point x="817" y="1442"/>
      <point x="831" y="1473"/>
      <point x="834" y="1490"/>
      <point x="834" y="1495" type="qcurve"/>
      <point x="905" y="1495" type="line"/>
      <point x="905" y="1485"/>
      <point x="897" y="1450"/>
      <point x="872" y="1399"/>
      <point x="833" y="1356"/>
      <point x="762" y="1325"/>
      <point x="717" y="1325" type="qcurve" smooth="yes"/>
      <point x="665" y="1325"/>
      <point x="571" y="1366"/>
      <point x="492" y="1407"/>
    </contour>
    <contour>
      <point x="1030" y="0" type="line"/>
      <point x="928" y="0" type="line"/>
      <point x="928" y="594" type="line" smooth="yes"/>
      <point x="928" y="799"/>
      <point x="810" y="989"/>
      <point x="684" y="989" type="qcurve" smooth="yes"/>
      <point x="548" y="989"/>
      <point x="303" y="799"/>
      <point x="262" y="659" type="qcurve"/>
      <point x="262" y="0" type="line"/>
      <point x="160" y="0" type="line"/>
      <point x="160" y="1065" type="line"/>
      <point x="256" y="1065" type="line"/>
      <point x="256" y="811" type="line"/>
      <point x="321" y="933"/>
      <point x="572" y="1083"/>
      <point x="713" y="1083" type="qcurve" smooth="yes"/>
      <point x="881" y="1083"/>
      <point x="1030" y="846"/>
      <point x="1030" y="612" type="qcurve" smooth="yes"/>
    </contour>
  </outline>
</glyph>
<glyph name="divide" format="2">
  <advance width="1105"/>
  <unicode hex="00F7"/>
  <outline>
    <contour>
      <point x="508" y="807" type="line"/>
      <point x="508" y="973" type="line"/>
      <point x="598" y="973" type="line"/>
      <point x="598" y="807" type="line"/>
    </contour>
    <contour>
      <point x="141" y="526" type="line"/>
      <point x="141" y="614" type="line"/>
      <point x="967" y="614" type="line"/>
      <point x="967" y="526" type="line"/>
    </contour>
    <contour>
      <point x="508" y="166" type="line"/>
      <point x="508" y="330" type="line"/>
      <point x="598" y="330" type="line"/>
      <point x="598" y="166" type="line"/>
    </contour>
  </outline>
</glyph>
<glyph name="oslash" format="2">
  <advance width="1212"/>
  <unicode hex="00F8"/>
  <outline>
    <contour>
      <point x="936" y="958" type="line"/>
      <point x="1025" y="881"/>
      <point x="1126" y="656"/>
      <point x="1126" y="530" type="qcurve" smooth="yes"/>
      <point x="1126" y="383"/>
      <point x="991" y="131"/>
      <point x="751" y="-20"/>
      <point x="461" y="-20"/>
      <point x="338" y="57" type="qcurve"/>
      <point x="295" y="-2" type="line"/>
      <point x="199" y="-2" type="line"/>
      <point x="276" y="102" type="line"/>
      <point x="186" y="179"/>
      <point x="86" y="403"/>
      <point x="86" y="530" type="qcurve" smooth="yes"/>
      <point x="86" y="641"/>
      <point x="166" y="844"/>
      <point x="304" y="994"/>
      <point x="498" y="1083"/>
      <point x="606" y="1083" type="qcurve" smooth="yes"/>
      <point x="749" y="1083"/>
      <point x="872" y="1006" type="qcurve"/>
      <point x="915" y="1067" type="line"/>
      <point x="1014" y="1067" type="line"/>
    </contour>
    <contour>
      <point x="188" y="526" type="qcurve" smooth="yes"/>
      <point x="188" y="424"/>
      <point x="267" y="242"/>
      <point x="336" y="178" type="qcurve"/>
      <point x="815" y="928" type="line"/>
      <point x="721" y="991"/>
      <point x="606" y="991" type="qcurve" smooth="yes"/>
      <point x="436" y="991"/>
      <point x="188" y="716"/>
    </contour>
    <contour>
      <point x="604" y="72" type="qcurve" smooth="yes"/>
      <point x="776" y="72"/>
      <point x="1022" y="342"/>
      <point x="1022" y="532" type="qcurve" smooth="yes"/>
      <point x="1022" y="633"/>
      <point x="944" y="815"/>
      <point x="877" y="879" type="qcurve"/>
      <point x="395" y="133" type="line"/>
      <point x="490" y="72"/>
    </contour>
  </outline>
</glyph>
<glyph name="ugrave" format="2">
  <advance width="1202"/>
  <unicode hex="00F9"/>
  <anchor x="1114" y="963" name="Anchor-11"/>
  <anchor x="0" y="0" name="Anchor-10"/>
  <anchor x="539" y="1495" name="Anchor-9"/>
  <anchor x="1079" y="0" name="Anchor-8"/>
  <anchor x="600" y="6" name="Anchor-7"/>
  <outline>
    <contour>
      <point x="416" y="1495" type="line"/>
      <point x="532" y="1495" type="line"/>
      <point x="659" y="1321" type="line"/>
      <point x="590" y="1288" type="line"/>
    </contour>
    <contour>
      <point x="150" y="451" type="qcurve" smooth="yes"/>
      <point x="150" y="1065" type="line"/>
      <point x="252" y="1065" type="line"/>
      <point x="252" y="465" type="line" smooth="yes"/>
      <point x="252" y="72"/>
      <point x="520" y="72" type="qcurve" smooth="yes"/>
      <point x="655" y="72"/>
      <point x="887" y="250"/>
      <point x="934" y="393" type="qcurve"/>
      <point x="934" y="1065" type="line"/>
      <point x="1036" y="1065" type="line"/>
      <point x="1036" y="135" type="line" smooth="yes"/>
      <point x="1036" y="87"/>
      <point x="1079" y="84" type="qcurve"/>
      <point x="1079" y="0" type="line"/>
      <point x="1044" y="-3"/>
      <point x="1028" y="0" type="qcurve" smooth="yes"/>
      <point x="994" y="5"/>
      <point x="947" y="57"/>
      <point x="946" y="92" type="qcurve" smooth="yes"/>
      <point x="944" y="252" type="line"/>
      <point x="875" y="125"/>
      <point x="631" y="-20"/>
      <point x="489" y="-20" type="qcurve" smooth="yes"/>
      <point x="322" y="-20"/>
      <point x="150" y="218"/>
    </contour>
  </outline>
</glyph>
<glyph name="thorn" format="2">
  <advance width="1234"/>
  <unicode hex="00FE"/>
  <outline>
    <contour>
      <point x="631" y="-29" type="qcurve" smooth="yes"/>
      <point x="518" y="-29"/>
      <point x="319" y="89"/>
      <point x="264" y="178" type="qcurve"/>
      <point x="264" y="-436" type="line"/>
      <point x="160" y="-436" type="line"/>
      <point x="160" y="1454" type="line"/>
      <point x="264" y="1454" type="line"/>
      <point x="264" y="862" type="line"/>
      <point x="425" y="1085"/>
      <point x="649" y="1085" type="qcurve" smooth="yes"/>
      <point x="740" y="1085"/>
      <point x="902" y="1020"/>
      <point x="1021" y="910"/>
      <point x="1107" y="767"/>
      <point x="1151" y="608"/>
      <point x="1151" y="528" type="qcurve" smooth="yes"/>
      <point x="1149" y="419"/>
      <point x="1067" y="216"/>
      <point x="930" y="63"/>
      <point x="737" y="-29"/>
    </contour>
    <contour>
      <point x="645" y="991" type="qcurve" smooth="yes"/>
      <point x="520" y="991"/>
      <point x="323" y="837"/>
      <point x="264" y="719" type="qcurve"/>
      <point x="264" y="350" type="line" smooth="yes"/>
      <point x="264" y="280"/>
      <point x="384" y="146"/>
      <point x="554" y="68"/>
      <point x="629" y="68" type="qcurve" smooth="yes"/>
      <point x="718" y="68"/>
      <point x="876" y="146"/>
      <point x="984" y="275"/>
      <point x="1047" y="441"/>
      <point x="1047" y="528" type="qcurve" smooth="yes"/>
      <point x="1047" y="649"/>
      <point x="948" y="859"/>
      <point x="761" y="991"/>
    </contour>
  </outline>
</glyph>
<glyph name="Aogonek" format="2">
  <advance width="1382"/>
  <unicode hex="0104"/>
  <anchor x="0" y="0" name="Anchor-11"/>
  <anchor x="0" y="0" name="Anchor-10"/>
  <anchor x="692" y="1448" name="Anchor-9"/>
  <anchor x="1352" y="0" name="Anchor-8"/>
  <anchor x="711" y="0" name="Anchor-7"/>
  <outline>
    <contour>
      <point x="1194" y="-197" type="qcurve" smooth="yes"/>
      <point x="1194" y="-236"/>
      <point x="1265" y="-277"/>
      <point x="1346" y="-289" type="qcurve"/>
      <point x="1315" y="-358" type="line"/>
      <point x="1116" y="-335"/>
      <point x="1116" y="-211" type="qcurve" smooth="yes"/>
      <point x="1116" y="-110"/>
      <point x="1253" y="0" type="qcurve"/>
      <point x="1241" y="0" type="line"/>
      <point x="1038" y="479" type="line"/>
      <point x="344" y="479" type="line"/>
      <point x="141" y="0" type="line"/>
      <point x="29" y="0" type="line"/>
      <point x="647" y="1454" type="line"/>
      <point x="737" y="1454" type="line"/>
      <point x="1352" y="0" type="line"/>
      <point x="1267" y="-65"/>
      <point x="1194" y="-156"/>
    </contour>
    <contour>
      <point x="369" y="565" type="line"/>
      <point x="1010" y="565" type="line"/>
      <point x="692" y="1327" type="line"/>
    </contour>
  </outline>
</glyph>
<glyph name="aogonek" format="2">
  <advance width="1099"/>
  <unicode hex="0105"/>
  <anchor x="0" y="0" name="Anchor-11"/>
  <anchor x="0" y="0" name="Anchor-10"/>
  <anchor x="535" y="1065" name="Anchor-9"/>
  <anchor x="993" y="0" name="Anchor-8"/>
  <anchor x="578" y="0" name="Anchor-7"/>
  <outline>
    <contour>
      <point x="993" y="0" type="line"/>
      <point x="909" y="-64"/>
      <point x="836" y="-156"/>
      <point x="836" y="-197" type="qcurve" smooth="yes"/>
      <point x="836" y="-236"/>
      <point x="906" y="-277"/>
      <point x="987" y="-289" type="qcurve"/>
      <point x="956" y="-358" type="line"/>
      <point x="846" y="-345"/>
      <point x="758" y="-269"/>
      <point x="758" y="-211" type="qcurve" smooth="yes"/>
      <point x="758" y="-105"/>
      <point x="907" y="8" type="qcurve"/>
      <point x="862" y="31"/>
      <point x="858" y="90" type="qcurve"/>
      <point x="858" y="174" type="line"/>
      <point x="785" y="83"/>
      <point x="553" y="-20"/>
      <point x="426" y="-20" type="qcurve" smooth="yes"/>
      <point x="274" y="-20"/>
      <point x="72" y="168"/>
      <point x="72" y="307" type="qcurve" smooth="yes"/>
      <point x="72" y="448"/>
      <point x="320" y="625"/>
      <point x="518" y="625" type="qcurve" smooth="yes"/>
      <point x="695" y="625"/>
      <point x="846" y="571" type="qcurve"/>
      <point x="846" y="672" type="line" smooth="yes"/>
      <point x="846" y="820"/>
      <point x="673" y="995"/>
      <point x="526" y="995" type="qcurve" smooth="yes"/>
      <point x="368" y="995"/>
      <point x="184" y="868" type="qcurve"/>
      <point x="141" y="942" type="line"/>
      <point x="351" y="1083"/>
      <point x="537" y="1083" type="qcurve" smooth="yes"/>
      <point x="727" y="1083"/>
      <point x="948" y="858"/>
      <point x="948" y="664" type="qcurve" smooth="yes"/>
      <point x="948" y="135" type="line" smooth="yes"/>
      <point x="948" y="87"/>
      <point x="993" y="84" type="qcurve"/>
    </contour>
    <contour>
      <point x="846" y="315" type="qcurve" smooth="yes"/>
      <point x="846" y="492" type="line"/>
      <point x="703" y="549"/>
      <point x="528" y="549" type="qcurve" smooth="yes"/>
      <point x="366" y="549"/>
      <point x="170" y="420"/>
      <point x="170" y="313" type="qcurve" smooth="yes"/>
      <point x="170" y="209"/>
      <point x="325" y="61"/>
      <point x="446" y="61" type="qcurve" smooth="yes"/>
      <point x="559" y="61"/>
      <point x="753" y="148"/>
      <point x="805" y="219" type="qcurve" smooth="yes"/>
      <point x="846" y="269"/>
    </contour>
  </outline>
</glyph>
<glyph name="Cacute" format="2">
  <advance width="1413"/>
  <unicode hex="0106"/>
  <anchor x="0" y="0" name="Anchor-11"/>
  <anchor x="0" y="0" name="Anchor-10"/>
  <anchor x="862" y="1878" name="Anchor-9"/>
  <anchor x="0" y="0" name="Anchor-8"/>
  <anchor x="772" y="0" name="Anchor-7"/>
  <outline>
    <contour>
      <point x="811" y="1671" type="line"/>
      <point x="739" y="1704" type="line"/>
      <point x="864" y="1878" type="line"/>
      <point x="983" y="1878" type="line"/>
    </contour>
    <contour>
      <point x="778" y="1462" type="qcurve" smooth="yes"/>
      <point x="965" y="1462"/>
      <point x="1245" y="1289"/>
      <point x="1315" y="1145" type="qcurve"/>
      <point x="1229" y="1096" type="line"/>
      <point x="1180" y="1192"/>
      <point x="1024" y="1317"/>
      <point x="861" y="1366"/>
      <point x="770" y="1366" type="qcurve" smooth="yes"/>
      <point x="637" y="1366"/>
      <point x="414" y="1254"/>
      <point x="273" y="1072"/>
      <point x="195" y="848"/>
      <point x="195" y="731" type="qcurve" smooth="yes"/>
      <point x="195" y="561"/>
      <point x="347" y="264"/>
      <point x="616" y="84"/>
      <point x="776" y="84" type="qcurve" smooth="yes"/>
      <point x="868" y="84"/>
      <point x="1044" y="141"/>
      <point x="1207" y="274"/>
      <point x="1255" y="369" type="qcurve"/>
      <point x="1346" y="326" type="line"/>
      <point x="1300" y="221"/>
      <point x="1108" y="64"/>
      <point x="882" y="-12"/>
      <point x="768" y="-12" type="qcurve" smooth="yes"/>
      <point x="624" y="-12"/>
      <point x="367" y="118"/>
      <point x="192" y="330"/>
      <point x="90" y="599"/>
      <point x="90" y="737" type="qcurve" smooth="yes"/>
      <point x="90" y="870"/>
      <point x="184" y="1127"/>
      <point x="355" y="1334"/>
      <point x="621" y="1462"/>
    </contour>
  </outline>
</glyph>
<glyph name="cacute" format="2">
  <advance width="1116"/>
  <unicode hex="0107"/>
  <anchor x="0" y="0" name="Anchor-11"/>
  <anchor x="0" y="0" name="Anchor-10"/>
  <anchor x="692" y="1495" name="Anchor-9"/>
  <anchor x="0" y="0" name="Anchor-8"/>
  <anchor x="612" y="0" name="Anchor-7"/>
  <outline>
    <contour>
      <point x="641" y="1288" type="line"/>
      <point x="569" y="1321" type="line"/>
      <point x="694" y="1495" type="line"/>
      <point x="813" y="1495" type="line"/>
    </contour>
    <contour>
      <point x="612" y="-20" type="qcurve" smooth="yes"/>
      <point x="466" y="-20"/>
      <point x="223" y="131"/>
      <point x="86" y="387"/>
      <point x="86" y="687"/>
      <point x="219" y="937"/>
      <point x="461" y="1083"/>
      <point x="610" y="1083" type="qcurve" smooth="yes"/>
      <point x="754" y="1083"/>
      <point x="976" y="952"/>
      <point x="1032" y="836" type="qcurve"/>
      <point x="932" y="803" type="line"/>
      <point x="885" y="891"/>
      <point x="710" y="991"/>
      <point x="606" y="991" type="qcurve" smooth="yes"/>
      <point x="430" y="991"/>
      <point x="188" y="730"/>
      <point x="188" y="537" type="qcurve" smooth="yes"/>
      <point x="188" y="345"/>
      <point x="436" y="72"/>
      <point x="608" y="72" type="qcurve" smooth="yes"/>
      <point x="718" y="72"/>
      <point x="919" y="190"/>
      <point x="944" y="268" type="qcurve"/>
      <point x="1044" y="240" type="line"/>
      <point x="1003" y="127"/>
      <point x="760" y="-20"/>
    </contour>
  </outline>
</glyph>
<glyph name="Ebreve" format="2">
  <advance width="1253"/>
  <unicode hex="0114"/>
  <anchor x="0" y="0" name="Anchor-11"/>
  <anchor x="0" y="0" name="Anchor-10"/>
  <anchor x="696" y="1790" name="Anchor-9"/>
  <anchor x="1159" y="0" name="Anchor-8"/>
  <anchor x="696" y="0" name="Anchor-7"/>
  <outline>
    <contour>
      <point x="811" y="1878" type="qcurve"/>
      <point x="879" y="1878" type="line"/>
      <point x="879" y="1801"/>
      <point x="770" y="1690"/>
      <point x="696" y="1690" type="qcurve" smooth="yes"/>
      <point x="621" y="1690"/>
      <point x="514" y="1800"/>
      <point x="514" y="1878" type="qcurve"/>
      <point x="582" y="1878" type="line"/>
      <point x="582" y="1827"/>
      <point x="652" y="1747"/>
      <point x="696" y="1747" type="qcurve" smooth="yes"/>
      <point x="738" y="1747"/>
      <point x="805" y="1823"/>
    </contour>
    <contour>
      <point x="1159" y="94" type="line"/>
      <point x="1159" y="0" type="line"/>
      <point x="190" y="0" type="line"/>
      <point x="190" y="1454" type="line"/>
      <point x="1141" y="1454" type="line"/>
      <point x="1141" y="1360" type="line"/>
      <point x="295" y="1360" type="line"/>
      <point x="295" y="788" type="line"/>
      <point x="1034" y="788" type="line"/>
      <point x="1034" y="698" type="line"/>
      <point x="295" y="698" type="line"/>
      <point x="295" y="94" type="line"/>
    </contour>
  </outline>
</glyph>
<glyph name="ebreve" format="2">
  <advance width="1193"/>
  <unicode hex="0115"/>
  <anchor x="0" y="0" name="Anchor-11"/>
  <anchor x="0" y="0" name="Anchor-10"/>
  <anchor x="604" y="1407" name="Anchor-9"/>
  <anchor x="752" y="0" name="Anchor-8"/>
  <anchor x="610" y="0" name="Anchor-7"/>
  <outline>
    <contour>
      <point x="719" y="1495" type="qcurve"/>
      <point x="786" y="1495" type="line"/>
      <point x="786" y="1417"/>
      <point x="678" y="1307"/>
      <point x="604" y="1307" type="qcurve" smooth="yes"/>
      <point x="529" y="1307"/>
      <point x="422" y="1417"/>
      <point x="422" y="1495" type="qcurve"/>
      <point x="489" y="1495" type="line"/>
      <point x="489" y="1444"/>
      <point x="560" y="1364"/>
      <point x="604" y="1364" type="qcurve" smooth="yes"/>
      <point x="646" y="1364"/>
      <point x="713" y="1440"/>
    </contour>
    <contour>
      <point x="612" y="-20" type="qcurve" smooth="yes"/>
      <point x="466" y="-20"/>
      <point x="223" y="131"/>
      <point x="86" y="387"/>
      <point x="86" y="537" type="qcurve" smooth="yes"/>
      <point x="86" y="686"/>
      <point x="221" y="936"/>
      <point x="460" y="1083"/>
      <point x="606" y="1083" type="qcurve" smooth="yes"/>
      <point x="753" y="1083"/>
      <point x="994" y="934"/>
      <point x="1128" y="684"/>
      <point x="1128" y="537" type="qcurve" smooth="yes"/>
      <point x="1128" y="502"/>
      <point x="1126" y="492" type="qcurve"/>
      <point x="193" y="492" type="line"/>
      <point x="206" y="308"/>
      <point x="450" y="61"/>
      <point x="616" y="61" type="qcurve" smooth="yes"/>
      <point x="727" y="61"/>
      <point x="924" y="176"/>
      <point x="963" y="266" type="qcurve"/>
      <point x="1053" y="242" type="line"/>
      <point x="1007" y="128"/>
      <point x="759" y="-20"/>
    </contour>
    <contour>
      <point x="188" y="571" type="qcurve"/>
      <point x="1030" y="571" type="line"/>
      <point x="1017" y="758"/>
      <point x="777" y="999"/>
      <point x="608" y="999" type="qcurve" smooth="yes"/>
      <point x="438" y="999"/>
      <point x="198" y="756"/>
    </contour>
  </outline>
</glyph>
<glyph name="Eogonek" format="2">
  <advance width="1253"/>
  <unicode hex="0118"/>
  <anchor x="0" y="0" name="Anchor-11"/>
  <anchor x="0" y="0" name="Anchor-10"/>
  <anchor x="696" y="1448" name="Anchor-9"/>
  <anchor x="1159" y="0" name="Anchor-8"/>
  <anchor x="696" y="0" name="Anchor-7"/>
  <outline>
    <contour>
      <point x="1159" y="0" type="line"/>
      <point x="1074" y="-65"/>
      <point x="1001" y="-156"/>
      <point x="1001" y="-197" type="qcurve" smooth="yes"/>
      <point x="1001" y="-236"/>
      <point x="1072" y="-277"/>
      <point x="1153" y="-289" type="qcurve"/>
      <point x="1122" y="-358" type="line"/>
      <point x="1012" y="-345"/>
      <point x="924" y="-269"/>
      <point x="924" y="-211" type="qcurve" smooth="yes"/>
      <point x="924" y="-110"/>
      <point x="1061" y="0" type="qcurve"/>
      <point x="190" y="0" type="line"/>
      <point x="190" y="1454" type="line"/>
      <point x="1141" y="1454" type="line"/>
      <point x="1141" y="1360" type="line"/>
      <point x="295" y="1360" type="line"/>
      <point x="295" y="788" type="line"/>
      <point x="1034" y="788" type="line"/>
      <point x="1034" y="698" type="line"/>
      <point x="295" y="698" type="line"/>
      <point x="295" y="94" type="line"/>
      <point x="1159" y="94" type="line"/>
    </contour>
  </outline>
</glyph>
<glyph name="eogonek" format="2">
  <advance width="1193"/>
  <unicode hex="0119"/>
  <anchor x="0" y="0" name="Anchor-11"/>
  <anchor x="0" y="0" name="Anchor-10"/>
  <anchor x="604" y="1065" name="Anchor-9"/>
  <anchor x="752" y="0" name="Anchor-8"/>
  <anchor x="610" y="0" name="Anchor-7"/>
  <outline>
    <contour>
      <point x="1128" y="537" type="qcurve" smooth="yes"/>
      <point x="1128" y="502"/>
      <point x="1126" y="492" type="qcurve"/>
      <point x="193" y="492" type="line"/>
      <point x="206" y="308"/>
      <point x="450" y="61"/>
      <point x="616" y="61" type="qcurve" smooth="yes"/>
      <point x="727" y="61"/>
      <point x="924" y="176"/>
      <point x="963" y="266" type="qcurve"/>
      <point x="1053" y="242" type="line"/>
      <point x="1018" y="155"/>
      <point x="855" y="26"/>
      <point x="748" y="-2" type="qcurve"/>
      <point x="665" y="-67"/>
      <point x="594" y="-156"/>
      <point x="594" y="-197" type="qcurve" smooth="yes"/>
      <point x="594" y="-236"/>
      <point x="664" y="-277"/>
      <point x="745" y="-289" type="qcurve"/>
      <point x="715" y="-358" type="line"/>
      <point x="516" y="-335"/>
      <point x="516" y="-211" type="qcurve" smooth="yes"/>
      <point x="516" y="-118"/>
      <point x="629" y="-20" type="qcurve"/>
      <point x="612" y="-20" type="line" smooth="yes"/>
      <point x="466" y="-20"/>
      <point x="223" y="131"/>
      <point x="86" y="387"/>
      <point x="86" y="537" type="qcurve" smooth="yes"/>
      <point x="86" y="686"/>
      <point x="221" y="936"/>
      <point x="460" y="1083"/>
      <point x="606" y="1083" type="qcurve" smooth="yes"/>
      <point x="753" y="1083"/>
      <point x="994" y="934"/>
      <point x="1128" y="684"/>
    </contour>
    <contour>
      <point x="188" y="571" type="qcurve"/>
      <point x="1030" y="571" type="line"/>
      <point x="1017" y="758"/>
      <point x="777" y="999"/>
      <point x="608" y="999" type="qcurve" smooth="yes"/>
      <point x="438" y="999"/>
      <point x="198" y="756"/>
    </contour>
  </outline>
</glyph>
<glyph name="Hcircumflex" format="2">
  <advance width="1505"/>
  <unicode hex="0124"/>
  <anchor x="0" y="0" name="Anchor-11"/>
  <anchor x="754" y="727" name="Anchor-10"/>
  <anchor x="758" y="1878" name="Anchor-9"/>
  <anchor x="0" y="0" name="Anchor-8"/>
  <anchor x="754" y="0" name="Anchor-7"/>
  <outline>
    <contour>
      <point x="522" y="1712" type="line"/>
      <point x="719" y="1878" type="line"/>
      <point x="795" y="1878" type="line"/>
      <point x="993" y="1712" type="line"/>
      <point x="932" y="1677" type="line"/>
      <point x="758" y="1806" type="line"/>
      <point x="584" y="1677" type="line"/>
    </contour>
    <contour>
      <point x="1317" y="1454" type="line"/>
      <point x="1317" y="0" type="line"/>
      <point x="1212" y="0" type="line"/>
      <point x="1212" y="696" type="line"/>
      <point x="295" y="696" type="line"/>
      <point x="295" y="0" type="line"/>
      <point x="190" y="0" type="line"/>
      <point x="190" y="1454" type="line"/>
      <point x="295" y="1454" type="line"/>
      <point x="295" y="791" type="line"/>
      <point x="1212" y="791" type="line"/>
      <point x="1212" y="1454" type="line"/>
    </contour>
  </outline>
</glyph>
<glyph name="Hbar" format="2">
  <advance width="1525"/>
  <unicode hex="0126"/>
  <anchor x="0" y="0" name="Anchor-11"/>
  <anchor x="764" y="727" name="Anchor-10"/>
  <anchor x="768" y="1448" name="Anchor-9"/>
  <anchor x="0" y="0" name="Anchor-8"/>
  <anchor x="764" y="0" name="Anchor-7"/>
  <outline>
    <contour>
      <point x="1430" y="1194" type="line"/>
      <point x="1430" y="1112" type="line"/>
      <point x="1327" y="1112" type="line"/>
      <point x="1327" y="0" type="line"/>
      <point x="1223" y="0" type="line"/>
      <point x="1223" y="696" type="line"/>
      <point x="305" y="696" type="line"/>
      <point x="305" y="0" type="line"/>
      <point x="201" y="0" type="line"/>
      <point x="201" y="1112" type="line"/>
      <point x="98" y="1112" type="line"/>
      <point x="98" y="1194" type="line"/>
      <point x="201" y="1194" type="line"/>
      <point x="201" y="1454" type="line"/>
      <point x="305" y="1454" type="line"/>
      <point x="305" y="1194" type="line"/>
      <point x="1223" y="1194" type="line"/>
      <point x="1223" y="1454" type="line"/>
      <point x="1327" y="1454" type="line"/>
      <point x="1327" y="1194" type="line"/>
    </contour>
    <contour>
      <point x="1223" y="791" type="line"/>
      <point x="1223" y="1112" type="line"/>
      <point x="305" y="1112" type="line"/>
      <point x="305" y="791" type="line"/>
    </contour>
  </outline>
</glyph>
<glyph name="hbar" format="2">
  <advance width="1179"/>
  <unicode hex="0127"/>
  <anchor x="0" y="0" name="Anchor-11"/>
  <anchor x="590" y="532" name="Anchor-10"/>
  <anchor x="637" y="1454" name="Anchor-9"/>
  <anchor x="0" y="0" name="Anchor-8"/>
  <anchor x="590" y="0" name="Anchor-7"/>
  <outline>
    <contour>
      <point x="692" y="1083" type="qcurve" smooth="yes"/>
      <point x="864" y="1083"/>
      <point x="1030" y="838"/>
      <point x="1030" y="612" type="qcurve" smooth="yes"/>
      <point x="1030" y="0" type="line"/>
      <point x="928" y="0" type="line"/>
      <point x="928" y="594" type="line" smooth="yes"/>
      <point x="928" y="989"/>
      <point x="664" y="989" type="qcurve" smooth="yes"/>
      <point x="534" y="989"/>
      <point x="302" y="799"/>
      <point x="262" y="659" type="qcurve"/>
      <point x="262" y="0" type="line"/>
      <point x="160" y="0" type="line"/>
      <point x="160" y="1276" type="line"/>
      <point x="25" y="1276" type="line"/>
      <point x="25" y="1350" type="line"/>
      <point x="160" y="1350" type="line"/>
      <point x="160" y="1495" type="line"/>
      <point x="262" y="1495" type="line"/>
      <point x="262" y="1350" type="line"/>
      <point x="518" y="1350" type="line"/>
      <point x="518" y="1276" type="line"/>
      <point x="262" y="1276" type="line"/>
      <point x="262" y="811" type="line"/>
      <point x="326" y="935"/>
      <point x="560" y="1083"/>
    </contour>
  </outline>
</glyph>
<glyph name="Itilde" format="2">
  <advance width="485"/>
  <unicode hex="0128"/>
  <anchor x="0" y="0" name="Anchor-11"/>
  <anchor x="0" y="0" name="Anchor-10"/>
  <anchor x="242" y="1878" name="Anchor-9"/>
  <anchor x="295" y="0" name="Anchor-8"/>
  <anchor x="244" y="0" name="Anchor-7"/>
  <outline>
    <contour>
      <point x="104" y="1790" type="qcurve" smooth="yes"/>
      <point x="73" y="1790"/>
      <point x="28" y="1763"/>
      <point x="9" y="1725"/>
      <point x="2" y="1699"/>
      <point x="2" y="1692" type="qcurve"/>
      <point x="-68" y="1692" type="line"/>
      <point x="-68" y="1706"/>
      <point x="-54" y="1753"/>
      <point x="-21" y="1817"/>
      <point x="53" y="1862"/>
      <point x="104" y="1862" type="qcurve" smooth="yes"/>
      <point x="161" y="1862"/>
      <point x="315" y="1780"/>
      <point x="365" y="1780" type="qcurve" smooth="yes"/>
      <point x="396" y="1780"/>
      <point x="442" y="1799"/>
      <point x="464" y="1825"/>
      <point x="478" y="1856"/>
      <point x="481" y="1873"/>
      <point x="481" y="1878" type="qcurve"/>
      <point x="553" y="1878" type="line"/>
      <point x="553" y="1868"/>
      <point x="545" y="1833"/>
      <point x="520" y="1782"/>
      <point x="481" y="1739"/>
      <point x="410" y="1708"/>
      <point x="365" y="1708" type="qcurve" smooth="yes"/>
      <point x="313" y="1708"/>
      <point x="219" y="1749"/>
      <point x="139" y="1790"/>
    </contour>
    <contour>
      <point x="190" y="0" type="line"/>
      <point x="190" y="1454" type="line"/>
      <point x="295" y="1454" type="line"/>
      <point x="295" y="0" type="line"/>
    </contour>
  </outline>
</glyph>
<glyph name="itilde" format="2">
  <advance width="423"/>
  <unicode hex="0129"/>
  <anchor x="0" y="0" name="Anchor-11"/>
  <anchor x="0" y="0" name="Anchor-10"/>
  <anchor x="211" y="1495" name="Anchor-9"/>
  <anchor x="0" y="0" name="Anchor-8"/>
  <anchor x="0" y="0" name="Anchor-7"/>
  <outline>
    <contour>
      <point x="74" y="1407" type="qcurve" smooth="yes"/>
      <point x="43" y="1407"/>
      <point x="-2" y="1380"/>
      <point x="-21" y="1342"/>
      <point x="-29" y="1316"/>
      <point x="-29" y="1309" type="qcurve"/>
      <point x="-98" y="1309" type="line"/>
      <point x="-98" y="1323"/>
      <point x="-84" y="1370"/>
      <point x="-51" y="1434"/>
      <point x="23" y="1479"/>
      <point x="74" y="1479" type="qcurve" smooth="yes"/>
      <point x="131" y="1479"/>
      <point x="284" y="1397"/>
      <point x="334" y="1397" type="qcurve" smooth="yes"/>
      <point x="365" y="1397"/>
      <point x="411" y="1416"/>
      <point x="434" y="1442"/>
      <point x="448" y="1473"/>
      <point x="451" y="1490"/>
      <point x="451" y="1495" type="qcurve"/>
      <point x="522" y="1495" type="line"/>
      <point x="522" y="1485"/>
      <point x="514" y="1450"/>
      <point x="489" y="1399"/>
      <point x="450" y="1356"/>
      <point x="379" y="1325"/>
      <point x="334" y="1325" type="qcurve" smooth="yes"/>
      <point x="282" y="1325"/>
      <point x="188" y="1366"/>
      <point x="109" y="1407"/>
    </contour>
    <contour>
      <point x="160" y="0" type="line"/>
      <point x="160" y="1065" type="line"/>
      <point x="262" y="1065" type="line"/>
      <point x="262" y="0" type="line"/>
    </contour>
  </outline>
</glyph>
<glyph name="Imacron" format="2">
  <advance width="485"/>
  <unicode hex="012A"/>
  <anchor x="0" y="0" name="Anchor-11"/>
  <anchor x="0" y="0" name="Anchor-10"/>
  <anchor x="242" y="1835" name="Anchor-9"/>
  <anchor x="295" y="0" name="Anchor-8"/>
  <anchor x="244" y="0" name="Anchor-7"/>
  <outline>
    <contour>
      <point x="-49" y="1759" type="line"/>
      <point x="-49" y="1835" type="line"/>
      <point x="535" y="1835" type="line"/>
      <point x="535" y="1759" type="line"/>
    </contour>
    <contour>
      <point x="190" y="0" type="line"/>
      <point x="190" y="1454" type="line"/>
      <point x="295" y="1454" type="line"/>
      <point x="295" y="0" type="line"/>
    </contour>
  </outline>
</glyph>
<glyph name="imacron" format="2">
  <advance width="423"/>
  <unicode hex="012B"/>
  <anchor x="0" y="0" name="Anchor-11"/>
  <anchor x="0" y="0" name="Anchor-10"/>
  <anchor x="211" y="1452" name="Anchor-9"/>
  <anchor x="0" y="0" name="Anchor-8"/>
  <anchor x="0" y="0" name="Anchor-7"/>
  <outline>
    <contour>
      <point x="-80" y="1376" type="line"/>
      <point x="-80" y="1452" type="line"/>
      <point x="504" y="1452" type="line"/>
      <point x="504" y="1376" type="line"/>
    </contour>
    <contour>
      <point x="160" y="0" type="line"/>
      <point x="160" y="1065" type="line"/>
      <point x="262" y="1065" type="line"/>
      <point x="262" y="0" type="line"/>
    </contour>
  </outline>
</glyph>
<glyph name="Ibreve" format="2">
  <advance width="485"/>
  <unicode hex="012C"/>
  <anchor x="0" y="0" name="Anchor-11"/>
  <anchor x="0" y="0" name="Anchor-10"/>
  <anchor x="242" y="1790" name="Anchor-9"/>
  <anchor x="295" y="0" name="Anchor-8"/>
  <anchor x="244" y="0" name="Anchor-7"/>
  <outline>
    <contour>
      <point x="356" y="1878" type="qcurve"/>
      <point x="424" y="1878" type="line"/>
      <point x="424" y="1800"/>
      <point x="316" y="1690"/>
      <point x="242" y="1690" type="qcurve" smooth="yes"/>
      <point x="167" y="1690"/>
      <point x="59" y="1800"/>
      <point x="59" y="1878" type="qcurve"/>
      <point x="127" y="1878" type="line"/>
      <point x="127" y="1827"/>
      <point x="198" y="1747"/>
      <point x="242" y="1747" type="qcurve" smooth="yes"/>
      <point x="283" y="1747"/>
      <point x="350" y="1823"/>
    </contour>
    <contour>
      <point x="190" y="0" type="line"/>
      <point x="190" y="1454" type="line"/>
      <point x="295" y="1454" type="line"/>
      <point x="295" y="0" type="line"/>
    </contour>
  </outline>
</glyph>
<glyph name="ibreve" format="2">
  <advance width="423"/>
  <unicode hex="012D"/>
  <anchor x="0" y="0" name="Anchor-11"/>
  <anchor x="0" y="0" name="Anchor-10"/>
  <anchor x="211" y="1407" name="Anchor-9"/>
  <anchor x="0" y="0" name="Anchor-8"/>
  <anchor x="0" y="0" name="Anchor-7"/>
  <outline>
    <contour>
      <point x="326" y="1495" type="qcurve"/>
      <point x="393" y="1495" type="line"/>
      <point x="393" y="1417"/>
      <point x="285" y="1307"/>
      <point x="211" y="1307" type="qcurve" smooth="yes"/>
      <point x="136" y="1307"/>
      <point x="29" y="1417"/>
      <point x="29" y="1495" type="qcurve"/>
      <point x="96" y="1495" type="line"/>
      <point x="96" y="1444"/>
      <point x="167" y="1364"/>
      <point x="211" y="1364" type="qcurve" smooth="yes"/>
      <point x="253" y="1364"/>
      <point x="320" y="1440"/>
    </contour>
    <contour>
      <point x="160" y="0" type="line"/>
      <point x="160" y="1065" type="line"/>
      <point x="262" y="1065" type="line"/>
      <point x="262" y="0" type="line"/>
    </contour>
  </outline>
</glyph>
<glyph name="Iogonek" format="2">
  <advance width="485"/>
  <unicode hex="012E"/>
  <anchor x="0" y="0" name="Anchor-11"/>
  <anchor x="0" y="0" name="Anchor-10"/>
  <anchor x="242" y="1448" name="Anchor-9"/>
  <anchor x="295" y="0" name="Anchor-8"/>
  <anchor x="244" y="0" name="Anchor-7"/>
  <outline>
    <contour>
      <point x="295" y="0" type="line"/>
      <point x="210" y="-65"/>
      <point x="137" y="-156"/>
      <point x="137" y="-197" type="qcurve" smooth="yes"/>
      <point x="137" y="-236"/>
      <point x="208" y="-277"/>
      <point x="289" y="-289" type="qcurve"/>
      <point x="258" y="-358" type="line"/>
      <point x="59" y="-335"/>
      <point x="59" y="-211" type="qcurve" smooth="yes"/>
      <point x="59" y="-111"/>
      <point x="197" y="0" type="qcurve"/>
      <point x="190" y="0" type="line"/>
      <point x="190" y="1454" type="line"/>
      <point x="295" y="1454" type="line"/>
    </contour>
  </outline>
</glyph>
<glyph name="iogonek" format="2">
  <advance width="423"/>
  <unicode hex="012F"/>
  <anchor x="0" y="0" name="Anchor-11"/>
  <anchor x="0" y="0" name="Anchor-10"/>
  <anchor x="0" y="0" name="Anchor-9"/>
  <anchor x="262" y="0" name="Anchor-8"/>
  <anchor x="211" y="0" name="Anchor-7"/>
  <outline>
    <contour>
      <point x="160" y="1495" type="line"/>
      <point x="262" y="1495" type="line"/>
      <point x="262" y="1307" type="line"/>
      <point x="160" y="1307" type="line"/>
    </contour>
    <contour>
      <point x="160" y="0" type="line"/>
      <point x="160" y="1065" type="line"/>
      <point x="262" y="1065" type="line"/>
      <point x="262" y="0" type="line"/>
      <point x="177" y="-65"/>
      <point x="104" y="-156"/>
      <point x="104" y="-197" type="qcurve" smooth="yes"/>
      <point x="104" y="-236"/>
      <point x="175" y="-277"/>
      <point x="256" y="-289" type="qcurve"/>
      <point x="225" y="-358" type="line"/>
      <point x="115" y="-345"/>
      <point x="27" y="-269"/>
      <point x="27" y="-211" type="qcurve" smooth="yes"/>
      <point x="27" y="-110"/>
      <point x="164" y="0" type="qcurve"/>
    </contour>
  </outline>
</glyph>
<glyph name="Idotaccent" format="2">
  <advance width="485"/>
  <unicode hex="0130"/>
  <anchor x="0" y="0" name="Anchor-11"/>
  <anchor x="0" y="0" name="Anchor-10"/>
  <anchor x="242" y="1878" name="Anchor-9"/>
  <anchor x="295" y="0" name="Anchor-8"/>
  <anchor x="244" y="0" name="Anchor-7"/>
  <outline>
    <contour>
      <point x="195" y="1694" type="line"/>
      <point x="195" y="1878" type="line"/>
      <point x="289" y="1878" type="line"/>
      <point x="289" y="1694" type="line"/>
    </contour>
    <contour>
      <point x="190" y="0" type="line"/>
      <point x="190" y="1454" type="line"/>
      <point x="295" y="1454" type="line"/>
      <point x="295" y="0" type="line"/>
    </contour>
  </outline>
</glyph>
<glyph name="Jcircumflex" format="2">
  <advance width="978"/>
  <unicode hex="0134"/>
  <anchor x="0" y="0" name="Anchor-11"/>
  <anchor x="0" y="0" name="Anchor-10"/>
  <anchor x="756" y="1878" name="Anchor-9"/>
  <anchor x="0" y="0" name="Anchor-8"/>
  <anchor x="0" y="0" name="Anchor-7"/>
  <outline>
    <contour>
      <point x="520" y="1712" type="line"/>
      <point x="717" y="1878" type="line"/>
      <point x="793" y="1878" type="line"/>
      <point x="991" y="1712" type="line"/>
      <point x="930" y="1677" type="line"/>
      <point x="756" y="1806" type="line"/>
      <point x="582" y="1677" type="line"/>
    </contour>
    <contour>
      <point x="66" y="152" type="line"/>
      <point x="180" y="74"/>
      <point x="348" y="74" type="qcurve" smooth="yes"/>
      <point x="414" y="74"/>
      <point x="516" y="102"/>
      <point x="591" y="151"/>
      <point x="643" y="234"/>
      <point x="676" y="329"/>
      <point x="695" y="465"/>
      <point x="702" y="603"/>
      <point x="702" y="696" type="qcurve" smooth="yes"/>
      <point x="702" y="1454" type="line"/>
      <point x="807" y="1454" type="line"/>
      <point x="807" y="715" type="line" smooth="yes"/>
      <point x="807" y="613"/>
      <point x="799" y="458"/>
      <point x="775" y="297"/>
      <point x="734" y="183"/>
      <point x="666" y="78"/>
      <point x="571" y="14"/>
      <point x="437" y="-23"/>
      <point x="352" y="-23" type="qcurve" smooth="yes"/>
      <point x="166" y="-23"/>
      <point x="33" y="68" type="qcurve"/>
    </contour>
  </outline>
</glyph>
<glyph name="jcircumflex" format="2">
  <advance width="423"/>
  <unicode hex="0135"/>
  <anchor x="0" y="0" name="Anchor-11"/>
  <anchor x="0" y="0" name="Anchor-10"/>
  <anchor x="211" y="1495" name="Anchor-9"/>
  <anchor x="0" y="0" name="Anchor-8"/>
  <anchor x="0" y="0" name="Anchor-7"/>
  <outline>
    <contour>
      <point x="-25" y="1329" type="line"/>
      <point x="172" y="1495" type="line"/>
      <point x="248" y="1495" type="line"/>
      <point x="446" y="1329" type="line"/>
      <point x="385" y="1294" type="line"/>
      <point x="211" y="1423" type="line"/>
      <point x="37" y="1294" type="line"/>
    </contour>
    <contour>
      <point x="-258" y="-287" type="qcurve"/>
      <point x="-203" y="-219" type="line"/>
      <point x="-149" y="-268"/>
      <point x="-45" y="-268" type="qcurve" smooth="yes"/>
      <point x="33" y="-268"/>
      <point x="160" y="-147"/>
      <point x="160" y="-61" type="qcurve" smooth="yes"/>
      <point x="160" y="1065" type="line"/>
      <point x="262" y="1065" type="line"/>
      <point x="262" y="-57" type="line" smooth="yes"/>
      <point x="262" y="-186"/>
      <point x="80" y="-362"/>
      <point x="-37" y="-362" type="qcurve" smooth="yes"/>
      <point x="-180" y="-362"/>
    </contour>
  </outline>
</glyph>
<glyph name="Kcedilla" format="2">
  <advance width="1300"/>
  <unicode hex="0136"/>
  <anchor x="0" y="0" name="Anchor-11"/>
  <anchor x="0" y="0" name="Anchor-10"/>
  <anchor x="0" y="0" name="Anchor-9"/>
  <anchor x="0" y="0" name="Anchor-8"/>
  <anchor x="666" y="0" name="Anchor-7"/>
  <outline>
    <contour>
      <point x="190" y="0" type="line"/>
      <point x="190" y="1454" type="line"/>
      <point x="295" y="1454" type="line"/>
      <point x="295" y="571" type="line"/>
      <point x="1143" y="1454" type="line"/>
      <point x="1264" y="1454" type="line"/>
      <point x="659" y="817" type="line"/>
      <point x="1294" y="0" type="line"/>
      <point x="1174" y="0" type="line"/>
      <point x="590" y="752" type="line"/>
      <point x="295" y="449" type="line"/>
      <point x="295" y="0" type="line"/>
    </contour>
    <contour>
      <point x="612" y="-383" type="line"/>
      <point x="643" y="-244" type="line"/>
      <point x="610" y="-244" type="line"/>
      <point x="610" y="-100" type="line"/>
      <point x="711" y="-100" type="line"/>
      <point x="711" y="-244" type="line"/>
      <point x="668" y="-383" type="line"/>
    </contour>
  </outline>
</glyph>
<glyph name="kcedilla" format="2">
  <advance width="1069"/>
  <unicode hex="0137"/>
  <anchor x="0" y="0" name="Anchor-11"/>
  <anchor x="0" y="0" name="Anchor-10"/>
  <anchor x="0" y="0" name="Anchor-9"/>
  <anchor x="0" y="0" name="Anchor-8"/>
  <anchor x="557" y="0" name="Anchor-7"/>
  <outline>
    <contour>
      <point x="930" y="0" type="line"/>
      <point x="514" y="569" type="line"/>
      <point x="262" y="338" type="line"/>
      <point x="262" y="0" type="line"/>
      <point x="160" y="0" type="line"/>
      <point x="160" y="1495" type="line"/>
      <point x="262" y="1495" type="line"/>
      <point x="262" y="453" type="line"/>
      <point x="911" y="1063" type="line"/>
      <point x="1028" y="1063" type="line"/>
      <point x="584" y="631" type="line"/>
      <point x="1042" y="0" type="line"/>
    </contour>
    <contour>
      <point x="504" y="-383" type="line"/>
      <point x="535" y="-244" type="line"/>
      <point x="502" y="-244" type="line"/>
      <point x="502" y="-100" type="line"/>
      <point x="602" y="-100" type="line"/>
      <point x="602" y="-244" type="line"/>
      <point x="559" y="-383" type="line"/>
    </contour>
  </outline>
</glyph>
<glyph name="kgreenlandic" format="2">
  <advance width="1069"/>
  <unicode hex="0138"/>
  <outline>
    <contour>
      <point x="930" y="0" type="line"/>
      <point x="514" y="569" type="line"/>
      <point x="262" y="338" type="line"/>
      <point x="262" y="0" type="line"/>
      <point x="160" y="0" type="line"/>
      <point x="160" y="1065" type="line"/>
      <point x="262" y="1065" type="line"/>
      <point x="262" y="451" type="line"/>
      <point x="909" y="1063" type="line"/>
      <point x="1028" y="1063" type="line"/>
      <point x="584" y="631" type="line"/>
      <point x="1042" y="0" type="line"/>
    </contour>
  </outline>
</glyph>
<glyph name="Lacute" format="2">
  <advance width="1189"/>
  <unicode hex="0139"/>
  <anchor x="788" y="1077" name="Anchor-11"/>
  <anchor x="596" y="727" name="Anchor-10"/>
  <anchor x="326" y="1882" name="Anchor-9"/>
  <anchor x="0" y="0" name="Anchor-8"/>
  <anchor x="682" y="0" name="Anchor-7"/>
  <outline>
    <contour>
      <point x="274" y="1675" type="line"/>
      <point x="203" y="1708" type="line"/>
      <point x="328" y="1882" type="line"/>
      <point x="446" y="1882" type="line"/>
    </contour>
    <contour>
      <point x="190" y="0" type="line"/>
      <point x="190" y="1454" type="line"/>
      <point x="295" y="1454" type="line"/>
      <point x="295" y="94" type="line"/>
      <point x="1163" y="94" type="line"/>
      <point x="1163" y="0" type="line"/>
    </contour>
  </outline>
</glyph>
<glyph name="Lcedilla" format="2">
  <advance width="1189"/>
  <unicode hex="013B"/>
  <anchor x="788" y="1077" name="Anchor-11"/>
  <anchor x="596" y="727" name="Anchor-10"/>
  <anchor x="240" y="1452" name="Anchor-9"/>
  <anchor x="0" y="0" name="Anchor-8"/>
  <anchor x="682" y="0" name="Anchor-7"/>
  <outline>
    <contour>
      <point x="190" y="0" type="line"/>
      <point x="190" y="1454" type="line"/>
      <point x="295" y="1454" type="line"/>
      <point x="295" y="94" type="line"/>
      <point x="1163" y="94" type="line"/>
      <point x="1163" y="0" type="line"/>
    </contour>
    <contour>
      <point x="629" y="-383" type="line"/>
      <point x="659" y="-244" type="line"/>
      <point x="627" y="-244" type="line"/>
      <point x="627" y="-100" type="line"/>
      <point x="727" y="-100" type="line"/>
      <point x="727" y="-244" type="line"/>
      <point x="684" y="-383" type="line"/>
    </contour>
  </outline>
</glyph>
<glyph name="Lcaron" format="2">
  <advance width="1189"/>
  <unicode hex="013D"/>
  <anchor x="788" y="1077" name="Anchor-11"/>
  <anchor x="596" y="727" name="Anchor-10"/>
  <anchor x="240" y="1452" name="Anchor-9"/>
  <anchor x="0" y="0" name="Anchor-8"/>
  <anchor x="682" y="0" name="Anchor-7"/>
  <outline>
    <contour>
      <point x="850" y="1300" type="line"/>
      <point x="778" y="1333" type="line"/>
      <point x="903" y="1507" type="line"/>
      <point x="1022" y="1507" type="line"/>
    </contour>
    <contour>
      <point x="190" y="0" type="line"/>
      <point x="190" y="1454" type="line"/>
      <point x="295" y="1454" type="line"/>
      <point x="295" y="94" type="line"/>
      <point x="1163" y="94" type="line"/>
      <point x="1163" y="0" type="line"/>
    </contour>
  </outline>
</glyph>
<glyph name="Ldot" format="2">
  <advance width="1189"/>
  <unicode hex="013F"/>
  <anchor x="788" y="1077" name="Anchor-11"/>
  <anchor x="596" y="727" name="Anchor-10"/>
  <anchor x="240" y="1452" name="Anchor-9"/>
  <anchor x="0" y="0" name="Anchor-8"/>
  <anchor x="682" y="0" name="Anchor-7"/>
  <outline>
    <contour>
      <point x="190" y="0" type="line"/>
      <point x="190" y="1454" type="line"/>
      <point x="295" y="1454" type="line"/>
      <point x="295" y="94" type="line"/>
      <point x="1163" y="94" type="line"/>
      <point x="1163" y="0" type="line"/>
    </contour>
    <contour>
      <point x="750" y="723" type="line"/>
      <point x="750" y="930" type="line"/>
      <point x="840" y="930" type="line"/>
      <point x="840" y="723" type="line"/>
    </contour>
  </outline>
</glyph>
<glyph name="Lslash" format="2">
  <advance width="1204"/>
  <unicode hex="0141"/>
  <anchor x="803" y="1077" name="Anchor-11"/>
  <anchor x="610" y="727" name="Anchor-10"/>
  <anchor x="254" y="1452" name="Anchor-9"/>
  <anchor x="0" y="0" name="Anchor-8"/>
  <anchor x="696" y="0" name="Anchor-7"/>
  <outline>
    <contour>
      <point x="309" y="94" type="line"/>
      <point x="1178" y="94" type="line"/>
      <point x="1178" y="0" type="line"/>
      <point x="205" y="0" type="line"/>
      <point x="205" y="573" type="line"/>
      <point x="82" y="463" type="line"/>
      <point x="43" y="526" type="line"/>
      <point x="205" y="670" type="line"/>
      <point x="205" y="1454" type="line"/>
      <point x="309" y="1454" type="line"/>
      <point x="309" y="764" type="line"/>
      <point x="651" y="1069" type="line"/>
      <point x="690" y="1008" type="line"/>
      <point x="309" y="666" type="line"/>
    </contour>
  </outline>
</glyph>
